{"glyphs":{"0":{"ha":861,"x_min":65,"x_max":778,"o":"m 778 449 q 759 234 778 332 q 699 66 740 136 q 589 -44 657 -4 q 422 -83 521 -83 q 260 -44 328 -83 q 149 67 192 -4 q 85 235 106 138 q 65 449 65 332 q 85 658 65 563 q 149 823 106 754 q 259 931 192 892 q 421 969 326 969 q 588 930 519 969 q 698 820 656 890 q 759 655 740 750 q 778 449 778 560 m 576 450 q 571 589 576 517 q 549 721 565 661 q 501 819 532 781 q 421 858 471 858 q 344 819 374 858 q 297 721 314 781 q 273 589 279 661 q 267 450 267 517 q 272 301 267 376 q 294 165 278 226 q 342 66 311 104 q 422 28 372 28 q 503 66 472 28 q 549 165 533 104 q 571 301 565 226 q 576 450 576 376 z "},"1":{"ha":513,"x_min":29,"x_max":386,"o":"m 386 -67 l 197 -67 l 197 708 q 186 762 197 746 q 154 779 175 778 q 102 769 133 781 q 29 743 71 758 l 29 813 l 304 953 l 386 953 l 386 -67 z "},"2":{"ha":778,"x_min":49,"x_max":717,"o":"m 701 -74 l 49 -74 l 49 79 l 224 218 q 375 353 308 286 q 478 474 442 421 q 513 549 500 511 q 525 651 525 586 q 513 713 525 682 q 478 766 500 743 q 426 803 457 789 q 357 818 394 818 q 245 776 304 818 q 133 675 186 735 l 53 733 q 212 904 121 839 q 422 969 303 969 q 551 944 496 969 q 642 874 606 918 q 698 774 679 831 q 717 658 717 718 q 700 536 717 597 q 653 425 683 475 q 581 331 622 378 q 494 238 540 283 q 400 152 449 193 q 304 78 351 111 l 701 78 l 701 -74 z "},"3":{"ha":749,"x_min":56,"x_max":689,"o":"m 689 240 q 658 108 689 167 q 572 6 626 49 q 446 -60 518 -37 q 292 -83 374 -83 q 179 -72 236 -83 q 64 -42 122 -61 l 64 76 q 138 54 101 63 q 210 46 175 46 q 418 107 350 46 q 486 260 486 168 q 458 349 486 317 q 390 395 431 381 q 306 413 350 410 q 228 415 261 415 l 228 526 q 295 528 256 526 q 372 543 335 531 q 434 585 408 556 q 460 668 460 614 q 449 736 460 708 q 421 782 439 764 q 379 808 403 800 q 331 815 356 815 q 275 806 303 815 q 222 783 247 797 q 174 753 197 769 q 135 722 151 736 l 56 783 q 104 842 74 810 q 175 903 135 875 q 265 950 215 931 q 368 969 314 969 q 483 951 431 969 q 575 897 536 932 q 636 811 614 861 q 658 699 658 761 q 622 566 658 622 q 531 476 586 510 q 592 444 564 464 q 642 397 621 425 q 676 330 664 368 q 689 240 689 292 z "},"4":{"ha":822,"x_min":21,"x_max":792,"o":"m 792 158 l 628 158 l 628 -67 l 438 -67 l 438 158 l 108 158 q 42 181 63 158 q 21 238 21 203 q 43 308 21 272 l 449 953 l 628 953 l 628 317 l 792 317 l 792 158 m 438 317 l 438 686 l 214 317 l 438 317 z "},"5":{"ha":790,"x_min":58,"x_max":721,"o":"m 721 274 q 690 102 721 169 q 604 -5 658 35 q 478 -60 550 -44 q 325 -76 406 -76 q 190 -62 257 -76 q 58 -28 124 -47 l 58 94 q 162 74 114 81 q 254 67 210 67 q 363 75 313 67 q 452 108 414 83 q 512 176 490 133 q 533 288 533 219 q 526 356 533 321 q 502 420 518 392 q 463 467 486 449 q 406 485 439 485 q 381 482 397 485 q 347 474 365 479 q 309 458 328 468 q 276 433 290 447 q 247 409 263 418 q 200 400 232 400 l 86 400 l 110 960 l 671 960 l 671 821 l 288 821 l 275 554 q 343 591 307 578 q 419 604 379 604 q 534 580 479 604 q 631 512 589 556 q 697 407 672 468 q 721 274 721 346 z "},"6":{"ha":833,"x_min":67,"x_max":774,"o":"m 774 258 q 748 115 774 179 q 676 8 722 51 q 564 -60 629 -36 q 419 -83 499 -83 q 260 -53 326 -83 q 150 31 193 -22 q 87 158 107 85 q 67 318 67 232 q 97 534 67 431 q 187 722 126 638 q 336 866 247 806 q 543 953 425 926 q 598 961 568 957 q 663 967 628 965 l 685 871 q 533 813 601 851 q 413 726 465 775 q 327 619 361 676 q 278 506 293 563 q 374 549 319 532 q 482 565 429 565 q 604 542 550 565 q 696 476 658 518 q 753 378 733 435 q 774 258 774 322 m 590 240 q 581 315 590 279 q 551 378 572 351 q 497 422 531 406 q 417 439 464 439 q 366 433 390 439 q 321 417 342 426 q 285 396 300 407 q 263 375 269 385 q 256 324 258 351 q 253 272 253 297 q 263 182 253 225 q 293 106 272 139 q 345 53 314 72 q 421 33 376 33 q 545 88 500 33 q 590 240 590 142 z "},"7":{"ha":758,"x_min":69,"x_max":717,"o":"m 386 -67 l 179 -67 l 481 765 q 479 800 488 785 q 446 815 471 815 l 69 815 l 69 954 l 607 954 q 691 943 665 954 q 717 890 717 932 q 697 811 717 858 l 699 811 l 386 -67 z "},"8":{"ha":847,"x_min":60,"x_max":778,"o":"m 778 219 q 752 89 778 146 q 680 -6 726 32 q 567 -64 633 -44 q 421 -83 501 -83 q 274 -64 340 -83 q 160 -6 207 -44 q 86 89 113 32 q 60 219 60 146 q 106 381 60 318 q 221 476 151 444 q 178 508 199 489 q 142 556 158 528 q 117 622 126 585 q 107 706 107 658 q 133 822 107 772 q 201 905 158 872 q 301 953 244 938 q 419 969 358 969 q 537 953 481 969 q 636 905 593 938 q 705 822 679 872 q 731 706 731 772 q 721 622 731 658 q 695 556 711 585 q 659 508 679 528 q 617 476 639 489 q 732 381 686 444 q 778 219 778 318 m 576 219 q 567 291 576 256 q 540 355 558 326 q 492 401 521 383 q 421 419 463 419 q 349 401 379 419 q 299 355 318 383 q 270 291 279 326 q 261 219 261 256 q 271 149 261 183 q 299 89 281 115 q 347 46 318 63 q 417 29 376 29 q 486 46 456 29 q 536 89 517 63 q 566 149 556 115 q 576 219 576 183 m 540 706 q 509 813 540 768 q 419 858 478 858 q 329 813 361 858 q 297 706 297 768 q 305 645 297 675 q 327 591 313 615 q 364 551 342 567 q 417 536 386 536 q 470 551 447 536 q 509 591 493 567 q 533 645 525 615 q 540 706 540 675 z "},"9":{"ha":833,"x_min":60,"x_max":765,"o":"m 765 511 q 727 297 765 400 q 622 114 689 194 q 463 -19 556 33 q 258 -83 369 -71 q 212 -85 235 -86 q 172 -83 189 -85 l 151 22 q 327 69 254 31 q 448 160 400 107 q 522 276 496 214 q 557 394 547 338 q 477 343 522 364 q 356 322 432 322 q 141 400 222 322 q 60 625 60 478 q 84 765 60 701 q 154 874 108 828 q 265 944 200 919 q 410 969 329 969 q 575 932 507 969 q 685 831 643 894 q 747 684 728 767 q 765 511 765 601 m 567 596 q 561 679 567 633 q 538 765 556 725 q 489 831 521 804 q 404 858 457 858 q 333 837 363 858 q 284 782 303 815 q 256 708 265 749 q 247 629 247 667 q 260 542 247 579 q 296 481 274 506 q 347 446 318 457 q 406 435 375 435 q 467 447 440 435 q 513 475 493 458 q 545 510 532 492 q 565 540 558 528 q 567 566 567 553 q 567 596 567 579 z "},"\u0000":{"ha":0,"x_min":0,"x_max":0,"o":""},"\r":{"ha":417,"x_min":0,"x_max":0,"o":""}," ":{"ha":417,"x_min":0,"x_max":0,"o":""}," ":{"ha":417,"x_min":0,"x_max":0,"o":""},"!":{"ha":489,"x_min":129,"x_max":354,"o":"m 239 974 q 342 838 350 974 l 297 233 l 192 233 l 143 839 q 160 937 139 900 q 239 974 181 974 m 354 11 q 321 -69 354 -37 q 242 -100 288 -100 q 163 -69 196 -100 q 129 11 129 -37 q 163 87 129 56 q 240 118 196 118 q 283 110 263 118 q 319 88 303 101 q 344 53 335 74 q 354 11 354 33 z "},"\"":{"ha":463,"x_min":76,"x_max":399,"o":"m 207 638 q 197 580 207 599 q 157 561 186 561 l 76 561 l 76 1011 l 207 1011 l 207 638 m 399 638 q 388 580 399 599 q 350 561 378 561 l 268 561 l 268 1011 l 399 1011 l 399 638 z "},"#":{"ha":882,"x_min":75,"x_max":825,"o":"m 703 699 l 763 921 l 610 921 l 550 699 l 463 699 l 521 921 l 368 921 l 310 699 l 186 699 l 150 564 l 274 564 l 233 419 l 110 419 l 75 285 l 197 285 l 126 26 l 279 26 l 350 285 l 438 285 l 369 26 l 522 26 l 590 285 l 714 285 l 750 419 l 628 419 l 668 564 l 790 564 l 825 699 l 703 699 m 474 419 l 388 419 l 426 564 l 515 564 l 474 419 z "},"$":{"ha":840,"x_min":86,"x_max":775,"o":"m 482 -192 l 369 -192 l 365 -96 q 260 -90 315 -94 q 165 -76 206 -86 q 125 -65 143 -71 q 90 -47 107 -58 l 99 126 q 150 97 119 114 q 216 65 181 81 q 290 36 251 49 q 368 21 329 24 l 368 358 q 268 410 318 383 q 177 474 218 438 q 111 558 136 510 q 86 676 86 607 q 160 865 86 796 q 368 944 233 933 l 368 1025 l 482 1025 l 482 949 q 583 940 536 946 q 665 926 631 933 q 684 924 674 925 q 701 921 694 922 l 701 760 q 608 797 665 775 q 482 828 550 818 l 482 533 q 490 529 485 531 q 497 526 494 528 q 595 475 546 503 q 685 410 644 447 q 750 325 725 374 q 775 210 775 276 q 753 85 775 138 q 691 -5 731 32 q 598 -62 651 -42 q 482 -90 544 -82 l 482 -192 m 588 164 q 555 245 588 211 q 482 306 522 279 l 482 29 q 558 70 529 39 q 588 164 588 101 m 278 715 q 303 642 278 671 q 368 589 328 613 l 368 828 q 303 790 328 818 q 278 715 278 763 z "},"%":{"ha":1314,"x_min":33,"x_max":1289,"o":"m 957 969 l 506 -115 l 361 -115 l 814 969 l 957 969 m 33 614 q 53 724 33 672 q 110 815 74 776 q 194 876 146 854 q 299 899 242 899 q 403 876 354 899 q 488 815 451 854 q 544 724 524 776 q 564 614 564 672 q 544 503 564 556 q 488 413 524 451 q 403 351 451 374 q 299 329 354 329 q 194 351 242 329 q 110 413 146 374 q 53 503 74 451 q 33 614 33 556 m 169 614 q 205 502 169 547 q 299 457 240 457 q 392 502 356 457 q 428 614 428 547 q 418 674 428 646 q 391 724 408 703 q 350 758 374 746 q 299 771 326 771 q 205 725 240 771 q 169 614 169 679 m 758 249 q 778 359 758 307 q 835 450 799 411 q 919 511 871 489 q 1024 533 967 533 q 1128 511 1079 533 q 1213 450 1176 489 q 1269 359 1249 411 q 1289 249 1289 307 q 1269 138 1289 190 q 1213 47 1249 86 q 1128 -14 1176 8 q 1024 -36 1079 -36 q 919 -14 967 -36 q 835 47 871 8 q 778 138 799 86 q 758 249 758 190 m 894 249 q 930 137 894 182 q 1024 92 965 92 q 1117 137 1081 92 q 1153 249 1153 182 q 1143 309 1153 281 q 1116 359 1133 338 q 1075 393 1099 381 q 1024 406 1051 406 q 930 360 965 406 q 894 249 894 314 z "},"&":{"ha":1121,"x_min":78,"x_max":1174,"o":"m 924 -68 l 815 39 q 658 -59 744 -31 q 458 -87 572 -87 q 301 -68 371 -87 q 181 -11 231 -49 q 104 81 131 26 q 78 206 78 135 q 101 308 78 260 q 162 396 124 356 q 250 466 200 436 q 356 514 300 496 q 306 565 331 539 q 264 619 282 592 q 235 677 246 647 q 224 740 224 707 q 247 840 224 794 q 313 917 271 885 q 411 968 354 950 q 533 986 468 986 q 650 970 594 986 q 747 923 706 954 q 814 846 789 892 q 839 739 839 800 q 822 655 839 694 q 774 583 804 615 q 705 526 744 551 q 619 483 665 500 l 807 283 q 830 342 818 307 q 836 426 842 378 l 1035 426 q 999 290 1024 360 q 931 167 974 219 l 1174 -68 l 924 -68 m 465 35 q 553 47 513 35 q 625 76 593 58 q 680 115 657 94 q 715 151 703 135 l 454 429 q 394 399 425 418 q 338 354 364 381 q 297 294 313 328 q 281 219 281 261 q 329 86 281 138 q 465 35 378 35 m 657 744 q 627 832 657 794 q 538 869 597 869 q 443 835 481 869 q 406 749 406 800 q 417 701 406 724 q 444 658 428 679 q 481 618 461 638 q 521 581 501 599 q 619 646 581 608 q 657 744 657 683 z "},"'":{"ha":308,"x_min":92,"x_max":222,"o":"m 222 638 q 212 580 222 599 q 174 561 201 561 l 92 561 l 92 1011 l 222 1011 l 222 638 z "},"(":{"ha":486,"x_min":72,"x_max":424,"o":"m 424 -219 q 226 -151 296 -204 q 121 -14 156 -99 q 79 185 86 71 q 72 439 72 299 q 82 706 72 593 q 128 898 92 819 q 234 1024 164 976 q 424 1092 304 1071 l 424 982 q 338 921 369 964 q 289 810 306 878 q 267 649 272 743 q 261 438 261 556 q 264 222 261 314 q 283 63 267 129 q 331 -47 299 -4 q 424 -115 364 -90 l 424 -219 z "},")":{"ha":486,"x_min":40,"x_max":393,"o":"m 393 439 q 385 185 393 299 q 344 -14 378 71 q 238 -151 310 -99 q 40 -219 167 -204 l 40 -115 q 132 -47 99 -90 q 181 63 165 -4 q 199 222 196 129 q 203 438 203 314 q 197 649 203 556 q 174 810 192 743 q 125 921 157 878 q 40 982 93 964 l 40 1092 q 228 1024 158 1071 q 335 899 299 978 q 383 706 372 819 q 393 439 393 593 z "},"*":{"ha":633,"x_min":83,"x_max":535,"o":"m 535 872 l 399 842 l 506 943 l 349 1024 l 308 878 l 268 1025 l 108 938 l 229 840 l 83 872 l 83 708 l 221 740 l 113 640 l 272 557 l 308 699 l 347 556 l 500 643 l 399 740 l 535 708 l 535 872 z "},"+":{"ha":833,"x_min":53,"x_max":790,"o":"m 790 532 l 500 532 l 500 813 l 344 813 l 344 532 l 53 532 l 53 388 l 344 388 l 344 81 l 500 81 l 500 388 l 790 388 l 790 532 z "},",":{"ha":417,"x_min":44,"x_max":308,"o":"m 308 10 q 278 -123 308 -65 q 208 -231 249 -181 q 188 -255 200 -242 q 167 -278 176 -268 l 44 -278 q 82 -233 61 -258 q 121 -181 103 -207 q 151 -129 139 -154 q 164 -85 164 -104 q 136 -76 164 -83 q 85 -45 108 -74 q 63 32 63 -17 q 99 117 63 85 q 183 150 135 150 q 234 139 211 150 q 274 108 257 128 q 299 64 290 89 q 308 10 308 39 z "},"-":{"ha":694,"x_min":90,"x_max":632,"o":"m 632 535 l 90 535 l 90 385 l 632 385 l 632 535 z "},".":{"ha":417,"x_min":53,"x_max":297,"o":"m 297 -43 q 288 -90 297 -68 q 261 -128 278 -111 q 222 -153 244 -144 q 175 -162 200 -162 q 128 -153 150 -162 q 89 -128 106 -144 q 63 -90 72 -112 q 53 -43 53 -68 q 89 42 53 7 q 175 78 125 78 q 262 42 226 78 q 297 -43 297 7 z "},"/":{"ha":524,"x_min":22,"x_max":510,"o":"m 358 1081 l 22 -196 l 174 -196 l 510 1081 l 358 1081 z "},":":{"ha":461,"x_min":96,"x_max":364,"o":"m 363 225 q 352 174 363 197 q 323 133 342 151 q 280 106 304 115 q 229 96 256 96 q 179 106 203 96 q 137 133 156 115 q 107 174 118 151 q 96 225 96 197 q 106 276 96 251 q 135 317 117 300 q 178 345 154 335 q 229 356 201 356 q 280 345 256 356 q 323 317 304 335 q 352 276 342 300 q 363 225 363 251 m 364 732 q 353 681 364 704 q 324 640 343 658 q 281 613 306 622 q 231 603 257 603 q 181 613 204 603 q 138 640 157 622 q 108 681 119 658 q 97 732 97 704 q 108 783 97 758 q 137 824 118 807 q 179 852 156 842 q 231 863 203 863 q 281 852 257 863 q 324 824 306 842 q 353 783 343 807 q 364 732 364 758 z "},";":{"ha":517,"x_min":110,"x_max":392,"o":"m 392 732 q 381 681 392 704 q 352 640 371 658 q 309 613 333 622 q 258 603 285 603 q 208 613 232 603 q 166 640 185 622 q 136 681 147 658 q 125 732 125 704 q 135 783 125 758 q 165 824 146 807 q 207 852 183 842 q 258 863 231 863 q 309 852 285 863 q 352 824 333 842 q 381 783 371 807 q 392 732 392 758 m 379 192 q 347 56 379 117 q 274 -54 314 -4 q 253 -78 265 -65 q 232 -101 242 -92 l 110 -101 q 149 -56 126 -82 q 190 -1 171 -29 q 222 52 208 26 q 235 97 235 78 q 207 106 235 99 q 156 137 179 108 q 133 214 133 165 q 169 299 133 267 q 254 332 206 332 q 305 321 282 332 q 344 290 328 310 q 370 246 361 271 q 379 192 379 221 z "},"<":{"ha":882,"x_min":32,"x_max":790,"o":"m 790 164 l 244 439 l 790 713 l 790 901 l 32 504 l 32 374 l 790 -24 l 790 164 z "},"=":{"ha":833,"x_min":79,"x_max":761,"o":"m 761 703 l 79 703 l 79 549 l 761 549 l 761 703 m 761 356 l 79 356 l 79 201 l 761 201 l 761 356 z "},">":{"ha":882,"x_min":46,"x_max":804,"o":"m 804 504 l 46 901 l 46 713 l 592 439 l 46 164 l 46 -24 l 804 374 l 804 504 z "},"?":{"ha":694,"x_min":38,"x_max":644,"o":"m 644 743 q 633 661 644 697 q 604 597 622 625 q 565 546 586 568 q 526 507 544 524 l 528 507 q 394 378 461 440 q 355 317 364 346 q 346 242 346 288 l 346 194 l 228 194 l 228 322 q 231 397 228 368 q 242 447 233 425 q 268 488 251 468 q 311 535 285 507 q 353 576 332 556 q 393 619 374 597 q 440 685 421 651 q 460 760 460 719 q 433 842 460 808 q 350 875 406 875 q 266 853 293 875 q 232 767 239 831 q 205 694 225 711 q 161 679 185 678 l 39 685 q 112 912 38 832 q 347 992 186 992 q 464 976 410 992 q 558 928 518 960 q 622 851 599 897 q 644 743 644 804 m 406 7 q 372 -73 406 -42 q 293 -104 339 -104 q 214 -73 247 -104 q 181 7 181 -42 q 214 83 181 51 q 292 114 247 114 q 334 106 314 114 q 370 83 354 97 q 396 49 386 69 q 406 7 406 29 z "},"@":{"ha":1278,"x_min":46,"x_max":1225,"o":"m 1225 533 q 1189 344 1225 432 q 1094 192 1153 257 q 962 90 1036 128 q 811 53 888 53 q 731 79 756 53 q 697 138 707 106 q 618 81 661 101 q 524 61 575 61 q 445 76 482 61 q 381 119 408 90 q 337 190 353 147 q 321 290 321 233 q 353 459 321 372 q 440 617 386 546 q 563 735 494 689 q 704 781 632 781 q 797 759 757 781 q 867 689 836 738 l 890 746 l 1047 746 l 869 301 q 843 234 854 265 q 831 192 832 203 q 860 175 828 174 q 941 201 896 176 q 1026 271 986 225 q 1092 383 1065 317 q 1118 533 1118 449 q 1085 689 1118 621 q 996 804 1053 757 q 863 876 939 851 q 703 901 788 901 q 490 865 588 901 q 323 759 393 828 q 213 592 253 690 q 174 369 174 493 q 206 213 174 288 q 300 81 239 138 q 449 -10 361 24 q 647 -44 536 -44 q 869 -8 761 -44 q 1060 104 976 29 l 1129 47 q 1065 -8 1110 26 q 956 -76 1019 -43 q 812 -132 892 -108 q 642 -156 732 -156 q 403 -115 513 -156 q 214 -4 293 -75 q 90 163 135 67 q 46 368 46 258 q 97 640 46 519 q 236 846 147 761 q 443 976 325 931 q 697 1021 561 1021 q 903 985 807 1021 q 1072 885 1000 950 q 1184 731 1143 821 q 1225 533 1225 642 m 808 611 q 790 656 808 635 q 735 678 771 678 q 670 654 703 678 q 608 593 638 631 q 551 508 578 556 q 506 411 525 460 q 475 317 486 363 q 464 240 464 272 q 488 185 464 201 q 547 168 511 168 q 619 191 589 168 q 669 244 649 214 q 724 343 699 286 q 769 455 750 400 q 799 553 789 510 q 808 611 810 596 z "},"A":{"ha":924,"x_min":3,"x_max":919,"o":"m 919 -68 l 715 -68 l 607 238 l 274 238 l 163 -69 l 3 -69 l 311 768 q 319 790 314 776 q 328 817 324 803 q 335 844 332 831 q 338 868 338 858 q 331 923 338 892 q 292 975 325 954 l 447 975 q 517 955 492 975 q 557 897 542 935 l 919 -68 m 556 372 l 439 700 l 324 372 l 556 372 z "},"B":{"ha":917,"x_min":67,"x_max":871,"o":"m 871 219 q 847 99 871 149 q 785 17 824 50 q 697 -33 746 -15 q 600 -58 649 -50 q 506 -68 551 -67 q 428 -69 460 -69 l 133 -69 l 133 831 q 119 914 133 878 q 67 974 106 950 l 449 974 q 593 963 525 974 q 712 924 661 953 q 792 844 763 896 q 821 710 821 793 q 810 631 821 665 q 781 569 799 596 q 739 522 763 542 q 692 489 715 503 q 760 456 728 476 q 817 404 793 436 q 856 327 842 372 q 871 219 871 282 m 675 247 q 657 328 675 294 q 608 382 639 361 q 535 412 576 403 q 447 421 494 421 l 325 421 l 325 94 q 333 69 325 81 q 356 54 340 58 q 405 49 375 50 q 454 49 435 49 q 624 97 572 49 q 675 247 675 146 m 625 703 q 574 820 625 789 q 426 851 524 851 q 375 850 394 851 q 344 844 356 849 q 329 828 333 839 q 325 800 325 818 l 325 546 l 410 546 q 495 553 456 546 q 563 577 535 560 q 608 625 592 594 q 625 703 625 656 z "},"C":{"ha":903,"x_min":53,"x_max":871,"o":"m 724 714 q 680 726 706 714 q 643 775 654 738 q 629 807 639 790 q 602 837 619 824 q 558 858 585 850 q 494 867 532 867 q 383 828 428 867 q 312 734 339 790 q 274 612 285 678 q 263 492 263 546 q 266 402 263 451 q 280 302 269 353 q 310 203 290 251 q 361 118 329 156 q 440 58 393 81 q 553 36 488 36 q 626 44 588 36 q 703 67 665 53 q 776 101 740 82 q 840 142 811 119 l 854 -18 q 780 -43 822 -31 q 690 -65 738 -56 q 595 -81 643 -75 q 507 -86 547 -86 q 307 -49 392 -86 q 165 60 222 -11 q 81 232 108 131 q 53 463 53 333 q 76 665 53 569 q 153 833 100 761 q 292 947 207 904 q 503 989 378 989 q 646 974 585 989 q 749 931 707 958 q 818 867 792 904 q 857 785 844 829 q 865 755 861 771 q 871 721 868 739 l 724 714 z "},"D":{"ha":989,"x_min":67,"x_max":946,"o":"m 742 451 q 733 619 742 544 q 692 744 724 693 q 602 823 661 796 q 442 850 543 850 q 358 840 382 850 q 335 794 335 831 l 335 125 q 336 95 335 108 q 346 72 338 82 q 372 57 354 63 q 422 51 389 51 q 582 74 519 51 q 680 145 644 97 q 728 269 715 193 q 742 451 742 344 m 428 974 q 632 954 538 974 q 797 878 726 935 q 906 720 867 822 q 946 454 946 618 q 924 246 946 332 q 865 101 903 160 q 774 9 826 43 q 658 -42 721 -25 q 523 -65 594 -60 q 376 -69 451 -69 l 133 -69 l 133 831 q 119 914 133 878 q 67 974 106 950 l 428 974 z "},"E":{"ha":828,"x_min":67,"x_max":764,"o":"m 133 -69 l 133 831 q 119 914 133 878 q 67 974 106 950 l 740 974 l 740 842 l 410 842 q 345 833 361 842 q 329 790 329 825 l 329 538 l 697 538 l 697 411 l 329 411 l 329 119 q 333 85 329 97 q 345 67 336 74 q 369 60 354 61 q 410 58 385 58 l 764 58 l 764 -69 l 133 -69 z "},"F":{"ha":806,"x_min":67,"x_max":740,"o":"m 133 831 q 119 914 133 878 q 67 974 106 950 l 740 974 l 740 842 l 410 842 q 345 833 361 842 q 329 790 329 825 l 329 538 l 697 538 l 697 411 l 329 411 l 329 -69 l 133 -69 l 133 831 z "},"G":{"ha":972,"x_min":53,"x_max":878,"o":"m 878 -18 q 811 -40 853 -28 q 720 -62 769 -51 q 617 -79 671 -72 q 513 -86 563 -86 q 297 -45 385 -86 q 156 69 210 -4 q 77 244 101 143 q 53 465 53 344 q 78 676 53 579 q 157 842 103 772 q 297 950 211 911 q 504 989 383 989 q 647 973 586 989 q 749 929 707 957 q 816 863 790 901 q 854 781 842 825 q 860 756 857 774 q 867 717 864 738 l 710 717 q 673 729 693 717 q 642 771 653 742 q 624 805 635 789 q 597 833 614 821 q 552 853 579 846 q 486 861 525 861 q 379 824 422 861 q 310 727 336 786 q 274 596 285 668 q 263 454 263 524 q 275 303 263 376 q 320 171 288 229 q 408 77 353 113 q 546 42 463 42 q 622 50 581 42 q 685 74 663 58 l 685 333 q 669 410 685 374 q 617 474 653 446 l 806 474 q 860 450 842 474 q 878 393 878 426 l 878 -18 z "},"H":{"ha":1022,"x_min":67,"x_max":903,"o":"m 263 974 q 310 954 290 974 q 329 903 329 935 l 329 538 l 708 538 l 708 974 l 903 974 l 903 -69 l 708 -69 l 708 411 l 329 411 l 329 -69 l 133 -69 l 133 831 q 119 914 133 878 q 67 974 106 950 l 263 974 z "},"I":{"ha":450,"x_min":67,"x_max":331,"o":"m 133 831 q 119 914 133 878 q 67 974 106 950 l 264 974 q 311 954 292 974 q 331 903 331 935 l 331 -69 l 133 -69 l 133 831 z "},"J":{"ha":642,"x_min":-17,"x_max":538,"o":"m 340 831 q 326 914 340 878 q 274 974 313 950 l 468 974 q 517 954 496 974 q 538 903 538 935 l 538 269 q 526 133 538 197 q 481 19 514 68 q 386 -58 447 -29 q 228 -86 325 -86 q 114 -69 158 -86 q 42 -21 69 -51 q 1 49 14 10 q -17 133 -12 89 l 171 149 q 175 114 172 133 q 185 78 178 94 q 208 49 193 61 q 247 38 222 38 q 293 49 275 38 q 322 88 311 61 q 336 160 332 115 q 340 269 340 204 l 340 831 z "},"K":{"ha":896,"x_min":65,"x_max":901,"o":"m 328 521 l 692 974 l 876 974 l 493 496 l 901 -69 l 663 -69 l 328 404 l 328 -71 l 132 -71 l 132 831 q 118 914 132 878 q 65 974 104 950 l 261 974 q 308 954 289 974 q 328 903 328 935 l 328 521 z "},"L":{"ha":814,"x_min":67,"x_max":775,"o":"m 332 140 q 349 72 332 88 q 418 57 365 57 l 775 57 l 775 -69 l 133 -69 l 133 831 q 119 914 133 878 q 67 974 106 950 l 265 974 q 313 954 293 974 q 332 903 332 935 l 332 140 z "},"M":{"ha":1249,"x_min":67,"x_max":1158,"o":"m 276 974 q 339 953 310 974 q 382 897 368 933 l 632 240 l 914 974 l 1158 974 l 1158 -69 l 972 -69 l 971 724 l 676 -69 l 553 -69 l 276 682 l 278 -69 l 133 -69 l 133 831 q 119 914 133 878 q 67 974 106 950 l 276 974 z "},"N":{"ha":1054,"x_min":67,"x_max":932,"o":"m 250 974 q 311 957 276 974 q 365 910 346 940 l 778 231 l 778 972 l 932 972 l 932 -69 l 738 -69 l 278 696 l 278 -69 l 133 -69 l 133 831 q 119 914 133 878 q 67 974 106 950 l 250 974 z "},"O":{"ha":972,"x_min":49,"x_max":928,"o":"m 928 449 q 903 228 928 326 q 825 59 878 129 q 689 -49 772 -11 q 489 -86 606 -86 q 288 -49 371 -86 q 151 58 204 -11 q 73 226 97 128 q 49 449 49 325 q 72 672 49 572 q 146 842 94 772 q 281 951 197 913 q 486 989 365 989 q 686 951 603 989 q 824 842 769 913 q 903 672 878 772 q 928 449 928 572 m 726 449 q 717 592 726 518 q 680 726 707 665 q 606 826 653 788 q 486 865 560 865 q 365 827 411 865 q 292 728 318 789 q 258 594 267 668 q 250 449 250 521 q 260 310 250 382 q 296 178 269 238 q 369 79 322 118 q 489 40 415 40 q 610 78 564 40 q 683 176 657 117 q 717 308 708 236 q 726 449 726 381 z "},"P":{"ha":833,"x_min":67,"x_max":797,"o":"m 601 683 q 588 770 601 736 q 547 823 574 804 q 483 849 521 842 q 397 856 444 856 q 338 838 347 856 q 328 786 328 821 l 328 496 l 390 496 q 470 503 432 496 q 538 530 508 510 q 584 587 567 550 q 601 683 601 624 m 472 974 q 604 956 544 974 q 707 901 664 938 q 774 809 750 864 q 797 681 797 754 q 757 503 797 567 q 654 410 717 440 q 515 372 592 379 q 365 365 439 365 l 329 365 l 329 -69 l 133 -69 l 133 831 q 119 914 133 878 q 67 974 106 950 l 472 974 z "},"Q":{"ha":972,"x_min":51,"x_max":928,"o":"m 928 446 q 910 256 928 344 q 853 98 892 167 q 753 -16 814 29 q 607 -78 692 -61 q 666 -123 628 -106 q 776 -140 704 -140 q 824 -138 800 -140 q 876 -131 847 -136 l 876 -232 q 799 -247 836 -242 q 729 -253 761 -253 q 584 -243 646 -253 q 477 -212 522 -233 q 401 -156 432 -190 q 349 -71 371 -121 q 215 -8 271 -53 q 122 104 158 38 q 69 258 86 171 q 51 446 51 344 q 74 669 51 569 q 147 840 96 769 q 281 949 197 911 q 490 988 365 988 q 694 949 611 988 q 830 840 778 911 q 905 669 882 769 q 928 446 928 569 m 725 446 q 717 590 725 517 q 683 725 708 664 q 612 826 658 786 q 490 865 565 865 q 363 827 410 865 q 291 728 315 789 q 260 593 267 668 q 253 446 253 518 q 261 308 253 379 q 295 178 269 238 q 369 80 321 118 q 494 42 417 42 q 612 79 567 42 q 682 176 657 117 q 716 306 707 235 q 725 446 725 378 z "},"R":{"ha":861,"x_min":67,"x_max":883,"o":"m 618 685 q 602 769 618 736 q 558 822 586 803 q 491 847 529 840 q 408 854 453 854 q 363 851 379 854 q 340 839 347 847 q 330 817 332 831 q 328 785 328 804 l 328 513 l 399 513 q 472 519 433 513 q 543 544 511 525 q 597 597 575 563 q 618 685 618 631 m 374 974 q 532 968 453 974 q 674 935 611 963 q 775 850 736 907 q 814 692 814 793 q 797 581 814 628 q 751 500 781 533 q 684 447 722 467 q 603 417 646 426 l 883 -69 l 656 -69 l 400 385 l 328 385 l 328 -69 l 133 -69 l 133 831 q 119 914 133 878 q 67 974 106 950 l 374 974 z "},"S":{"ha":781,"x_min":67,"x_max":747,"o":"m 747 229 q 716 83 747 143 q 632 -16 685 22 q 508 -72 579 -54 q 357 -89 436 -89 q 294 -85 332 -89 q 215 -76 256 -82 q 136 -64 174 -71 q 75 -50 99 -57 l 78 146 q 135 114 101 131 q 209 83 169 97 q 292 60 249 69 q 379 50 335 50 q 444 56 413 50 q 499 76 475 61 q 538 116 524 90 q 553 181 553 142 q 540 236 553 211 q 506 281 526 261 q 458 318 485 301 q 407 350 432 335 q 374 367 392 358 q 339 385 356 376 q 243 438 292 408 q 156 506 194 467 q 92 594 117 544 q 67 710 67 644 q 160 917 67 844 q 419 989 253 989 q 497 985 458 989 q 568 978 535 982 q 628 969 601 974 q 674 960 656 964 l 674 790 q 623 811 653 800 q 558 832 593 822 q 482 849 522 842 q 399 856 442 856 q 347 851 371 856 q 303 834 322 846 q 272 802 283 822 q 261 751 261 782 q 275 699 261 722 q 310 656 289 675 q 356 620 331 636 q 407 590 382 604 q 437 574 421 583 q 468 558 453 565 q 568 506 518 533 q 658 440 618 478 q 722 350 697 401 q 747 229 747 299 z "},"T":{"ha":906,"x_min":53,"x_max":854,"o":"m 854 843 l 854 975 l 53 975 l 53 843 l 349 843 l 349 -69 l 558 -69 l 558 843 l 854 843 z "},"U":{"ha":972,"x_min":67,"x_max":901,"o":"m 133 831 q 119 914 133 878 q 67 974 106 950 l 265 974 q 313 954 293 974 q 332 903 332 935 l 332 368 q 335 251 332 308 q 356 148 338 193 q 414 75 374 103 q 529 47 454 47 q 653 72 610 47 q 716 138 696 97 q 740 229 736 178 q 743 333 743 281 l 743 974 l 901 974 l 901 338 q 890 184 901 260 q 838 48 878 108 q 719 -49 797 -12 q 508 -86 642 -86 q 334 -62 406 -86 q 218 9 263 -37 q 153 124 174 56 q 133 282 133 193 l 133 831 z "},"V":{"ha":1025,"x_min":4,"x_max":999,"o":"m 144 813 q 4 975 103 926 l 217 975 q 285 958 257 975 q 325 904 313 940 l 567 246 l 831 974 l 999 974 l 614 -69 l 465 -69 l 144 813 z "},"W":{"ha":1389,"x_min":18,"x_max":1347,"o":"m 158 813 q 105 912 143 872 q 18 975 67 951 l 228 975 q 300 953 268 975 q 340 896 332 932 l 494 274 l 663 974 l 826 974 l 1046 258 l 1190 974 l 1347 974 l 1144 -69 l 947 -69 l 728 654 l 547 -69 l 372 -69 l 158 813 z "},"X":{"ha":936,"x_min":6,"x_max":940,"o":"m 161 826 q 92 915 129 879 q 6 975 54 951 l 221 975 q 292 956 265 975 q 338 906 318 938 l 508 625 l 731 974 l 915 974 l 600 486 l 940 -69 l 707 -69 l 471 324 l 236 -69 l 54 -69 l 381 465 l 161 826 z "},"Y":{"ha":904,"x_min":-36,"x_max":908,"o":"m 111 835 q 46 919 79 888 q -36 975 13 951 l 174 975 q 244 960 218 975 q 289 914 271 944 l 490 571 l 731 974 l 908 974 l 565 408 l 565 -69 l 371 -69 l 371 408 l 111 835 z "},"Z":{"ha":833,"x_min":38,"x_max":785,"o":"m 782 -69 l 38 -69 l 38 50 l 531 846 l 65 846 l 65 974 l 714 974 q 764 959 743 974 q 785 918 785 944 q 772 866 785 893 q 750 824 758 839 l 285 63 l 782 63 l 782 -69 z "},"[":{"ha":488,"x_min":117,"x_max":467,"o":"m 467 -210 l 117 -210 l 117 1081 l 467 1081 l 467 976 l 358 976 q 318 969 331 976 q 300 950 306 963 q 292 910 293 933 q 290 858 290 886 l 290 17 q 292 -45 290 -19 q 300 -86 293 -71 q 318 -101 306 -96 q 358 -106 331 -106 l 467 -106 l 467 -210 z "},"\\":{"ha":522,"x_min":6,"x_max":493,"o":"m 157 1081 l 6 1081 l 342 -210 l 493 -210 l 157 1081 z "},"]":{"ha":506,"x_min":-3,"x_max":347,"o":"m 347 -210 l -3 -210 l -3 -106 l 106 -106 q 158 -92 146 -106 q 172 -47 169 -78 q 174 -19 174 -35 q 174 17 174 -3 l 174 868 q 172 910 174 888 q 164 951 171 932 l 165 950 q 146 969 158 963 q 106 976 133 976 l -3 976 l -3 1081 l 347 1081 l 347 -210 z "},"^":{"ha":607,"x_min":49,"x_max":544,"o":"m 544 744 l 392 744 l 296 875 l 199 744 l 49 744 l 244 1026 l 347 1026 l 544 744 z "},"_":{"ha":792,"x_min":6,"x_max":786,"o":"m 786 -165 l 6 -165 l 6 -281 l 786 -281 l 786 -165 z "},"`":{"ha":476,"x_min":54,"x_max":265,"o":"m 265 763 l 176 763 l 79 925 q 63 956 72 938 q 54 985 54 974 q 82 1045 54 1025 q 138 1065 110 1065 q 197 1039 182 1065 q 221 972 211 1013 l 265 763 z "},"a":{"ha":692,"x_min":63,"x_max":647,"o":"m 647 -62 l 468 -62 l 468 1 q 278 -81 390 -81 q 191 -65 231 -81 q 123 -22 151 -49 q 78 41 94 6 q 63 114 63 76 q 107 249 63 197 q 215 328 151 300 q 347 365 278 356 q 468 375 417 375 l 468 415 q 465 467 468 440 q 451 516 461 493 q 424 553 442 539 q 376 568 406 568 q 313 549 331 568 q 290 504 296 529 q 265 451 281 461 q 218 440 250 440 l 65 440 q 92 531 74 488 q 145 609 110 575 q 236 664 181 643 q 375 685 292 685 q 513 664 460 685 q 595 606 565 643 q 636 517 625 568 q 647 407 647 467 l 647 -62 m 468 253 q 404 251 442 254 q 332 235 367 247 q 273 200 297 222 q 249 142 249 178 q 271 82 249 107 q 324 57 293 57 q 378 67 353 57 q 424 97 404 78 q 456 142 444 115 q 468 201 468 169 l 468 253 z "},"b":{"ha":826,"x_min":67,"x_max":774,"o":"m 589 304 q 583 378 589 339 q 563 450 578 417 q 519 506 547 483 q 449 528 492 528 q 386 509 411 528 q 347 462 361 490 q 326 401 332 433 q 319 340 319 368 l 319 283 q 352 126 319 185 q 443 68 385 68 q 519 91 490 68 q 563 149 547 114 q 583 225 578 183 q 589 304 589 267 m 206 -71 l 133 -71 l 133 860 q 119 943 133 907 q 67 1003 106 979 l 254 1003 q 301 983 282 1003 q 321 932 321 964 l 319 597 q 385 657 346 632 q 496 682 425 682 q 636 650 582 682 q 721 564 690 618 q 763 440 751 510 q 774 293 774 369 q 758 145 774 214 q 710 24 743 76 q 622 -58 676 -28 q 492 -87 568 -87 q 437 -81 467 -87 q 378 -60 407 -74 q 326 -28 350 -47 q 288 18 301 -8 l 206 -71 z "},"c":{"ha":743,"x_min":65,"x_max":693,"o":"m 553 439 q 520 442 532 439 q 501 451 508 444 q 491 469 494 457 q 483 500 488 481 q 457 547 478 526 q 392 568 436 568 q 339 551 363 568 q 298 502 315 533 q 271 429 281 471 q 261 340 261 388 q 276 214 261 265 q 321 132 292 163 q 393 88 350 101 q 490 75 436 75 q 529 76 507 75 q 575 81 551 78 q 622 89 599 85 q 664 99 644 93 l 664 -35 q 547 -67 610 -57 q 421 -76 483 -76 q 272 -49 338 -76 q 160 31 206 -21 q 90 155 114 82 q 65 317 65 228 q 86 465 65 397 q 149 583 107 533 q 253 662 190 633 q 400 690 315 690 q 519 672 465 690 q 611 622 572 654 q 672 542 650 589 q 693 439 693 496 l 553 439 z "},"d":{"ha":804,"x_min":68,"x_max":731,"o":"m 543 340 q 535 403 543 369 q 510 466 528 438 q 465 514 493 494 q 396 533 438 533 q 322 513 350 533 q 278 460 293 493 q 258 388 263 428 q 253 307 253 347 q 258 226 253 269 q 278 144 263 182 q 322 83 293 107 q 397 58 350 58 q 470 83 442 58 q 515 142 499 107 q 537 215 531 176 q 543 281 543 253 l 543 340 m 731 -71 l 543 -71 l 543 -4 q 455 -66 499 -44 q 351 -87 411 -87 q 220 -57 274 -87 q 133 24 167 -26 q 83 142 99 75 q 68 283 68 210 q 83 431 68 358 q 131 558 97 503 q 220 648 165 614 q 356 682 275 682 q 474 660 433 682 q 543 600 515 639 l 543 860 q 529 943 543 907 q 476 1003 515 979 l 664 1003 q 711 983 692 1003 q 731 932 731 964 l 731 -71 z "},"e":{"ha":729,"x_min":57,"x_max":685,"o":"m 260 299 q 274 206 261 247 q 315 136 286 165 q 390 92 343 107 q 510 76 438 76 q 601 87 554 76 q 679 110 649 97 l 679 -25 q 556 -59 618 -46 q 439 -72 494 -72 q 158 33 258 -72 q 57 335 57 138 q 143 600 57 508 q 386 692 229 692 q 548 653 489 692 q 638 556 607 614 q 676 428 668 497 q 685 299 685 358 l 260 299 m 504 421 q 497 476 503 450 q 479 523 492 503 q 444 555 467 543 q 388 567 422 567 q 333 555 356 567 q 294 524 310 543 q 272 477 279 504 q 261 421 264 450 l 504 421 z "},"f":{"ha":697,"x_min":36,"x_max":708,"o":"m 568 785 q 517 799 528 785 q 499 846 507 814 q 474 879 493 868 q 425 890 454 890 q 384 881 400 890 q 360 854 368 871 q 349 816 351 838 q 346 772 346 794 l 346 664 l 560 664 l 560 538 l 346 538 l 346 -71 l 157 -71 l 157 538 l 36 538 l 36 664 l 157 664 l 157 739 q 170 841 157 792 q 213 928 183 890 q 292 988 243 965 q 414 1011 342 1011 q 543 996 490 1011 q 629 951 596 981 q 681 880 663 922 q 708 785 700 838 l 568 785 z "},"g":{"ha":806,"x_min":75,"x_max":781,"o":"m 781 699 q 740 629 754 671 q 726 549 726 588 l 726 61 q 715 -60 726 0 q 669 -169 703 -121 q 572 -247 635 -217 q 406 -276 508 -276 q 164 -220 249 -278 q 75 -40 79 -162 l 275 -40 q 283 -81 276 -61 q 305 -116 290 -100 q 344 -141 319 -132 q 408 -150 369 -150 q 481 -135 454 -150 q 522 -95 507 -119 q 540 -42 536 -71 q 544 14 544 -14 l 544 64 q 479 8 519 32 q 367 -15 439 -15 q 238 14 292 -15 q 150 92 185 43 q 99 202 115 140 q 83 331 83 264 q 97 476 83 407 q 144 596 111 544 q 231 677 176 647 q 368 707 286 707 q 474 685 429 707 q 544 628 518 664 l 544 646 q 561 687 544 675 q 601 699 578 699 l 781 699 m 544 410 q 532 466 544 438 q 500 517 519 494 q 457 555 481 540 q 410 569 433 569 q 338 553 367 569 q 293 507 310 536 q 269 438 276 478 q 263 351 263 399 q 269 263 263 306 q 293 188 276 221 q 337 136 310 156 q 404 117 364 117 q 470 138 443 117 q 514 191 497 160 q 538 258 531 222 q 544 321 544 293 l 544 410 z "},"h":{"ha":861,"x_min":67,"x_max":774,"o":"m 319 543 q 357 594 336 569 q 404 635 378 618 q 465 663 431 653 q 544 674 499 674 q 658 647 614 674 q 728 580 703 621 q 764 492 754 539 q 774 403 774 444 l 774 -71 l 594 -71 l 594 379 q 590 428 594 404 q 572 471 585 453 q 538 500 560 489 q 482 511 517 511 q 429 494 456 511 q 380 448 403 476 q 341 383 357 419 q 319 308 325 347 l 319 -71 l 133 -71 l 133 858 q 119 942 133 906 q 67 1001 106 978 l 254 1001 q 301 982 282 1001 q 319 931 319 963 l 319 543 z "},"i":{"ha":417,"x_min":65,"x_max":325,"o":"m 310 -71 l 125 -71 l 125 549 q 115 619 125 585 q 65 682 106 654 l 256 682 q 301 660 292 682 q 310 601 310 638 l 310 -71 m 325 892 q 315 848 325 868 q 290 813 306 828 q 253 789 274 797 q 210 781 232 781 q 167 789 188 781 q 132 813 147 797 q 108 848 117 828 q 99 892 99 868 q 132 969 99 938 q 211 1001 165 1001 q 290 971 256 1001 q 325 892 325 940 z "},"j":{"ha":675,"x_min":7,"x_max":554,"o":"m 554 17 q 541 -95 554 -42 q 498 -188 528 -149 q 418 -251 468 -228 q 293 -275 368 -275 q 172 -259 222 -275 q 87 -214 121 -243 q 34 -145 53 -185 q 7 -57 15 -106 l 207 -57 q 225 -122 208 -93 q 285 -150 242 -150 q 346 -115 329 -150 q 363 -21 363 -79 l 363 547 q 353 615 363 579 q 306 679 343 651 l 511 679 q 543 663 532 679 q 554 621 554 647 l 554 17 m 549 892 q 539 848 549 868 q 513 813 529 828 q 476 789 497 797 q 433 781 456 781 q 391 789 411 781 q 356 813 371 797 q 331 848 340 828 q 322 892 322 868 q 356 969 322 938 q 435 1001 389 1001 q 514 971 479 1001 q 549 892 549 940 z "},"k":{"ha":767,"x_min":63,"x_max":808,"o":"m 314 426 l 558 681 l 764 681 l 464 369 l 808 -71 l 572 -71 l 314 274 l 314 -74 l 129 -74 l 129 860 q 115 943 129 907 q 63 1003 101 979 l 250 1003 q 297 983 278 1003 q 317 932 317 964 l 314 426 z "},"l":{"ha":419,"x_min":56,"x_max":308,"o":"m 122 863 q 108 946 122 910 q 56 1006 94 982 l 242 1006 q 289 986 269 1006 q 308 935 308 967 l 308 -69 l 122 -69 l 122 863 z "},"m":{"ha":1239,"x_min":71,"x_max":1163,"o":"m 325 550 q 357 597 338 574 q 402 639 376 621 q 460 668 428 657 q 533 679 493 679 q 613 667 579 679 q 671 635 647 654 q 710 590 694 615 q 733 538 725 564 q 821 641 765 603 q 956 679 876 679 q 1074 649 1032 679 q 1136 572 1117 618 q 1159 474 1156 526 q 1163 379 1163 422 l 1163 -69 l 982 -69 l 982 357 q 980 417 982 388 q 969 469 978 447 q 941 506 960 492 q 889 519 922 519 q 825 495 853 519 q 778 434 797 471 q 751 354 760 397 q 742 275 742 311 l 742 -69 l 561 -69 l 561 335 q 560 409 561 375 q 549 468 558 443 q 522 507 540 493 q 468 521 503 521 q 406 497 433 521 q 359 439 378 474 q 331 363 340 404 q 321 286 321 321 l 321 -69 l 142 -69 l 138 540 q 124 624 138 588 q 71 683 110 660 l 258 683 q 306 664 286 683 q 325 613 325 644 l 325 550 z "},"n":{"ha":833,"x_min":61,"x_max":757,"o":"m 315 533 q 354 585 332 560 q 406 631 376 611 q 473 664 436 651 q 554 676 510 676 q 649 658 610 676 q 711 607 688 639 q 746 533 735 575 q 757 444 757 492 l 757 -69 l 571 -69 l 571 332 q 569 406 571 372 q 558 465 567 440 q 531 504 549 490 q 482 518 513 518 q 418 497 449 518 q 365 442 388 475 q 328 371 342 410 q 315 297 315 332 l 315 -69 l 128 -69 l 128 539 q 114 622 128 586 q 61 682 100 658 l 249 682 q 296 663 276 682 q 315 611 315 643 l 315 533 z "},"o":{"ha":797,"x_min":63,"x_max":740,"o":"m 740 308 q 658 15 740 111 q 401 -82 576 -82 q 242 -52 307 -82 q 137 30 176 -22 q 80 153 97 82 q 63 308 63 225 q 146 605 63 510 q 401 700 229 700 q 550 672 486 700 q 656 591 614 643 q 719 467 699 539 q 740 308 740 394 m 553 308 q 547 402 553 354 q 524 489 540 450 q 478 552 507 528 q 401 576 449 576 q 324 551 353 576 q 278 487 294 526 q 256 400 261 447 q 250 308 250 353 q 256 213 250 260 q 278 128 261 165 q 324 67 294 90 q 401 43 354 43 q 478 66 449 43 q 525 126 508 89 q 547 210 542 163 q 553 308 553 258 z "},"p":{"ha":831,"x_min":57,"x_max":771,"o":"m 588 328 q 583 411 588 371 q 565 483 579 451 q 522 535 550 515 q 444 554 493 554 q 375 531 401 554 q 335 475 349 508 q 316 403 321 442 q 311 333 311 364 l 311 282 q 317 215 311 250 q 337 149 322 179 q 378 99 351 119 q 447 79 406 79 q 522 101 494 79 q 565 158 550 122 q 583 238 579 193 q 588 328 588 282 m 313 594 q 388 665 339 636 q 494 694 436 694 q 624 665 571 694 q 709 585 676 635 q 756 469 742 535 q 771 331 771 403 q 758 193 771 263 q 712 67 744 124 q 625 -24 679 11 q 489 -60 571 -60 q 378 -40 418 -60 q 311 11 338 -19 l 311 -271 l 124 -271 l 124 538 q 110 621 124 585 q 57 681 96 657 l 244 681 q 297 665 281 681 q 311 610 313 650 l 313 594 z "},"q":{"ha":833,"x_min":82,"x_max":733,"o":"m 733 690 l 732 -272 l 544 -272 l 544 25 q 466 -37 510 -17 q 364 -58 422 -58 q 224 -24 278 -58 q 138 67 169 11 q 94 191 106 122 q 82 329 82 260 q 97 468 82 401 q 145 585 113 535 q 230 666 178 636 q 357 696 282 696 q 476 669 426 696 q 556 610 525 642 l 656 690 l 733 690 m 544 332 q 540 398 544 360 q 522 470 536 436 q 481 528 508 504 q 407 553 453 553 q 335 533 363 553 q 291 483 307 514 q 269 411 275 451 q 263 329 263 371 q 269 240 263 283 q 291 161 275 196 q 335 105 307 126 q 407 83 363 83 q 478 104 451 83 q 520 156 506 125 q 540 223 535 188 q 544 286 544 258 l 544 332 z "},"r":{"ha":640,"x_min":53,"x_max":599,"o":"m 307 556 q 336 602 318 579 q 378 644 354 625 q 431 674 401 663 q 497 686 461 686 q 546 684 519 686 q 599 678 572 682 l 599 486 q 549 502 581 496 q 501 508 517 508 q 417 492 453 508 q 356 448 381 476 q 319 381 332 419 q 307 300 307 343 l 307 -69 l 119 -69 l 119 538 q 106 621 119 585 q 53 681 92 657 l 240 681 q 288 661 268 681 q 307 610 307 642 l 307 556 z "},"s":{"ha":625,"x_min":81,"x_max":576,"o":"m 576 146 q 556 40 576 85 q 497 -33 535 -4 q 408 -75 460 -61 q 293 -89 356 -89 q 188 -76 244 -89 q 81 -49 132 -64 l 82 114 q 131 86 103 99 q 190 65 160 74 q 248 50 219 56 q 299 44 276 44 q 385 61 357 44 q 413 106 413 78 q 403 141 413 125 q 380 170 394 157 q 348 194 365 183 q 314 215 331 206 q 297 226 306 221 q 278 236 288 231 q 210 275 244 254 q 149 323 176 296 q 103 385 121 350 q 86 465 86 419 q 101 551 86 511 q 149 621 117 590 q 230 669 181 651 q 349 686 279 686 q 451 677 403 686 q 546 654 499 668 l 546 497 q 449 541 506 521 q 340 561 393 561 q 279 547 308 561 q 250 504 250 532 q 259 469 250 485 q 281 443 268 454 q 312 423 294 432 q 346 406 329 414 q 390 384 365 396 q 425 367 414 372 q 534 284 492 336 q 576 146 576 232 z "},"t":{"ha":611,"x_min":58,"x_max":554,"o":"m 549 544 l 364 544 l 364 178 q 365 121 364 144 q 376 83 367 97 q 405 61 385 68 q 463 54 425 54 q 503 56 475 54 q 554 64 531 58 l 554 -68 q 524 -74 542 -72 q 486 -78 506 -76 q 449 -81 467 -81 q 417 -82 431 -82 q 315 -75 360 -82 q 240 -46 271 -68 q 192 19 208 -24 q 175 132 175 61 l 175 544 l 58 544 l 58 669 l 175 669 l 175 749 q 188 797 175 781 q 225 828 200 814 l 364 894 l 364 669 l 549 669 l 549 544 z "},"u":{"ha":833,"x_min":64,"x_max":763,"o":"m 763 -68 l 583 -68 l 583 40 q 499 -47 556 -8 q 358 -85 443 -85 q 231 -56 278 -85 q 160 18 183 -28 q 129 122 136 64 q 122 240 122 181 l 122 539 q 110 614 122 575 q 64 678 97 653 l 268 678 q 300 666 292 678 q 308 625 308 654 l 308 214 q 318 144 308 171 q 344 102 328 117 q 381 82 360 88 q 425 76 401 76 q 483 97 454 76 q 533 150 511 118 q 569 219 556 182 q 583 289 583 256 l 583 539 q 531 678 583 629 l 722 678 q 754 666 746 678 q 763 625 763 654 l 763 -68 z "},"v":{"ha":811,"x_min":28,"x_max":808,"o":"m 808 679 l 508 -68 l 379 -68 l 135 538 q 94 611 119 574 q 28 679 68 649 l 215 679 q 278 660 257 679 q 314 604 300 640 l 460 226 l 636 679 l 808 679 z "},"w":{"ha":1107,"x_min":35,"x_max":1108,"o":"m 1108 679 l 903 -69 l 742 -69 l 601 365 l 464 -69 l 296 -69 l 131 540 q 99 614 122 572 q 35 679 75 656 l 221 679 q 283 657 264 679 q 313 597 303 635 l 411 232 l 550 679 l 686 679 l 828 224 l 943 679 l 1108 679 z "},"x":{"ha":781,"x_min":15,"x_max":776,"o":"m 776 -69 l 542 -69 l 379 185 l 201 -69 l 21 -69 l 292 310 l 133 557 q 85 621 114 589 q 15 679 56 653 l 224 679 q 287 660 265 681 q 325 613 308 640 l 421 456 l 578 679 l 765 679 l 508 325 l 776 -69 z "},"y":{"ha":831,"x_min":11,"x_max":829,"o":"m 829 679 l 549 -14 q 501 -106 528 -60 q 439 -190 475 -153 q 354 -250 403 -226 q 242 -274 306 -274 q 133 -250 176 -274 q 65 -192 90 -226 q 26 -116 39 -157 q 11 -42 14 -75 l 193 -42 q 219 -102 196 -76 q 285 -128 242 -128 q 319 -115 303 -128 q 349 -84 336 -103 q 372 -44 363 -65 q 386 -3 382 -22 l 153 538 q 133 576 146 554 q 106 618 121 597 q 73 656 90 639 q 40 679 56 672 l 231 679 q 295 655 272 679 q 333 596 318 631 l 488 218 l 657 679 l 829 679 z "},"z":{"ha":722,"x_min":60,"x_max":661,"o":"m 661 68 l 660 -68 l 60 -68 l 60 35 l 421 556 l 67 556 l 67 679 l 590 679 q 639 669 619 679 q 658 629 658 658 q 651 596 658 614 q 626 553 644 578 l 285 68 l 661 68 z "},"{":{"ha":825,"x_min":215,"x_max":683,"o":"m 683 -382 q 559 -358 621 -379 q 448 -300 497 -336 q 368 -215 399 -264 q 338 -107 338 -165 q 341 -52 338 -75 q 350 -7 344 -29 q 369 70 358 26 q 379 149 379 114 q 366 206 379 178 q 330 260 353 235 q 278 303 307 285 q 215 333 249 322 l 215 408 q 278 435 249 418 q 330 475 307 453 q 366 524 353 497 q 379 583 379 551 q 374 642 379 610 q 360 699 368 674 q 344 764 351 731 q 338 839 338 797 q 368 947 338 897 q 448 1033 399 996 q 559 1090 497 1069 q 683 1114 621 1111 l 683 1031 q 561 959 599 1011 q 524 851 524 907 q 527 797 524 824 q 533 746 531 771 q 541 693 538 719 q 544 635 544 667 q 529 544 544 585 q 488 470 514 503 q 426 413 461 438 q 354 371 392 389 q 426 326 392 351 q 487 265 461 300 q 528 189 513 231 q 544 97 544 147 q 541 38 544 65 q 533 -14 538 10 q 527 -66 531 -40 q 524 -119 524 -92 q 561 -227 524 -175 q 683 -299 599 -279 l 683 -382 z "},"|":{"ha":494,"x_min":167,"x_max":315,"o":"m 315 1081 l 167 1081 l 167 -210 l 315 -210 l 315 1081 z "},"}":{"ha":828,"x_min":142,"x_max":610,"o":"m 142 -299 q 264 -227 226 -279 q 301 -119 301 -175 q 298 -66 301 -92 q 292 -14 294 -40 q 284 38 288 10 q 281 97 281 65 q 297 189 281 147 q 338 265 313 231 q 399 326 364 300 q 471 371 433 351 q 399 413 433 389 q 338 470 364 438 q 296 544 311 503 q 281 635 281 585 q 284 693 281 667 q 292 746 288 719 q 298 797 294 771 q 301 851 301 824 q 264 959 301 907 q 142 1031 226 1011 l 142 1114 q 266 1090 204 1111 q 377 1033 328 1069 q 457 947 426 996 q 488 839 488 897 q 481 764 488 797 q 465 699 474 731 q 451 642 457 674 q 446 583 446 610 q 459 524 446 551 q 495 475 472 497 q 547 435 518 453 q 610 408 576 418 l 610 333 q 547 303 576 322 q 495 260 518 285 q 459 206 472 235 q 446 149 446 178 q 456 70 446 114 q 475 -7 467 26 q 484 -52 481 -29 q 488 -107 488 -75 q 457 -215 488 -165 q 377 -300 426 -264 q 266 -358 328 -336 q 142 -382 204 -379 l 142 -299 z "},"~":{"ha":882,"x_min":97,"x_max":799,"o":"m 610 440 q 651 451 632 440 q 686 476 669 461 q 716 509 703 490 q 743 546 729 528 l 799 415 q 762 367 781 392 q 721 323 743 342 q 670 292 699 304 q 607 281 642 281 q 528 296 565 281 q 454 332 492 311 q 376 371 419 356 q 279 386 333 386 q 234 376 254 386 q 199 352 214 367 q 172 319 183 338 q 151 281 161 300 l 97 413 q 127 462 110 438 q 167 505 144 486 q 220 535 190 524 q 288 546 250 546 q 369 532 326 546 q 456 497 411 518 q 538 460 497 479 q 610 440 578 440 z "},"　":{"ha":1319,"x_min":0,"x_max":0,"o":""},"、":{"ha":1319,"x_min":100,"x_max":414,"o":"m 414 -146 l 100 69 l 100 167 l 414 31 l 414 -146 z "},"。":{"ha":1319,"x_min":101,"x_max":450,"o":"m 450 8 q 399 -115 450 -64 q 275 -165 349 -165 q 152 -115 203 -165 q 101 8 101 -64 q 152 131 101 81 q 275 182 203 182 q 399 131 349 182 q 450 8 450 81 m 364 8 q 338 72 364 44 q 275 99 311 99 q 213 72 239 99 q 188 8 188 44 q 213 -55 188 -29 q 275 -81 239 -81 q 338 -55 313 -81 q 364 8 364 -29 z "},"·":{"ha":461,"x_min":150,"x_max":329,"o":"m 329 325 l 150 325 l 150 514 l 329 514 l 329 325 z "},"‥":{"ha":1319,"x_min":261,"x_max":1058,"o":"m 1058 343 l 908 343 l 908 506 l 1058 506 l 1058 343 m 411 343 l 261 343 l 261 506 l 411 506 l 411 343 z "},"…":{"ha":1319,"x_min":153,"x_max":1167,"o":"m 1167 339 l 1015 339 l 1015 503 l 1167 503 l 1167 339 m 735 339 l 585 339 l 585 503 l 735 503 l 735 339 m 303 339 l 153 339 l 153 503 l 303 503 l 303 339 z "},"¨":{"ha":694,"x_min":171,"x_max":533,"o":"m 533 758 l 399 758 l 399 899 l 533 899 l 533 758 m 306 758 l 171 758 l 171 899 l 306 899 l 306 758 z "},"〃":{"ha":1319,"x_min":403,"x_max":915,"o":"m 915 640 l 717 178 l 639 178 l 756 640 l 915 640 m 679 640 l 482 178 l 403 178 l 519 640 l 679 640 z "},"­":{"ha":694,"x_min":183,"x_max":539,"o":"m 539 356 l 183 356 l 183 479 l 539 479 l 539 356 z "},"―":{"ha":956,"x_min":28,"x_max":944,"o":"m 944 354 l 28 354 l 28 486 l 944 486 l 944 354 z "},"∥":{"ha":1319,"x_min":506,"x_max":813,"o":"m 813 -3 l 711 -3 l 711 851 l 813 851 l 813 -3 m 607 -3 l 506 -3 l 506 851 l 607 851 l 607 -3 z "},"＼":{"ha":1319,"x_min":268,"x_max":1103,"o":"m 381 1065 l 268 1000 l 989 -239 l 1103 -174 l 381 1065 z "},"∼":{"ha":1319,"x_min":189,"x_max":1131,"o":"m 1131 440 q 978 357 1043 381 q 825 332 908 332 q 647 377 744 332 q 490 422 549 422 q 242 351 358 422 l 189 408 q 490 529 357 529 q 671 484 568 529 q 825 439 774 439 q 1078 497 967 439 l 1131 440 z "},"‘":{"ha":556,"x_min":253,"x_max":522,"o":"m 253 785 q 285 920 253 860 q 358 1031 318 981 q 378 1055 367 1042 q 400 1078 390 1068 l 522 1078 q 481 1032 503 1058 q 441 978 460 1006 q 410 924 422 950 q 397 879 397 897 q 425 871 397 878 q 476 840 453 868 q 499 763 499 811 q 463 677 499 710 q 378 644 426 644 q 327 656 350 644 q 288 686 304 667 q 262 731 271 706 q 253 785 253 756 z "},"’":{"ha":556,"x_min":44,"x_max":314,"o":"m 314 938 q 281 802 314 863 q 208 692 249 742 q 188 667 200 681 q 167 644 176 654 l 44 644 q 85 690 63 664 q 126 744 107 717 q 157 798 144 772 q 169 843 169 824 q 142 851 169 844 q 91 883 114 854 q 68 960 68 911 q 104 1045 68 1013 q 189 1078 140 1078 q 240 1067 217 1078 q 279 1036 263 1056 q 305 992 296 1017 q 314 938 314 967 z "},"“":{"ha":694,"x_min":144,"x_max":661,"o":"m 144 785 q 174 920 144 860 q 242 1031 204 981 q 260 1055 249 1042 q 279 1078 271 1068 l 392 1078 q 356 1032 376 1058 q 319 978 336 1006 q 290 924 301 950 q 278 879 278 897 q 303 871 278 876 q 350 840 329 868 q 371 763 371 811 q 338 677 371 710 q 260 644 304 644 q 176 685 208 644 q 144 785 144 726 m 413 785 q 442 920 413 860 q 510 1031 472 981 q 528 1055 517 1042 q 549 1078 539 1068 l 661 1078 q 625 1032 644 1058 q 588 978 606 1006 q 558 924 569 950 q 546 879 546 897 q 571 871 546 876 q 618 840 597 868 q 639 763 639 811 q 606 677 639 710 q 528 644 572 644 q 444 685 476 644 q 413 785 413 726 z "},"”":{"ha":694,"x_min":35,"x_max":551,"o":"m 551 938 q 522 802 551 863 q 454 692 492 742 q 436 667 447 681 q 417 644 425 654 l 304 644 q 340 690 319 664 q 377 744 360 717 q 406 798 394 772 q 418 843 418 824 q 393 851 418 844 q 346 883 367 854 q 325 960 325 911 q 358 1045 325 1013 q 436 1078 392 1078 q 519 1037 488 1078 q 551 938 551 996 m 283 938 q 253 802 283 863 q 186 692 224 742 q 168 667 179 681 q 147 644 157 654 l 35 644 q 71 690 51 664 q 108 744 90 717 q 138 798 126 772 q 150 843 150 824 q 125 851 150 844 q 78 883 99 854 q 57 960 57 911 q 90 1045 57 1013 q 168 1078 124 1078 q 251 1037 219 1078 q 283 938 283 996 z "},"〔":{"ha":678,"x_min":269,"x_max":604,"o":"m 604 -158 l 579 -267 l 269 -176 l 269 942 l 582 1026 l 601 913 l 425 857 l 425 -97 l 604 -158 z "},"〕":{"ha":678,"x_min":104,"x_max":439,"o":"m 104 -158 l 129 -267 l 439 -176 l 439 942 l 126 1026 l 107 913 l 283 857 l 283 -97 l 104 -158 z "},"〈":{"ha":833,"x_min":167,"x_max":764,"o":"m 764 947 l 347 414 l 763 -115 l 632 -179 l 167 417 l 626 1001 l 764 947 z "},"〉":{"ha":833,"x_min":83,"x_max":679,"o":"m 679 417 l 214 -179 l 83 -115 l 497 414 l 83 946 l 218 1003 l 679 417 z "},"《":{"ha":828,"x_min":106,"x_max":783,"o":"m 783 951 l 463 417 l 783 -111 l 665 -161 l 315 418 l 661 992 l 783 951 m 574 -111 l 456 -161 l 106 418 l 453 992 l 574 951 l 253 417 l 574 -111 z "},"》":{"ha":828,"x_min":63,"x_max":742,"o":"m 742 418 l 389 -161 l 274 -110 l 592 415 l 272 950 l 393 990 l 742 418 m 533 418 l 181 -161 l 64 -111 l 383 417 l 63 950 l 182 990 l 533 418 z "},"「":{"ha":793,"x_min":269,"x_max":707,"o":"m 707 957 l 413 957 l 413 415 l 269 415 l 269 1069 l 707 1069 l 707 957 z "},"」":{"ha":793,"x_min":85,"x_max":526,"o":"m 526 -235 l 85 -235 l 85 -122 l 382 -122 l 382 417 l 526 417 l 526 -235 z "},"『":{"ha":793,"x_min":185,"x_max":653,"o":"m 653 860 l 421 860 l 421 404 l 185 404 l 185 1069 l 653 1069 l 653 860 m 561 940 l 561 989 l 275 989 l 275 490 l 331 490 l 331 940 l 561 940 z "},"』":{"ha":793,"x_min":83,"x_max":553,"o":"m 553 -235 l 83 -235 l 83 -26 l 317 -26 l 317 431 l 553 431 l 553 -235 m 463 -156 l 463 344 l 407 344 l 407 -106 l 176 -106 l 176 -156 l 463 -156 z "},"【":{"ha":719,"x_min":261,"x_max":635,"o":"m 635 -171 l 261 -171 l 261 1006 l 635 1006 l 635 996 q 497 768 554 933 q 439 419 439 603 q 494 68 439 236 q 635 -161 550 -94 l 635 -171 z "},"】":{"ha":719,"x_min":99,"x_max":471,"o":"m 471 -171 l 99 -171 l 99 -161 q 236 68 182 -93 q 294 419 296 240 q 235 767 293 606 q 99 996 176 932 l 99 1006 l 471 1006 l 471 -171 z "},"±":{"ha":1157,"x_min":182,"x_max":979,"o":"m 979 444 l 665 444 l 665 144 l 494 144 l 494 444 l 182 444 l 182 603 l 494 603 l 494 910 l 665 910 l 665 603 l 979 603 l 979 444 m 979 -68 l 182 -68 l 182 89 l 979 89 l 979 -68 z "},"×":{"ha":1157,"x_min":147,"x_max":1010,"o":"m 1010 94 l 894 -19 l 581 279 l 275 -25 l 151 83 l 465 392 l 147 692 l 274 811 l 576 507 l 888 818 l 1004 703 l 694 393 l 1010 94 z "},"÷":{"ha":1157,"x_min":169,"x_max":992,"o":"m 681 631 l 481 631 l 481 829 l 681 829 l 681 631 m 992 335 l 169 335 l 169 492 l 992 492 l 992 335 m 681 -3 l 481 -3 l 481 197 l 681 197 l 681 -3 z "},"≠":{"ha":1157,"x_min":182,"x_max":979,"o":"m 979 203 l 583 203 l 538 26 l 378 26 l 425 203 l 182 203 l 182 344 l 461 344 l 497 489 l 182 489 l 182 629 l 533 629 l 575 789 l 735 789 l 694 629 l 979 629 l 979 489 l 657 489 l 619 344 l 979 344 l 979 203 z "},"≤":{"ha":1157,"x_min":182,"x_max":979,"o":"m 979 192 l 182 488 l 182 601 l 979 899 l 979 746 l 404 543 l 979 342 l 979 192 m 979 11 l 182 11 l 182 144 l 979 144 l 979 11 z "},"≥":{"ha":1157,"x_min":182,"x_max":979,"o":"m 979 488 l 182 192 l 182 342 l 757 543 l 182 746 l 182 899 l 979 601 l 979 488 m 979 11 l 182 11 l 182 144 l 979 144 l 979 11 z "},"∞":{"ha":1265,"x_min":50,"x_max":1213,"o":"m 1213 447 q 1131 250 1213 328 q 931 172 1050 172 q 635 378 740 172 q 328 172 528 172 q 139 243 219 172 q 50 454 50 322 q 140 663 50 582 q 328 736 222 736 q 633 528 526 736 q 931 736 749 736 q 1137 659 1061 736 q 1213 447 1213 582 m 1126 454 q 1072 597 1126 539 q 932 656 1017 656 q 792 604 850 656 q 683 453 742 560 q 789 300 742 340 q 932 253 843 253 q 1074 309 1022 253 q 1126 454 1126 365 m 586 454 q 493 592 540 547 q 336 656 428 656 q 192 601 247 656 q 138 454 138 546 q 200 306 138 364 q 336 253 257 253 q 494 318 431 253 q 586 454 536 357 z "},"∴":{"ha":1319,"x_min":313,"x_max":1092,"o":"m 782 726 q 758 667 782 692 q 700 643 735 643 q 642 667 665 643 q 618 726 618 692 q 642 785 618 760 q 700 810 665 810 q 758 785 735 810 q 782 726 782 760 m 1092 196 q 1067 138 1092 163 q 1008 114 1042 114 q 950 138 974 114 q 926 196 926 163 q 950 255 926 231 q 1008 279 974 279 q 1067 255 1042 279 q 1092 196 1092 231 m 478 196 q 453 138 478 163 q 396 114 429 114 q 337 138 361 114 q 313 196 313 163 q 337 255 313 231 q 396 279 361 279 q 453 255 429 279 q 478 196 478 231 z "},"°":{"ha":563,"x_min":110,"x_max":467,"o":"m 467 858 q 415 733 467 785 q 289 681 363 681 q 163 733 215 681 q 110 858 110 785 q 163 985 110 932 q 289 1038 215 1038 q 415 985 363 1038 q 467 858 467 932 m 383 858 q 356 926 383 897 q 289 954 328 954 q 222 926 250 954 q 194 858 194 897 q 222 791 194 819 q 289 763 250 763 q 356 791 328 763 q 383 858 383 819 z "},"′":{"ha":467,"x_min":113,"x_max":397,"o":"m 397 943 l 144 594 l 113 607 l 249 943 l 397 943 z "},"″":{"ha":782,"x_min":143,"x_max":664,"o":"m 664 943 l 406 596 l 371 607 l 508 943 l 664 943 m 433 946 l 175 596 l 143 610 l 278 946 l 433 946 z "},"℃":{"ha":1181,"x_min":93,"x_max":1086,"o":"m 424 844 q 410 783 424 811 q 373 733 396 754 q 320 701 350 713 q 257 690 290 690 q 195 702 225 690 q 142 735 165 714 q 106 783 119 756 q 93 844 93 811 q 106 906 93 878 q 142 956 119 935 q 194 988 164 976 q 257 999 224 999 q 319 988 289 999 q 373 956 350 976 q 410 906 396 935 q 424 844 424 878 m 331 843 q 310 896 331 875 q 258 917 289 917 q 185 843 185 917 q 258 772 185 772 q 331 843 331 772 m 1086 643 q 1081 673 1083 658 q 1074 700 1078 688 q 1040 772 1063 739 q 980 828 1017 804 q 890 865 943 851 q 765 878 836 878 q 582 841 657 878 q 460 741 507 804 q 393 594 414 678 q 372 418 372 511 q 397 217 372 306 q 471 67 421 129 q 595 -27 521 6 q 769 -60 669 -60 q 846 -55 804 -60 q 928 -42 888 -50 q 1007 -22 969 -33 q 1072 0 1044 -11 l 1060 139 q 939 74 1007 100 q 808 47 871 47 q 672 90 722 47 q 597 193 622 132 q 563 323 571 254 q 556 444 556 392 q 565 549 556 492 q 599 655 575 606 q 661 738 622 704 q 758 771 700 771 q 851 744 822 771 q 888 690 881 718 q 920 648 897 658 q 958 638 943 638 l 1086 643 z "},"Å":{"ha":918,"x_min":29,"x_max":906,"o":"m 626 931 q 613 868 626 896 q 576 821 599 840 q 523 791 553 801 q 460 781 493 781 q 398 791 428 781 q 345 822 368 801 q 308 869 322 842 q 294 931 294 897 q 308 992 294 964 q 344 1040 321 1019 q 397 1070 367 1060 q 460 1081 426 1081 q 522 1070 492 1081 q 576 1040 553 1060 q 613 992 599 1019 q 626 931 626 964 m 519 931 q 460 986 519 986 q 400 931 400 986 q 460 875 400 875 q 519 931 519 875 m 560 681 q 520 722 544 707 q 454 736 496 736 l 306 736 q 344 698 338 721 q 350 658 350 675 q 340 621 350 643 q 324 585 331 599 l 29 -31 l 182 -31 l 289 196 l 607 196 l 711 -31 l 906 -31 l 560 681 m 336 293 l 446 535 l 558 293 l 336 293 z "},"￠":{"ha":1319,"x_min":318,"x_max":1000,"o":"m 1000 821 l 988 651 q 844 693 917 686 l 682 122 q 765 113 721 113 q 988 151 876 113 l 1000 -7 q 765 -56 921 -56 q 635 -40 696 -56 l 601 -161 l 479 -126 l 517 7 q 318 403 318 126 q 438 732 318 607 q 757 861 558 857 l 786 965 l 914 932 l 889 850 q 1000 821 953 840 m 710 690 q 551 597 608 674 q 494 403 494 521 q 568 189 494 265 l 710 690 z "},"￡":{"ha":1319,"x_min":306,"x_max":1014,"o":"m 1014 171 q 947 10 1000 69 q 814 -49 894 -49 q 646 29 742 -49 q 572 -32 618 -6 q 478 -58 522 -58 q 365 -22 414 -58 q 306 99 306 24 q 360 213 306 171 q 471 250 407 250 q 538 240 504 250 q 525 314 535 268 l 349 314 l 349 451 l 493 451 q 472 588 472 554 q 547 793 472 718 q 758 868 621 868 q 983 672 983 868 l 983 625 l 813 625 q 742 729 813 729 q 640 629 640 729 q 658 451 640 544 l 978 451 l 978 314 l 683 314 q 692 181 694 242 q 814 110 785 110 q 849 144 835 110 q 865 219 863 176 l 1014 171 m 538 103 q 488 122 499 122 q 442 92 442 122 q 488 63 442 63 q 538 103 519 63 z "},"￥":{"ha":1319,"x_min":238,"x_max":1082,"o":"m 1082 285 l 742 285 l 742 -56 l 565 -56 l 565 285 l 246 285 l 246 414 l 510 414 l 461 503 l 246 503 l 246 633 l 389 633 l 238 908 l 421 908 l 560 633 l 751 633 l 894 908 l 1071 908 l 919 633 l 1082 633 l 1082 503 l 847 503 l 797 414 l 1082 414 l 1082 285 m 683 503 l 625 503 l 653 447 l 683 503 z "},"♀":{"ha":868,"x_min":146,"x_max":731,"o":"m 731 660 q 658 464 731 549 q 476 369 586 385 l 476 176 l 725 176 l 725 99 l 476 99 l 476 -193 l 403 -193 l 403 99 l 154 99 l 154 176 l 403 176 l 403 369 q 219 465 293 383 q 146 660 146 547 q 231 869 146 783 q 438 954 317 954 q 646 869 561 954 q 731 660 731 783 m 656 660 q 592 815 656 753 q 439 878 529 878 q 285 815 349 878 q 222 660 222 753 q 285 506 222 569 q 439 443 349 443 q 592 506 529 443 q 656 660 656 569 z "},"♂":{"ha":868,"x_min":146,"x_max":732,"o":"m 732 114 q 647 -92 732 -8 q 439 -176 561 -176 q 231 -92 317 -176 q 146 114 146 -8 q 218 308 146 226 q 399 403 290 389 l 399 806 l 199 586 l 146 635 l 438 957 l 706 631 l 654 578 l 474 801 l 474 403 q 658 310 585 390 q 732 114 732 228 m 657 114 q 593 266 657 204 q 439 328 529 328 q 285 266 349 328 q 222 114 222 204 q 285 -39 222 24 q 439 -101 349 -101 q 593 -39 529 -101 q 657 114 657 24 z "},"∠":{"ha":1113,"x_min":153,"x_max":964,"o":"m 964 -72 l 153 -72 l 153 -22 l 783 728 l 839 685 l 260 -4 l 964 -4 l 964 -72 z "},"⊥":{"ha":1153,"x_min":146,"x_max":1011,"o":"m 1011 -72 l 146 -72 l 146 -4 l 542 -4 l 542 696 l 615 696 l 615 -4 l 1011 -4 l 1011 -72 z "},"⌒":{"ha":1319,"x_min":379,"x_max":939,"o":"m 939 768 l 854 768 q 771 842 825 814 q 658 871 717 871 q 461 769 528 871 l 379 769 q 496 893 417 850 q 658 933 568 933 q 822 890 749 933 q 939 768 900 847 z "},"∂":{"ha":782,"x_min":103,"x_max":686,"o":"m 686 576 q 662 347 686 471 q 600 140 638 224 q 483 -22 557 44 q 333 -94 406 -92 q 163 -21 228 -99 q 108 163 103 54 q 197 393 115 293 q 413 501 286 501 q 565 436 518 501 q 571 524 571 482 q 453 749 571 749 q 317 649 375 749 l 228 731 q 478 886 317 886 q 646 774 592 886 q 686 576 686 690 m 485 297 q 468 371 488 339 q 421 403 449 403 q 297 308 351 403 q 246 126 249 221 q 311 13 243 18 q 357 28 329 11 q 411 78 389 47 q 485 297 475 163 z "},"∇":{"ha":1319,"x_min":121,"x_max":1199,"o":"m 1199 833 l 658 -29 l 121 833 l 1199 833 m 986 717 l 333 717 l 660 193 l 986 717 z "},"≡":{"ha":1157,"x_min":182,"x_max":979,"o":"m 979 586 l 182 586 l 182 672 l 979 672 l 979 586 m 979 375 l 182 375 l 182 463 l 979 463 l 979 375 m 979 167 l 182 167 l 182 254 l 979 254 l 979 167 z "},"≒":{"ha":1319,"x_min":215,"x_max":1104,"o":"m 1104 469 l 215 469 l 215 561 l 1104 561 l 1104 469 m 517 710 q 489 638 517 667 q 422 608 461 608 q 353 638 381 608 q 325 710 325 667 q 353 781 325 751 q 422 810 381 810 q 489 781 461 810 q 517 710 517 751 m 996 99 q 967 28 996 58 q 901 -1 939 -1 q 832 28 860 -1 q 804 99 804 58 q 832 170 804 140 q 901 200 860 200 q 967 170 939 200 q 996 99 996 140 m 1104 243 l 217 243 l 217 333 l 1104 333 l 1104 243 z "},"§":{"ha":782,"x_min":149,"x_max":647,"o":"m 647 342 q 614 231 647 282 q 528 161 581 181 q 622 -56 622 58 q 546 -212 622 -157 q 388 -262 481 -262 q 157 -12 157 -262 l 306 -12 q 324 -117 306 -87 q 385 -147 342 -147 q 472 -71 472 -147 q 426 28 472 -24 q 343 101 408 47 q 213 226 251 178 q 149 419 149 310 q 188 539 149 492 q 292 594 228 586 q 189 828 189 724 q 247 974 189 919 q 386 1025 301 1025 q 554 972 497 1025 q 617 782 617 911 l 463 782 q 385 914 463 914 q 336 853 336 914 q 410 704 336 793 l 529 579 q 647 342 647 450 m 517 292 q 440 425 517 347 q 307 497 368 497 q 276 460 276 497 q 354 322 276 400 q 476 249 429 249 q 517 292 517 249 z "},"※":{"ha":1319,"x_min":229,"x_max":1090,"o":"m 1068 425 q 1033 337 1068 374 q 947 300 997 300 q 864 337 899 300 q 829 425 829 374 q 864 513 829 476 q 947 550 899 550 q 1033 513 997 550 q 1068 425 1068 476 m 771 736 q 736 648 771 685 q 653 611 701 611 q 568 648 603 611 q 533 736 533 685 q 568 824 533 788 q 653 861 603 861 q 736 824 701 861 q 771 736 771 788 m 1090 36 l 1025 -32 l 657 357 l 299 -19 l 235 53 l 592 425 l 229 804 l 296 874 l 656 493 l 1014 872 l 1076 800 l 721 425 l 1090 36 m 485 424 q 449 336 485 374 q 365 299 414 299 q 281 336 315 299 q 247 424 247 374 q 281 513 247 476 q 365 550 315 550 q 449 513 414 550 q 485 424 485 476 m 772 113 q 737 24 772 60 q 653 -12 701 -12 q 569 24 604 -12 q 535 113 535 60 q 569 201 535 164 q 653 238 604 238 q 737 201 701 238 q 772 113 772 164 z "},"☆":{"ha":1319,"x_min":101,"x_max":1218,"o":"m 1218 558 l 879 292 l 1018 -137 l 661 126 l 303 -137 l 442 292 l 101 558 l 528 558 l 661 967 l 793 558 l 1218 558 m 982 476 l 736 476 l 661 713 l 585 476 l 338 476 l 536 322 l 456 81 l 661 232 l 864 81 l 785 322 l 982 476 z "},"★":{"ha":1319,"x_min":101,"x_max":1218,"o":"m 1218 558 l 879 292 l 1018 -137 l 661 126 l 303 -137 l 442 292 l 101 558 l 528 558 l 661 967 l 793 558 l 1218 558 z "},"○":{"ha":1319,"x_min":133,"x_max":1185,"o":"m 1185 417 q 1031 25 1185 188 q 658 -137 878 -137 q 287 25 440 -137 q 133 417 133 188 q 287 807 133 644 q 658 969 440 969 q 1031 807 878 969 q 1185 417 1185 644 m 1082 417 q 958 731 1082 601 q 658 861 835 861 q 361 731 485 861 q 238 417 238 601 q 361 101 238 232 q 658 -29 485 -29 q 958 101 835 -29 q 1082 417 1082 232 z "},"●":{"ha":1319,"x_min":133,"x_max":1185,"o":"m 1185 417 q 1031 25 1185 188 q 658 -137 878 -137 q 287 25 440 -137 q 133 417 133 188 q 287 807 133 644 q 658 969 440 969 q 1031 807 878 969 q 1185 417 1185 644 z "},"◎":{"ha":1319,"x_min":83,"x_max":1236,"o":"m 1236 418 q 1067 -10 1236 168 q 660 -187 899 -187 q 253 -10 422 -187 q 83 418 83 168 q 252 847 83 669 q 660 1025 421 1025 q 1067 847 899 1025 q 1236 418 1236 669 m 1142 418 q 1001 776 1142 628 q 661 924 860 924 q 322 776 463 924 q 182 418 182 628 q 322 60 182 208 q 661 -87 463 -87 q 1001 60 860 -87 q 1142 418 1142 208 m 1028 418 q 920 147 1028 260 q 661 33 813 33 q 403 147 511 33 q 296 418 296 260 q 404 691 296 578 q 661 804 513 804 q 920 691 813 804 q 1028 418 1028 578 m 936 418 q 856 623 936 539 q 661 707 776 707 q 467 623 547 707 q 388 418 388 539 q 467 213 388 297 q 661 129 547 129 q 856 213 776 129 q 936 418 936 297 z "},"◇":{"ha":1319,"x_min":74,"x_max":1246,"o":"m 1246 417 l 658 -196 l 74 417 l 658 1031 l 1246 417 m 1104 417 l 658 882 l 217 417 l 658 -49 l 1104 417 z "},"◆":{"ha":1319,"x_min":74,"x_max":1246,"o":"m 1246 417 l 658 -196 l 74 417 l 658 1031 l 1246 417 z "},"□":{"ha":1319,"x_min":164,"x_max":1154,"o":"m 1154 -101 l 164 -101 l 164 940 l 1154 940 l 1154 -101 m 1047 10 l 1047 829 l 269 829 l 269 10 l 1047 10 z "},"■":{"ha":1319,"x_min":164,"x_max":1154,"o":"m 1154 -101 l 164 -101 l 164 940 l 1154 940 l 1154 -101 z "},"△":{"ha":1319,"x_min":117,"x_max":1201,"o":"m 1201 -15 l 117 -15 l 658 869 l 1201 -15 m 1033 81 l 658 682 l 285 81 l 1033 81 z "},"▲":{"ha":1319,"x_min":117,"x_max":1201,"o":"m 1201 -15 l 117 -15 l 658 869 l 1201 -15 z "},"▽":{"ha":1319,"x_min":117,"x_max":1203,"o":"m 1203 847 l 660 -39 l 117 847 l 1203 847 m 1035 753 l 285 753 l 660 149 l 1035 753 z "},"▼":{"ha":1319,"x_min":117,"x_max":1203,"o":"m 1203 847 l 660 -39 l 117 847 l 1203 847 z "},"→":{"ha":1319,"x_min":81,"x_max":1238,"o":"m 1238 417 l 894 169 l 886 181 l 1050 390 l 81 390 l 81 443 l 1050 443 l 886 654 l 894 664 l 1238 417 z "},"←":{"ha":1319,"x_min":81,"x_max":1238,"o":"m 1238 390 l 268 390 l 431 181 l 422 169 l 81 417 l 422 664 l 431 654 l 268 443 l 1238 443 l 1238 390 z "},"↑":{"ha":1042,"x_min":276,"x_max":771,"o":"m 771 667 l 761 660 l 550 831 l 550 -190 l 497 -190 l 497 831 l 288 660 l 276 667 l 524 1026 l 771 667 z "},"↓":{"ha":1042,"x_min":276,"x_max":771,"o":"m 771 167 l 524 -193 l 276 167 l 288 175 l 497 3 l 497 1024 l 550 1024 l 550 3 l 761 175 l 771 167 z "},"↔":{"ha":1319,"x_min":79,"x_max":1240,"o":"m 1240 417 l 897 169 l 889 181 l 1053 390 l 267 390 l 429 181 l 421 169 l 79 417 l 421 664 l 429 654 l 267 443 l 1053 443 l 889 654 l 897 664 l 1240 417 z "},"〓":{"ha":1319,"x_min":42,"x_max":1276,"o":"m 1276 554 l 42 554 l 42 642 l 1276 642 l 1276 554 m 1276 201 l 42 201 l 42 289 l 1276 289 l 1276 201 z "},"≪":{"ha":1319,"x_min":143,"x_max":1176,"o":"m 1176 847 l 588 431 l 1172 13 l 1117 -57 l 424 433 l 1128 922 l 1176 847 m 894 847 l 307 431 l 890 14 l 836 -57 l 143 433 l 847 922 l 894 847 z "},"≫":{"ha":1319,"x_min":143,"x_max":1176,"o":"m 1176 433 l 483 -57 l 429 14 l 1013 431 l 426 847 l 474 922 l 1176 433 m 896 433 l 204 -57 l 147 13 l 732 431 l 143 847 l 193 922 l 896 433 z "},"√":{"ha":694,"x_min":15,"x_max":693,"o":"m 693 1089 l 492 -253 l 181 399 l 58 340 l 15 425 l 247 544 l 454 114 l 596 1089 l 693 1089 z "},"∽":{"ha":1289,"x_min":113,"x_max":1178,"o":"m 1178 421 q 1100 238 1178 315 q 910 161 1022 161 q 733 219 840 161 l 786 286 q 910 246 872 246 q 1031 298 982 246 q 1081 421 1081 350 q 1028 535 1081 485 q 910 586 976 586 q 735 476 810 586 l 607 271 q 382 161 518 161 q 186 232 260 161 q 113 421 113 303 q 188 603 113 533 q 382 672 264 672 q 556 633 447 672 l 511 550 q 382 588 436 588 q 257 540 306 588 q 208 421 208 493 q 257 299 208 347 q 382 250 306 250 q 558 360 486 250 l 681 563 q 910 672 767 672 q 1099 599 1019 672 q 1178 421 1178 526 z "},"∝":{"ha":1153,"x_min":111,"x_max":1054,"o":"m 1054 646 l 1010 564 q 882 603 954 603 q 771 550 821 603 q 694 436 738 515 q 889 261 771 261 q 1008 303 953 261 l 1054 224 q 883 171 975 171 q 638 335 740 171 q 371 171 532 171 q 185 250 263 171 q 111 431 111 326 q 182 615 111 540 q 371 694 257 694 q 638 533 533 694 q 885 692 740 692 q 1054 646 978 692 m 582 435 q 371 606 486 606 q 254 555 299 606 q 210 431 210 504 q 258 313 210 365 q 371 260 306 260 q 494 314 440 260 q 582 435 532 349 z "},"∵":{"ha":1319,"x_min":286,"x_max":1097,"o":"m 1097 824 q 1073 765 1097 789 q 1015 742 1049 742 q 956 765 981 742 q 932 824 932 789 q 956 883 932 858 q 1015 907 981 907 q 1073 883 1049 907 q 1097 824 1097 858 m 451 824 q 427 765 451 789 q 368 742 403 742 q 310 765 335 742 q 286 824 286 789 q 310 883 286 858 q 368 907 335 907 q 427 883 403 907 q 451 824 451 858 m 769 167 q 746 109 769 133 q 688 85 722 85 q 629 109 653 85 q 606 167 606 133 q 629 226 606 201 q 688 250 653 250 q 746 226 722 250 q 769 167 769 201 z "},"∫":{"ha":610,"x_min":17,"x_max":606,"o":"m 606 842 l 508 796 q 436 890 488 890 q 394 797 400 890 q 340 111 392 746 q 296 -69 332 10 q 161 -176 244 -176 q 69 -128 111 -176 q 17 -28 33 -87 l 108 42 q 165 -58 138 -58 q 213 69 204 -58 q 269 758 233 408 q 314 918 279 851 q 438 1007 360 1007 q 606 842 553 1007 z "},"∬":{"ha":1319,"x_min":185,"x_max":1133,"o":"m 1133 856 l 1026 803 q 960 897 1006 897 q 919 804 925 897 q 863 104 897 475 q 815 -76 853 0 q 676 -183 764 -183 q 582 -135 625 -183 q 529 -35 547 -94 l 625 35 q 683 -64 654 -64 q 731 63 724 -64 q 789 765 744 297 q 833 924 797 857 q 963 1013 883 1013 q 1133 856 1082 1013 m 790 856 l 683 803 q 617 897 661 897 q 575 804 581 897 q 519 104 568 699 q 472 -76 511 3 q 333 -183 421 -183 q 240 -135 283 -183 q 185 -35 203 -94 l 281 35 q 339 -64 310 -64 q 388 63 379 -64 q 447 765 411 433 q 490 924 457 858 q 618 1013 538 1013 q 790 856 738 1013 z "},"∈":{"ha":1319,"x_min":206,"x_max":1114,"o":"m 1114 67 l 531 67 q 290 185 385 67 q 206 444 206 293 q 300 696 206 592 q 539 804 396 804 l 1114 804 l 1114 714 l 536 714 q 379 645 447 714 q 300 483 311 576 l 1114 483 l 1114 390 l 300 390 q 374 228 310 296 q 531 158 442 158 l 1114 158 l 1114 67 z "},"∋":{"ha":1319,"x_min":206,"x_max":1113,"o":"m 1113 444 q 1028 185 1113 293 q 788 67 935 67 l 206 67 l 206 158 l 789 158 q 944 228 876 158 q 1018 390 1008 296 l 206 390 l 206 483 l 1018 483 q 940 643 1008 576 q 782 714 872 714 l 206 714 l 206 804 l 779 804 q 1018 694 921 804 q 1113 444 1113 590 z "},"⊆":{"ha":1319,"x_min":257,"x_max":1061,"o":"m 1060 268 l 526 268 q 329 350 403 268 q 257 557 257 429 q 339 760 257 683 q 535 835 417 835 l 1060 835 l 1060 743 l 532 743 q 399 691 449 743 q 349 553 349 639 q 398 415 349 469 q 526 361 447 361 l 1060 361 l 1060 268 m 1061 49 l 258 49 l 258 139 l 1061 139 l 1061 49 z "},"⊇":{"ha":1319,"x_min":258,"x_max":1061,"o":"m 1061 557 q 989 350 1061 431 q 793 268 915 268 l 260 268 l 260 361 l 793 361 q 920 416 871 361 q 969 553 969 471 q 920 691 969 639 q 788 743 871 743 l 260 743 l 260 835 l 785 835 q 981 760 901 835 q 1061 557 1061 682 m 1061 49 l 258 49 l 258 139 l 1061 139 l 1061 49 z "},"⊂":{"ha":1319,"x_min":201,"x_max":1117,"o":"m 1117 67 l 531 67 q 289 185 385 67 q 201 444 201 293 q 299 697 201 590 q 539 804 396 804 l 1117 804 l 1117 711 l 536 711 q 364 630 436 711 q 292 442 292 549 q 360 249 292 332 q 531 160 429 160 l 1117 160 l 1117 67 z "},"⊃":{"ha":1319,"x_min":200,"x_max":1119,"o":"m 1119 439 q 1035 182 1119 288 q 796 67 942 67 l 200 67 l 200 160 l 785 160 q 961 242 896 160 q 1021 440 1021 319 q 960 633 1021 558 q 783 713 893 713 l 200 713 l 200 804 l 790 804 q 1029 693 935 804 q 1119 439 1119 589 z "},"∪":{"ha":1085,"x_min":174,"x_max":917,"o":"m 917 303 q 804 47 917 149 q 546 -51 694 -51 q 283 46 389 -51 q 174 306 174 147 l 174 903 l 272 903 l 272 317 q 350 114 272 189 q 546 43 425 43 q 742 115 667 43 q 819 318 819 190 l 819 904 l 917 904 l 917 303 z "},"∩":{"ha":1085,"x_min":174,"x_max":917,"o":"m 917 -58 l 819 -61 l 819 524 q 742 726 819 651 q 546 800 667 800 q 350 728 425 800 q 272 525 272 654 l 272 -61 l 174 -61 l 174 536 q 283 796 174 694 q 546 893 389 893 q 804 796 694 893 q 917 539 917 693 l 917 -58 z "},"∧":{"ha":1319,"x_min":240,"x_max":1079,"o":"m 1079 42 l 1000 -1 l 661 696 l 318 3 l 240 43 l 661 899 l 1079 42 z "},"∨":{"ha":1319,"x_min":242,"x_max":1078,"o":"m 1078 815 l 664 -26 l 242 824 l 324 865 l 665 172 l 1006 872 l 1078 815 z "},"￢":{"ha":1319,"x_min":149,"x_max":1169,"o":"m 1169 482 l 1078 482 l 1078 819 l 149 819 l 149 904 l 1169 904 l 1169 482 z "},"⇒":{"ha":1319,"x_min":18,"x_max":1300,"o":"m 1300 456 l 935 69 l 892 115 l 1053 286 l 18 286 l 18 354 l 1119 354 l 1214 456 l 1118 557 l 18 557 l 18 626 l 1053 626 l 892 796 l 935 842 l 1300 456 z "},"⇔":{"ha":1319,"x_min":19,"x_max":1300,"o":"m 1300 456 l 936 69 l 892 115 l 1054 286 l 265 286 l 428 115 l 385 69 l 19 456 l 385 842 l 428 796 l 267 626 l 1053 626 l 892 796 l 936 842 l 1300 456 m 1215 456 l 1119 557 l 200 557 l 104 456 l 199 354 l 1121 354 l 1215 456 z "},"∀":{"ha":1319,"x_min":194,"x_max":1125,"o":"m 1125 940 l 663 -182 l 194 940 l 297 940 l 425 629 l 896 629 l 1021 940 l 1125 940 m 860 543 l 461 543 l 663 54 l 860 543 z "},"∃":{"ha":1319,"x_min":343,"x_max":976,"o":"m 976 -33 l 343 -33 l 343 58 l 883 58 l 883 397 l 353 397 l 353 488 l 883 488 l 883 815 l 344 815 l 344 907 l 976 907 l 976 -33 z "},"´":{"ha":463,"x_min":144,"x_max":379,"o":"m 379 888 l 222 711 l 144 711 l 239 888 l 379 888 z "},"～":{"ha":1319,"x_min":369,"x_max":949,"o":"m 949 950 q 906 828 942 910 q 801 782 865 782 q 653 807 753 782 q 538 832 553 832 q 505 822 514 832 q 488 782 496 811 l 369 824 q 522 975 388 975 q 649 949 568 975 q 774 924 731 924 q 811 936 800 924 q 829 978 821 946 l 949 950 z "},"ˇ":{"ha":521,"x_min":60,"x_max":485,"o":"m 485 900 l 333 711 l 208 711 l 60 900 l 196 900 l 272 800 l 351 900 l 485 900 z "},"˘":{"ha":521,"x_min":75,"x_max":451,"o":"m 451 876 q 394 755 444 797 q 263 713 343 713 q 133 754 183 713 q 75 876 82 797 l 164 876 q 263 803 188 803 q 363 876 343 803 l 451 876 z "},"˝":{"ha":608,"x_min":101,"x_max":544,"o":"m 544 888 l 403 711 l 303 711 l 378 888 l 544 888 m 344 888 l 201 711 l 101 711 l 178 888 l 344 888 z "},"˚":{"ha":435,"x_min":86,"x_max":363,"o":"m 363 817 q 322 719 363 760 q 225 679 282 679 q 126 719 167 679 q 86 817 86 760 q 126 915 86 875 q 225 956 167 956 q 322 915 282 956 q 363 817 363 875 m 281 817 q 265 857 281 840 q 225 874 249 874 q 185 857 201 874 q 168 817 168 840 q 185 777 168 793 q 225 761 201 761 q 265 777 249 761 q 281 817 281 793 z "},"˙":{"ha":440,"x_min":156,"x_max":306,"o":"m 306 710 l 156 710 l 156 861 l 306 861 l 306 710 z "},"¸":{"ha":463,"x_min":56,"x_max":382,"o":"m 382 -162 q 328 -236 382 -207 q 199 -262 276 -262 q 56 -225 136 -262 l 88 -162 q 181 -183 129 -183 q 254 -162 254 -183 q 185 -140 254 -140 q 131 -156 154 -140 l 97 -119 l 136 -18 l 231 -29 l 217 -78 q 265 -75 239 -75 q 342 -97 306 -75 q 382 -162 382 -122 z "},"˛":{"ha":435,"x_min":97,"x_max":369,"o":"m 369 -156 q 210 -261 294 -261 q 132 -232 165 -261 q 97 -154 97 -201 q 207 3 97 -67 l 253 -40 q 196 -131 196 -87 q 231 -165 196 -165 q 324 -118 283 -165 l 369 -156 z "},"¡":{"ha":579,"x_min":199,"x_max":382,"o":"m 382 822 l 200 822 l 200 993 l 382 993 l 382 822 m 381 -61 l 199 -61 l 218 756 l 363 756 l 381 -61 z "},"¿":{"ha":810,"x_min":114,"x_max":621,"o":"m 503 807 l 321 807 l 321 978 l 503 978 l 503 807 m 621 -51 q 401 -89 499 -89 q 204 -31 281 -89 q 114 178 114 39 q 239 463 114 318 q 308 560 289 522 q 332 664 332 607 l 332 726 l 492 726 l 492 665 q 408 422 492 533 q 324 310 365 365 q 282 178 282 244 q 406 82 282 82 q 613 126 486 82 l 621 -51 z "},"ː":{"ha":376,"x_min":76,"x_max":319,"o":"m 315 761 l 206 557 l 196 557 l 81 761 l 315 761 m 319 154 l 76 154 l 194 360 l 204 360 l 319 154 z "},"∮":{"ha":1319,"x_min":242,"x_max":1078,"o":"m 1078 833 l 958 778 q 924 865 943 840 q 879 885 907 885 q 758 647 810 885 q 859 570 821 626 q 897 446 897 514 q 835 293 897 357 q 686 219 776 233 q 426 -164 589 -162 q 242 -25 308 -167 l 344 63 q 433 -42 378 -42 q 560 225 494 -42 q 456 301 493 247 q 419 417 421 351 q 471 569 417 501 q 631 657 529 642 q 728 932 671 851 q 881 1011 785 1011 q 1078 833 1035 1011 m 785 458 q 739 547 783 514 q 721 438 733 511 q 706 331 715 403 q 785 458 788 368 m 611 549 q 535 439 542 517 q 579 331 528 364 q 611 549 589 404 z "},"∑":{"ha":1129,"x_min":90,"x_max":1033,"o":"m 1033 -171 l 90 -171 l 90 -93 l 521 404 l 90 868 l 90 979 l 1032 979 l 1032 857 l 319 857 l 740 415 l 339 -47 l 1033 -47 l 1033 -171 z "},"∏":{"ha":956,"x_min":28,"x_max":917,"o":"m 917 858 l 774 858 l 774 -147 l 608 -147 l 608 858 l 332 858 l 332 -147 l 171 -147 l 171 858 l 28 858 l 28 979 l 917 979 l 917 858 z "},"¤":{"ha":1264,"x_min":90,"x_max":1176,"o":"m 1176 846 l 996 686 q 1068 443 1068 575 q 982 181 1068 299 l 1174 11 l 1110 -61 l 918 110 q 622 -1 792 -1 q 338 100 461 -1 l 154 -61 l 90 11 l 269 169 q 175 443 175 290 q 254 694 175 582 l 90 844 l 157 917 l 319 771 q 622 889 449 889 q 933 761 804 889 l 1104 915 l 1176 846 m 965 443 q 865 687 965 586 q 622 788 764 788 q 378 687 479 788 q 278 443 278 586 q 378 201 278 301 q 622 100 479 100 q 865 201 764 100 q 965 443 965 301 z "},"℉":{"ha":1181,"x_min":100,"x_max":1074,"o":"m 189 844 q 208 793 189 813 q 260 774 228 774 q 312 793 292 774 q 332 844 332 813 q 312 897 332 876 q 260 917 292 917 q 208 897 228 917 q 189 844 189 876 m 100 844 q 113 904 100 876 q 147 953 125 932 q 198 985 169 974 q 260 997 226 997 q 322 985 293 997 q 372 953 350 974 q 407 904 394 932 q 419 844 419 876 q 407 785 419 813 q 372 737 394 757 q 322 705 350 717 q 260 693 293 693 q 198 705 226 693 q 147 737 169 717 q 113 785 125 757 q 100 844 100 813 m 538 742 q 524 825 538 789 q 471 885 510 861 l 1074 885 l 1074 753 l 796 753 q 731 744 747 753 q 715 701 715 736 l 715 476 l 1051 476 l 1051 350 l 715 350 l 715 -75 l 538 -75 l 538 742 z "},"‰":{"ha":1319,"x_min":57,"x_max":1278,"o":"m 1278 158 q 1263 73 1278 113 q 1222 3 1249 33 q 1157 -45 1194 -28 q 1074 -62 1119 -62 q 989 -45 1026 -62 q 924 2 951 -28 q 883 72 897 32 q 868 158 868 113 q 883 244 868 204 q 924 315 897 285 q 989 362 951 344 q 1074 379 1026 379 q 1157 361 1119 379 q 1222 313 1194 343 q 1263 243 1249 283 q 1278 158 1278 203 m 1117 869 l 121 97 q 89 140 103 118 q 60 182 75 161 l 1060 953 l 1117 869 m 468 679 q 453 595 468 635 q 410 525 438 556 q 346 476 383 494 q 263 458 308 458 q 178 476 217 458 q 113 524 140 493 q 72 594 86 554 q 57 679 57 635 q 72 765 57 725 q 113 835 86 806 q 178 883 140 865 q 263 900 215 900 q 346 882 308 900 q 410 834 383 864 q 453 764 438 804 q 468 679 468 724 m 828 158 q 813 74 828 114 q 772 3 799 33 q 707 -45 744 -28 q 624 -62 669 -62 q 539 -45 576 -62 q 474 2 501 -28 q 433 72 447 32 q 418 158 418 113 q 433 244 418 204 q 474 314 447 283 q 540 362 501 344 q 624 379 578 379 q 707 361 669 379 q 772 313 744 343 q 813 243 799 283 q 828 158 828 203 m 1154 158 q 1134 229 1154 196 q 1074 263 1114 263 q 1012 231 1033 263 q 990 158 990 199 q 1011 85 990 118 q 1074 53 1032 53 q 1134 85 1114 53 q 1154 158 1154 118 m 346 679 q 324 751 346 719 q 263 783 303 783 q 201 751 222 783 q 179 679 179 719 q 200 607 179 639 q 263 575 221 575 q 325 607 304 575 q 346 679 346 639 m 706 158 q 700 195 706 176 q 684 228 694 214 q 658 253 674 243 q 624 263 643 263 q 589 253 604 263 q 563 228 574 243 q 547 195 553 214 q 542 158 542 176 q 563 86 542 119 q 624 53 583 53 q 685 86 664 53 q 706 158 706 119 z "},"◁":{"ha":1319,"x_min":239,"x_max":1081,"o":"m 1081 -153 l 239 417 l 1081 989 l 1081 -153 m 993 25 l 993 810 l 408 417 l 993 25 z "},"◀":{"ha":1319,"x_min":239,"x_max":1081,"o":"m 1081 -153 l 239 417 l 1081 989 l 1081 -153 z "},"▷":{"ha":1319,"x_min":239,"x_max":1081,"o":"m 1081 417 l 239 -153 l 239 989 l 1081 417 m 911 417 l 328 810 l 328 25 l 911 417 z "},"▶":{"ha":1319,"x_min":239,"x_max":1081,"o":"m 1081 417 l 239 -153 l 239 989 l 1081 417 z "},"♤":{"ha":1319,"x_min":221,"x_max":1097,"o":"m 1097 264 q 1042 106 1097 167 q 893 44 986 44 q 772 81 835 44 q 842 -108 788 -21 l 842 -168 l 483 -168 l 483 -111 q 549 75 526 -32 q 413 31 471 31 q 271 106 325 31 q 221 264 221 172 q 647 1018 221 463 q 1097 264 1097 460 m 989 269 q 879 536 989 354 q 650 850 786 685 q 435 538 524 689 q 326 269 326 353 q 413 139 326 139 q 512 177 450 139 q 590 215 574 215 q 653 122 660 215 q 613 -62 647 29 l 613 -78 l 715 -78 l 715 -62 q 665 122 667 31 q 735 215 664 215 q 799 183 744 215 q 889 151 853 151 q 961 187 933 151 q 989 269 989 222 z "},"♠":{"ha":1319,"x_min":221,"x_max":1097,"o":"m 1097 260 q 1043 108 1097 165 q 900 50 989 50 q 760 97 831 50 q 784 -13 761 54 q 833 -124 807 -81 l 833 -168 l 490 -168 l 490 -128 q 535 -17 511 -90 q 561 92 560 57 q 407 36 471 36 q 269 107 322 36 q 221 260 221 171 q 647 1011 221 458 q 1097 260 1097 456 z "},"♡":{"ha":1319,"x_min":153,"x_max":1167,"o":"m 1167 693 q 656 -169 1167 397 q 153 693 153 354 q 229 907 153 815 q 418 1003 307 1003 q 571 950 508 1003 q 658 808 633 897 q 739 949 693 904 q 897 1003 797 1003 q 1094 911 1019 1003 q 1167 693 1167 824 m 1058 690 q 1021 843 1058 794 q 883 897 981 897 q 781 826 825 897 q 726 704 774 815 q 654 639 697 639 q 575 735 608 639 q 531 842 551 810 q 439 897 494 897 q 263 690 263 897 q 393 324 263 542 q 653 -17 499 147 q 1058 690 1058 446 z "},"♥":{"ha":1319,"x_min":153,"x_max":1167,"o":"m 1167 696 q 656 -167 1167 400 q 153 696 153 357 q 228 908 153 817 q 414 1003 306 1003 q 572 944 508 1003 q 657 790 636 889 q 739 943 694 897 q 900 1003 797 1003 q 1094 913 1021 1003 q 1167 696 1167 826 z "},"♧":{"ha":1319,"x_min":118,"x_max":1201,"o":"m 1201 300 q 1133 108 1201 194 q 961 18 1063 18 q 851 44 892 18 q 792 92 821 68 q 781 96 785 96 q 774 69 774 96 q 799 -17 774 63 q 825 -156 825 -96 l 497 -156 q 524 -19 497 -94 q 558 67 540 25 q 551 94 564 94 q 536 88 546 94 q 364 10 449 10 q 188 93 257 10 q 118 285 118 172 q 185 471 118 392 q 357 554 254 554 q 517 499 413 554 q 532 497 529 493 q 526 508 535 501 q 432 618 460 567 q 403 750 403 674 q 482 931 403 860 q 661 999 557 999 q 839 931 764 999 q 917 754 917 861 q 885 615 917 675 q 806 514 863 572 q 794 496 792 500 q 815 507 797 493 q 976 564 904 564 q 1143 483 1078 564 q 1201 300 1201 407 m 1097 293 q 1065 416 1097 372 q 972 460 1032 460 q 869 422 926 460 q 778 385 811 385 q 719 410 747 385 q 688 478 688 438 q 721 561 688 522 q 782 633 750 597 q 815 750 815 682 q 768 851 815 810 q 661 892 721 892 q 554 854 599 892 q 508 750 508 813 q 543 632 508 682 q 611 561 576 596 q 647 481 647 522 q 621 409 647 438 q 554 381 594 381 q 467 416 529 381 q 358 451 404 451 q 263 399 301 451 q 225 286 225 350 q 263 169 225 215 q 365 122 300 122 q 465 154 419 122 q 538 215 468 156 q 607 249 576 249 q 638 215 626 249 q 646 160 646 190 q 615 -58 646 57 l 701 -58 q 681 158 681 28 q 693 218 681 188 q 725 251 707 251 q 824 188 750 251 q 958 125 897 125 q 1058 179 1014 125 q 1097 293 1097 232 z "},"♣":{"ha":1319,"x_min":118,"x_max":1201,"o":"m 1201 297 q 1136 110 1201 193 q 968 22 1065 22 q 844 63 906 22 q 774 103 782 103 q 765 85 765 103 q 790 -22 765 42 q 815 -156 815 -86 l 506 -156 q 534 -23 506 -92 q 563 89 563 46 q 556 103 563 103 q 517 81 542 103 q 458 38 483 50 q 356 14 414 14 q 185 94 253 14 q 118 282 118 172 q 183 464 118 388 q 351 544 250 544 q 518 490 414 544 q 538 490 535 483 q 531 514 544 501 q 438 626 465 575 q 407 757 407 683 q 485 932 407 864 q 661 999 558 999 q 833 932 761 999 q 908 763 908 864 q 794 514 908 632 q 790 489 779 497 q 817 494 796 482 q 985 554 906 554 q 1144 476 1082 554 q 1201 297 1201 403 z "},"⊙":{"ha":1319,"x_min":143,"x_max":1175,"o":"m 1175 417 q 1024 34 1175 193 q 658 -125 874 -125 q 294 34 446 -125 q 143 417 143 193 q 294 800 143 640 q 658 960 446 960 q 1024 800 874 960 q 1175 417 1175 640 m 1072 417 q 951 726 1072 599 q 658 853 831 853 q 367 726 488 853 q 246 417 246 599 q 367 108 246 236 q 658 -19 488 -19 q 951 108 831 -19 q 1072 417 1072 236 m 822 417 q 773 294 822 346 q 657 243 724 243 q 540 294 589 243 q 492 417 492 346 q 540 540 492 489 q 657 590 589 590 q 773 540 724 590 q 822 417 822 489 z "},"◈":{"ha":1319,"x_min":46,"x_max":1274,"o":"m 1274 419 l 660 -225 l 46 418 l 660 1065 l 1274 419 m 1135 418 l 660 919 l 183 418 l 660 -81 l 1135 418 m 983 417 l 656 74 l 329 417 l 656 760 l 983 417 z "},"▣":{"ha":1319,"x_min":135,"x_max":1183,"o":"m 1183 -125 l 135 -125 l 135 971 l 1183 971 l 1183 -125 m 1085 -22 l 1085 868 l 233 868 l 233 -22 l 1085 -22 m 919 132 l 393 132 l 393 690 l 919 690 l 919 132 z "},"◐":{"ha":1319,"x_min":103,"x_max":1215,"o":"m 1215 424 q 1046 3 1215 174 q 642 -164 881 -164 q 258 11 415 -164 q 103 424 103 185 q 260 830 103 660 q 642 1000 418 1000 q 1044 835 876 1000 q 1215 424 1215 667 m 1154 422 q 1010 777 1154 631 q 664 924 865 924 l 664 -89 q 1013 63 867 -89 q 1154 422 1154 214 z "},"◑":{"ha":1319,"x_min":103,"x_max":1215,"o":"m 1215 415 q 1060 4 1215 176 q 678 -171 901 -171 q 274 -3 440 -171 q 103 415 103 167 q 276 828 103 661 q 678 992 443 992 q 1058 822 901 992 q 1215 415 1215 653 m 653 -99 l 653 918 q 308 770 453 918 q 164 413 164 622 q 308 53 164 206 q 653 -99 451 -99 z "},"▒":{"ha":1319,"x_min":117,"x_max":1197,"o":"m 1197 908 q 1182 871 1197 886 q 1144 856 1167 856 q 1107 871 1122 856 q 1092 908 1092 886 q 1107 945 1092 929 q 1144 961 1122 961 q 1182 945 1167 961 q 1197 908 1197 929 m 1004 908 q 989 871 1004 886 q 951 856 974 856 q 914 871 929 856 q 899 908 899 886 q 914 945 899 929 q 951 961 929 961 q 989 945 974 961 q 1004 908 1004 929 m 1197 715 q 1182 677 1197 693 q 1144 661 1167 661 q 1107 677 1122 661 q 1092 715 1092 693 q 1107 751 1092 736 q 1144 767 1122 767 q 1182 751 1167 767 q 1197 715 1197 736 m 1004 715 q 989 677 1004 693 q 951 661 974 661 q 914 677 929 661 q 899 715 899 693 q 914 751 899 736 q 951 767 929 767 q 989 751 974 767 q 1004 715 1004 736 m 808 908 q 793 871 808 886 q 756 856 778 856 q 718 871 733 856 q 703 908 703 886 q 718 945 703 929 q 756 961 733 961 q 793 945 778 961 q 808 908 808 929 m 1197 519 q 1182 482 1197 497 q 1144 467 1167 467 q 1107 482 1122 467 q 1092 519 1092 497 q 1107 557 1092 542 q 1144 572 1122 572 q 1182 557 1167 572 q 1197 519 1197 542 m 1004 519 q 989 482 1004 497 q 951 467 974 467 q 914 482 929 467 q 899 519 899 497 q 914 557 899 542 q 951 572 929 572 q 989 557 974 572 q 1004 519 1004 542 m 808 715 q 793 677 808 693 q 756 661 778 661 q 718 677 733 661 q 703 715 703 693 q 718 751 703 736 q 756 767 733 767 q 793 751 778 767 q 808 715 808 736 m 613 908 q 597 871 613 886 q 560 856 582 856 q 522 871 538 856 q 507 908 507 886 q 522 945 507 929 q 560 961 538 961 q 597 945 582 961 q 613 908 613 929 m 1197 325 q 1182 287 1197 301 q 1144 272 1167 272 q 1107 287 1122 272 q 1092 325 1092 301 q 1107 363 1092 347 q 1144 378 1122 378 q 1182 363 1167 378 q 1197 325 1197 347 m 808 519 q 793 482 808 497 q 756 467 778 467 q 718 482 733 467 q 703 519 703 497 q 718 557 703 542 q 756 572 733 572 q 793 557 778 572 q 808 519 808 542 m 1004 325 q 989 287 1004 301 q 951 272 974 272 q 914 287 929 272 q 899 325 899 301 q 914 363 899 347 q 951 378 929 378 q 989 363 974 378 q 1004 325 1004 347 m 417 908 q 402 871 417 886 q 364 856 388 856 q 327 871 342 856 q 313 908 313 886 q 327 945 313 929 q 364 961 342 961 q 402 945 388 961 q 417 908 417 929 m 613 715 q 597 677 613 693 q 560 661 582 661 q 522 677 538 661 q 507 715 507 693 q 522 751 507 736 q 560 767 538 767 q 597 751 582 767 q 613 715 613 736 m 1197 131 q 1182 93 1197 108 q 1144 78 1167 78 q 1107 93 1122 78 q 1092 131 1092 108 q 1107 168 1092 153 q 1144 183 1122 183 q 1182 168 1167 183 q 1197 131 1197 153 m 808 325 q 793 287 808 301 q 756 272 778 272 q 718 287 733 272 q 703 325 703 301 q 718 363 703 347 q 756 378 733 378 q 793 363 778 378 q 808 325 808 347 m 1004 131 q 989 93 1004 108 q 951 78 974 78 q 914 93 929 78 q 899 131 899 108 q 914 168 899 153 q 951 183 929 183 q 989 168 974 183 q 1004 131 1004 153 m 417 715 q 402 677 417 693 q 364 661 388 661 q 327 677 342 661 q 313 715 313 693 q 327 751 313 736 q 364 767 342 767 q 402 751 388 767 q 417 715 417 736 m 613 519 q 597 482 613 497 q 560 467 582 467 q 522 482 538 467 q 507 519 507 497 q 522 557 507 542 q 560 572 538 572 q 597 557 582 572 q 613 519 613 542 m 1197 -65 q 1182 -103 1197 -87 q 1144 -118 1167 -118 q 1107 -103 1122 -118 q 1092 -65 1092 -87 q 1107 -27 1092 -42 q 1144 -12 1122 -12 q 1182 -27 1167 -12 q 1197 -65 1197 -42 m 222 908 q 207 871 222 886 q 169 856 192 856 q 132 871 147 856 q 117 908 117 886 q 132 945 117 929 q 169 961 147 961 q 207 945 192 961 q 222 908 222 929 m 808 131 q 793 93 808 108 q 756 78 778 78 q 718 93 733 78 q 703 131 703 108 q 718 168 703 153 q 756 183 733 183 q 793 168 778 183 q 808 131 808 153 m 1004 -65 q 989 -103 1004 -87 q 951 -118 974 -118 q 914 -103 929 -118 q 899 -65 899 -87 q 914 -27 899 -42 q 951 -12 929 -12 q 989 -27 974 -12 q 1004 -65 1004 -42 m 417 519 q 402 482 417 497 q 364 467 388 467 q 327 482 342 467 q 313 519 313 497 q 327 557 313 542 q 364 572 342 572 q 402 557 388 572 q 417 519 417 542 m 613 325 q 597 287 613 301 q 560 272 582 272 q 522 287 538 272 q 507 325 507 301 q 522 363 507 347 q 560 378 538 378 q 597 363 582 378 q 613 325 613 347 m 222 714 q 207 676 222 692 q 169 661 192 661 q 132 676 147 661 q 117 714 117 692 q 132 751 117 736 q 169 767 147 767 q 207 751 192 767 q 222 714 222 736 m 808 -65 q 793 -103 808 -87 q 756 -118 778 -118 q 718 -103 733 -118 q 703 -65 703 -87 q 718 -27 703 -42 q 756 -12 733 -12 q 793 -27 778 -12 q 808 -65 808 -42 m 613 131 q 597 93 613 108 q 560 78 582 78 q 522 93 538 78 q 507 131 507 108 q 522 168 507 153 q 560 183 538 183 q 597 168 582 183 q 613 131 613 153 m 222 519 q 207 481 222 496 q 169 467 192 467 q 132 481 147 467 q 117 519 117 496 q 132 557 117 542 q 169 572 147 572 q 207 557 192 572 q 222 519 222 542 m 417 325 q 401 287 417 301 q 364 272 386 272 q 327 287 342 272 q 313 325 313 301 q 327 363 313 347 q 364 378 342 378 q 402 363 388 378 q 417 325 417 347 m 613 -65 q 597 -103 613 -87 q 560 -118 582 -118 q 522 -103 538 -118 q 507 -65 507 -87 q 522 -27 507 -42 q 560 -12 538 -12 q 597 -27 582 -12 q 613 -65 613 -42 m 417 131 q 401 93 417 108 q 364 78 386 78 q 327 93 342 78 q 313 131 313 108 q 327 168 313 153 q 364 183 342 183 q 402 168 388 183 q 417 131 417 153 m 222 324 q 207 286 222 301 q 169 271 192 271 q 132 286 147 271 q 117 324 117 301 q 132 362 117 347 q 169 376 147 376 q 207 362 192 376 q 222 324 222 347 m 417 -65 q 402 -103 417 -87 q 364 -118 388 -118 q 327 -103 342 -118 q 313 -65 313 -87 q 327 -27 313 -42 q 364 -12 342 -12 q 402 -27 388 -12 q 417 -65 417 -42 m 222 131 q 207 92 222 107 q 169 78 192 78 q 132 92 147 78 q 117 131 117 107 q 132 167 117 153 q 169 182 147 182 q 207 167 192 182 q 222 131 222 153 m 222 -65 q 207 -103 222 -87 q 169 -118 192 -118 q 132 -103 147 -118 q 117 -65 117 -87 q 132 -28 117 -43 q 169 -12 147 -12 q 207 -28 192 -12 q 222 -65 222 -43 z "},"▤":{"ha":1319,"x_min":129,"x_max":1189,"o":"m 1189 -131 l 129 -131 l 129 976 l 1189 976 l 1189 -131 m 1143 825 l 1143 929 l 174 929 l 174 825 l 1143 825 m 1143 667 l 1143 778 l 174 778 l 174 667 l 1143 667 m 1143 522 l 1143 621 l 174 621 l 174 522 l 1143 522 m 1143 367 l 1143 472 l 174 472 l 174 367 l 1143 367 m 1143 211 l 1143 319 l 174 319 l 174 211 l 1143 211 m 1143 64 l 1143 164 l 174 164 l 174 64 l 1143 64 m 1143 -83 l 1143 17 l 174 17 l 174 -83 l 1143 -83 z "},"▥":{"ha":1319,"x_min":129,"x_max":1189,"o":"m 1189 -140 l 129 -140 l 129 975 l 1189 975 l 1189 -140 m 1146 -92 l 1146 926 l 1047 926 l 1047 -92 l 1146 -92 m 1003 -92 l 1003 926 l 908 926 l 908 -92 l 1003 -92 m 861 -92 l 861 926 l 760 926 l 760 -92 l 861 -92 m 715 -92 l 715 926 l 613 926 l 613 -92 l 715 -92 m 567 -92 l 567 926 l 471 926 l 471 -92 l 567 -92 m 426 -92 l 426 926 l 319 926 l 319 -92 l 426 -92 m 275 -92 l 275 926 l 174 926 l 174 -92 l 275 -92 z "},"▨":{"ha":1319,"x_min":129,"x_max":1189,"o":"m 1189 -133 l 129 -133 l 129 975 l 1189 975 l 1189 -133 m 1139 221 l 1139 408 l 672 -86 l 850 -86 l 1139 221 m 1139 471 l 1139 661 l 431 -86 l 607 -86 l 1139 471 m 1139 -86 l 1139 158 l 907 -86 l 1139 -86 m 1139 724 l 1139 893 l 206 -86 l 365 -86 l 1139 724 m 1106 926 l 949 926 l 172 113 l 172 -54 l 1106 926 m 888 926 l 707 926 l 172 365 l 172 174 l 888 926 m 643 926 l 463 926 l 172 625 l 172 431 l 643 926 m 399 926 l 172 926 l 172 682 l 399 926 z "},"▧":{"ha":1319,"x_min":129,"x_max":1189,"o":"m 1189 -132 l 129 -132 l 129 976 l 1189 976 l 1189 -132 m 1139 683 l 1139 928 l 907 928 l 1139 683 m 1139 433 l 1139 622 l 850 928 l 672 928 l 1139 433 m 1139 183 l 1139 372 l 607 928 l 431 928 l 1139 183 m 1139 -50 l 1139 118 l 365 928 l 206 928 l 1139 -50 m 1106 -83 l 172 897 l 172 731 l 949 -83 l 1106 -83 m 888 -83 l 172 669 l 172 478 l 707 -83 l 888 -83 m 643 -83 l 172 413 l 172 218 l 463 -83 l 643 -83 m 399 -83 l 172 160 l 172 -83 l 399 -83 z "},"▦":{"ha":1319,"x_min":129,"x_max":1189,"o":"m 1189 -131 l 129 -131 l 129 976 l 1189 976 l 1189 -131 m 1143 824 l 1143 929 l 1040 929 l 1040 824 l 1143 824 m 999 824 l 999 929 l 900 929 l 900 824 l 999 824 m 1143 665 l 1143 781 l 1040 781 l 1040 665 l 1143 665 m 857 824 l 857 929 l 751 929 l 751 824 l 857 824 m 999 665 l 999 781 l 900 781 l 900 665 l 999 665 m 1143 518 l 1143 622 l 1040 622 l 1040 518 l 1143 518 m 857 665 l 857 781 l 751 781 l 751 665 l 857 665 m 711 824 l 711 929 l 603 929 l 603 824 l 711 824 m 999 518 l 999 622 l 900 622 l 900 518 l 999 518 m 1143 365 l 1143 474 l 1040 474 l 1040 365 l 1143 365 m 999 365 l 999 474 l 900 474 l 900 365 l 999 365 m 563 824 l 563 929 l 465 929 l 465 824 l 563 824 m 857 518 l 857 622 l 751 622 l 751 518 l 857 518 m 711 665 l 711 781 l 603 781 l 603 665 l 711 665 m 1143 210 l 1143 322 l 1040 322 l 1040 210 l 1143 210 m 425 824 l 425 929 l 317 929 l 317 824 l 425 824 m 857 365 l 857 474 l 751 474 l 751 365 l 857 365 m 999 210 l 999 322 l 900 322 l 900 210 l 999 210 m 1143 63 l 1143 167 l 1040 167 l 1040 63 l 1143 63 m 563 665 l 563 781 l 465 781 l 465 665 l 563 665 m 711 518 l 711 622 l 603 622 l 603 518 l 711 518 m 1143 -83 l 1143 19 l 1040 19 l 1040 -83 l 1143 -83 m 999 63 l 999 167 l 900 167 l 900 63 l 999 63 m 275 824 l 275 929 l 174 929 l 174 824 l 275 824 m 857 210 l 857 322 l 751 322 l 751 210 l 857 210 m 425 665 l 425 781 l 317 781 l 317 665 l 425 665 m 711 365 l 711 474 l 603 474 l 603 365 l 711 365 m 563 518 l 563 622 l 465 622 l 465 518 l 563 518 m 999 -83 l 999 19 l 900 19 l 900 -83 l 999 -83 m 857 63 l 857 167 l 751 167 l 751 63 l 857 63 m 563 365 l 563 474 l 465 474 l 465 365 l 563 365 m 425 518 l 425 622 l 317 622 l 317 518 l 425 518 m 275 665 l 275 781 l 174 781 l 174 665 l 275 665 m 711 210 l 711 322 l 603 322 l 603 210 l 711 210 m 857 -83 l 857 19 l 751 19 l 751 -83 l 857 -83 m 425 365 l 425 474 l 317 474 l 317 365 l 425 365 m 711 63 l 711 167 l 603 167 l 603 63 l 711 63 m 563 210 l 563 322 l 465 322 l 465 210 l 563 210 m 275 518 l 275 622 l 174 622 l 174 518 l 275 518 m 711 -83 l 711 19 l 603 19 l 603 -83 l 711 -83 m 275 365 l 275 474 l 174 474 l 174 365 l 275 365 m 425 210 l 425 322 l 317 322 l 317 210 l 425 210 m 563 63 l 563 167 l 465 167 l 465 63 l 563 63 m 563 -83 l 563 19 l 465 19 l 465 -83 l 563 -83 m 425 63 l 425 167 l 317 167 l 317 63 l 425 63 m 275 210 l 275 322 l 174 322 l 174 210 l 275 210 m 425 -83 l 425 19 l 317 19 l 317 -83 l 425 -83 m 275 63 l 275 167 l 174 167 l 174 63 l 275 63 m 275 -83 l 275 19 l 174 19 l 174 -83 l 275 -83 z "},"▩":{"ha":1319,"x_min":131,"x_max":1189,"o":"m 1189 -132 l 131 -132 l 131 976 l 1189 976 l 1189 -132 m 1140 682 l 1140 892 l 1040 786 l 1140 682 m 1100 928 l 907 928 l 1003 826 l 1100 928 m 976 794 l 888 889 l 799 794 l 888 699 l 976 794 m 1099 665 l 1013 758 l 919 664 l 1010 572 l 1099 665 m 1140 433 l 1140 635 l 1044 535 l 1140 433 m 854 928 l 672 928 l 763 832 l 854 928 m 976 538 l 890 631 l 804 539 l 890 446 l 976 538 m 1097 414 l 1014 500 l 925 408 l 1007 319 l 1097 414 m 857 667 l 768 761 l 675 665 l 768 572 l 857 667 m 732 797 l 649 886 l 558 790 l 643 701 l 732 797 m 1140 182 l 1140 386 l 1042 285 l 1140 182 m 621 928 l 431 928 l 525 828 l 621 928 m 1096 163 l 1013 251 l 932 167 l 1015 79 l 1096 163 m 735 540 l 647 635 l 568 550 l 657 457 l 735 540 m 857 410 l 769 504 l 690 419 l 778 328 l 857 410 m 975 288 l 893 375 l 814 290 l 897 203 l 975 288 m 613 671 l 529 756 l 449 674 l 533 586 l 613 671 m 493 794 l 406 889 l 324 806 l 414 711 l 493 794 m 1140 -51 l 1140 135 l 1051 42 l 1140 -51 m 371 928 l 204 928 l 288 840 l 371 928 m 257 808 l 174 897 l 174 721 l 257 808 m 1104 -85 l 1018 7 l 932 -85 l 1104 -85 m 863 169 l 782 258 l 704 174 l 786 89 l 863 169 m 383 678 l 292 772 l 214 689 l 304 594 l 383 678 m 983 44 l 900 133 l 822 50 l 907 -39 l 983 44 m 746 293 l 660 386 l 579 303 l 669 213 l 746 293 m 500 554 l 417 640 l 338 557 l 421 469 l 500 554 m 622 422 l 535 517 l 458 433 l 544 339 l 622 422 m 890 -85 l 790 19 l 692 -85 l 890 -85 m 275 561 l 174 667 l 174 457 l 275 561 m 519 304 l 428 403 l 335 306 l 429 210 l 519 304 m 640 178 l 550 272 l 461 176 l 547 83 l 640 178 m 756 54 l 674 142 l 583 47 l 665 -40 l 756 54 m 390 438 l 308 526 l 218 432 l 301 343 l 390 438 m 272 313 l 174 413 l 174 210 l 272 313 m 644 -85 l 550 14 l 460 -85 l 644 -85 m 517 50 l 429 143 l 338 47 l 426 -43 l 517 50 m 393 181 l 306 274 l 215 176 l 304 83 l 393 181 m 403 -85 l 307 15 l 214 -85 l 403 -85 m 275 51 l 174 158 l 174 -53 l 275 51 z "},"♨":{"ha":1319,"x_min":129,"x_max":1190,"o":"m 917 344 q 869 186 917 282 q 808 31 815 78 l 792 31 q 779 107 779 64 q 798 234 779 150 q 817 361 817 318 q 788 513 817 413 q 758 660 758 613 q 801 786 758 690 q 856 925 847 890 l 871 925 q 879 860 879 897 q 869 760 879 826 q 858 660 858 693 q 888 500 858 603 q 917 344 917 397 m 749 361 q 697 188 749 289 q 622 19 633 58 l 603 19 q 597 85 597 47 q 622 217 597 129 q 646 351 646 306 q 615 508 646 406 q 583 663 583 611 q 628 828 583 731 q 678 989 674 929 l 694 989 q 718 883 718 938 q 699 776 718 847 q 679 669 679 704 q 714 517 679 618 q 749 361 749 417 m 563 344 q 515 188 563 282 q 454 32 463 81 l 439 32 q 425 110 425 64 q 443 235 425 151 q 461 363 461 319 q 434 515 461 415 q 407 663 407 614 q 450 788 407 699 q 503 926 496 885 l 517 926 q 526 861 526 897 q 515 758 526 826 q 504 654 504 689 q 533 497 504 599 q 563 344 563 396 m 1190 125 q 986 -107 1190 -32 q 660 -158 843 -158 q 338 -111 479 -158 q 129 108 129 -40 q 233 267 129 196 q 413 344 315 324 l 418 326 q 296 256 354 301 q 221 142 221 194 q 399 -1 221 40 q 646 -25 501 -25 q 913 8 782 -25 q 1106 156 1106 58 q 946 315 1106 232 l 954 332 q 1106 261 1036 314 q 1190 125 1190 199 z "},"☏":{"ha":1319,"x_min":75,"x_max":1244,"o":"m 1244 543 q 1178 454 1244 454 q 1043 481 1122 454 q 944 557 944 513 q 957 608 944 575 q 969 653 969 640 q 948 681 969 668 q 906 693 926 693 q 885 672 885 693 l 886 633 q 926 468 886 538 q 1011 360 943 439 q 1089 236 1068 294 q 1104 172 1097 213 q 1118 108 1113 124 q 1133 74 1121 99 q 1144 39 1144 54 q 1117 -14 1144 7 q 1050 -35 1090 -35 l 217 -35 q 164 28 164 -35 q 175 72 164 51 q 193 110 190 97 l 207 185 q 239 268 221 238 q 317 365 257 299 q 396 471 374 426 q 433 631 433 542 l 433 689 q 424 701 433 701 q 378 683 401 701 q 356 643 356 665 q 367 606 356 632 q 378 560 378 581 q 278 474 378 510 q 138 444 199 444 q 75 531 75 444 q 296 794 75 715 q 660 849 443 849 q 1017 796 864 849 q 1244 543 1244 717 m 1208 536 q 994 769 1208 694 q 661 821 850 821 q 321 768 468 821 q 107 533 107 693 q 146 472 107 472 q 258 497 188 472 q 347 560 347 526 q 335 595 347 567 q 322 644 322 624 q 358 706 322 678 q 436 733 396 733 q 468 668 468 733 q 396 408 468 513 q 272 258 333 333 q 239 181 251 228 q 222 100 229 140 q 206 61 219 88 q 197 25 197 42 q 228 -4 197 -4 l 1040 -4 q 1108 39 1108 -4 q 1097 83 1108 58 q 1079 124 1082 117 q 1054 239 1074 163 q 971 361 1029 297 q 889 469 908 432 q 853 656 853 543 q 888 726 853 726 q 961 708 925 726 q 1006 654 1006 688 q 992 605 1006 636 q 979 558 979 574 q 1060 504 979 529 q 1167 483 1128 483 q 1208 536 1208 483 m 908 282 q 835 95 908 169 q 656 21 763 21 q 477 96 550 21 q 404 282 404 171 q 476 470 404 394 q 656 546 547 546 q 837 471 765 546 q 908 282 908 396 m 874 283 q 813 451 874 382 q 657 519 753 519 q 499 452 561 519 q 436 283 436 385 q 497 115 436 181 q 653 49 557 49 q 810 116 747 49 q 874 283 874 183 m 814 632 q 726 575 814 575 l 581 575 q 504 629 504 575 l 504 729 q 661 715 592 715 q 814 726 725 715 l 814 632 m 781 636 l 781 697 q 660 688 733 688 q 536 700 592 688 l 536 635 q 585 604 536 604 l 731 604 q 781 636 781 604 z "},"☎":{"ha":1319,"x_min":75,"x_max":1244,"o":"m 1244 543 q 1178 454 1244 454 q 1043 481 1122 454 q 944 557 944 513 q 958 605 944 574 q 969 653 971 636 q 903 696 965 696 q 888 694 894 696 q 885 633 885 649 q 925 468 885 538 q 1011 360 942 439 q 1089 236 1068 294 q 1104 172 1097 213 q 1118 108 1113 124 q 1133 74 1121 99 q 1144 39 1144 54 q 1113 -17 1144 3 q 1050 -35 1086 -35 l 200 -35 q 174 -10 186 -35 q 164 28 164 10 q 174 72 164 53 q 193 110 190 100 q 219 221 206 165 q 274 321 236 283 q 383 451 357 407 q 433 618 433 528 q 429 706 433 628 q 378 685 401 708 q 356 633 356 663 q 367 601 356 622 q 378 558 378 579 q 278 472 378 508 q 138 444 199 444 q 75 531 75 444 q 296 790 75 708 q 660 849 449 849 q 1017 796 864 849 q 1244 543 1244 717 m 814 646 l 814 726 q 658 715 728 715 q 504 729 592 715 l 504 642 q 581 588 504 588 l 726 588 q 814 646 814 588 m 908 283 q 836 466 908 394 q 656 538 764 538 q 482 466 550 538 q 414 283 414 394 q 482 101 414 172 q 656 29 550 29 q 833 99 763 29 q 908 283 908 171 z "},"☜":{"ha":1319,"x_min":150,"x_max":1169,"o":"m 1169 260 l 1069 260 l 1069 289 l 1036 289 q 968 257 1003 272 q 817 213 900 225 q 668 208 775 207 q 567 213 571 210 q 519 225 540 213 q 494 265 494 240 q 515 301 494 293 q 474 324 488 301 q 465 349 465 336 q 481 388 465 369 q 449 401 464 388 q 432 432 433 415 q 539 486 432 482 l 535 497 q 314 508 474 500 q 215 514 218 513 q 154 569 150 524 q 219 614 157 606 q 306 618 264 617 q 678 625 428 625 q 831 621 796 625 q 994 544 931 606 q 1072 538 1000 539 l 1072 581 l 1169 581 l 1169 260 m 1072 304 l 1072 514 q 1042 517 1071 514 q 1014 518 1026 518 q 1019 496 1019 501 q 1017 492 1019 492 q 990 518 1014 492 q 932 567 960 549 q 722 606 876 606 q 694 604 703 606 q 610 571 640 592 q 582 536 596 563 q 556 500 567 508 q 558 494 554 499 q 572 490 563 490 q 596 494 583 490 q 630 519 608 499 q 654 540 651 540 q 658 539 657 540 q 653 518 663 531 q 675 513 653 515 q 707 513 696 511 q 740 526 721 517 q 758 536 757 536 q 761 535 761 536 q 743 503 763 522 q 772 475 756 488 q 844 432 807 444 q 931 415 878 421 q 964 403 964 410 q 924 396 964 393 q 851 408 883 399 q 756 463 797 425 q 721 499 739 481 q 693 494 700 494 q 638 504 665 494 l 618 486 q 658 476 642 481 q 702 453 699 464 q 706 435 706 443 q 688 396 706 414 q 714 380 699 396 q 729 351 729 364 q 708 315 729 332 q 729 306 721 311 q 750 275 749 293 q 733 231 751 250 l 778 231 q 969 282 874 238 q 1046 319 1043 314 l 1046 304 q 1072 304 1047 303 m 628 604 q 307 599 467 604 q 211 592 233 596 q 175 565 176 585 q 206 536 175 544 q 307 528 228 532 q 550 518 410 524 q 576 560 558 529 q 628 604 590 585 m 1147 282 l 1147 557 l 1090 557 l 1090 282 l 1147 282 m 674 407 q 686 431 686 417 q 649 463 686 457 q 535 467 601 472 q 464 450 489 468 q 456 433 456 444 q 486 406 456 406 q 561 403 488 403 q 674 407 665 403 m 708 346 l 708 351 q 650 383 708 383 l 524 383 q 499 373 510 383 q 488 351 488 363 q 507 324 488 335 q 575 318 514 319 q 639 318 633 315 q 678 324 657 318 q 708 346 706 332 m 729 274 q 689 297 725 297 l 625 297 q 543 296 597 297 q 518 268 518 294 q 535 240 518 246 q 618 232 557 233 q 681 235 679 232 q 711 243 694 235 q 729 274 733 256 z "},"☞":{"ha":1319,"x_min":150,"x_max":1168,"o":"m 1165 569 q 1103 514 1168 524 q 1004 508 1100 513 q 783 497 915 504 l 779 486 q 835 474 783 493 q 886 432 886 454 q 871 401 886 415 q 838 388 856 388 q 853 349 853 369 q 846 324 853 336 q 804 301 832 301 q 825 265 825 293 q 799 225 825 240 q 753 213 778 213 q 650 208 749 210 q 501 213 543 207 q 350 257 419 225 q 283 289 317 272 l 249 289 l 249 260 l 150 260 l 150 581 l 247 581 l 247 538 q 322 544 283 539 q 488 621 388 606 q 640 625 522 625 q 1013 618 892 625 q 1099 614 1054 617 q 1165 569 1163 606 m 763 500 q 737 535 753 508 q 710 571 721 563 q 625 604 683 590 q 596 606 615 606 q 386 567 443 606 q 328 518 358 549 q 301 492 304 492 q 300 496 300 492 q 304 518 300 501 q 278 517 293 518 l 247 514 l 247 304 q 271 304 272 303 q 272 321 268 324 q 349 282 272 315 q 540 231 446 238 q 569 231 553 229 l 585 231 q 569 275 567 250 q 610 315 572 301 q 590 351 590 332 q 629 396 590 381 q 613 433 613 422 q 617 453 613 443 q 701 486 626 481 l 681 504 q 626 494 653 494 q 597 499 617 494 l 564 463 q 468 408 521 425 q 396 396 436 399 q 356 403 356 393 q 389 415 356 410 q 474 432 440 421 q 576 503 529 450 q 558 535 557 524 l 560 536 q 580 526 563 536 q 613 513 597 517 q 644 513 622 511 q 667 518 667 515 q 661 539 656 532 q 664 540 663 540 q 689 519 667 540 q 722 494 711 499 q 747 490 736 490 q 761 494 757 490 q 763 500 765 499 m 1142 565 q 1107 592 1142 585 q 1011 599 1085 596 q 690 604 851 604 q 742 560 708 593 l 769 518 l 1011 528 q 1113 536 1090 532 q 1142 565 1143 544 m 228 282 l 228 557 l 171 557 l 171 282 l 228 282 m 833 461 q 783 467 810 468 q 669 463 718 472 q 632 431 632 457 q 644 407 632 417 q 757 403 653 403 q 832 406 832 403 q 863 433 863 406 q 833 461 863 451 m 813 324 q 831 351 831 335 q 819 373 831 363 q 796 383 808 383 l 668 383 q 611 351 611 383 l 611 346 q 679 318 619 318 q 744 318 685 315 q 813 324 804 319 m 783 240 q 801 268 801 246 q 776 296 801 294 q 694 297 721 297 l 629 297 q 589 274 590 297 q 607 243 586 256 q 638 235 624 235 q 700 232 639 232 q 783 240 761 233 z "},"¶":{"ha":782,"x_min":64,"x_max":669,"o":"m 669 -168 l 553 -168 l 553 839 l 507 839 l 507 -168 l 389 -168 l 389 388 l 375 388 q 161 461 250 388 q 64 674 64 542 q 161 886 64 806 q 375 960 249 960 l 669 960 l 669 -168 z "},"†":{"ha":932,"x_min":143,"x_max":790,"o":"m 790 503 l 507 503 l 507 -81 l 426 -81 l 426 503 l 143 503 l 143 581 l 426 581 l 426 903 l 507 903 l 507 581 l 790 581 l 790 503 z "},"‡":{"ha":932,"x_min":142,"x_max":789,"o":"m 789 397 l 506 397 l 506 -81 l 425 -81 l 425 397 l 142 397 l 142 475 l 425 475 l 425 650 l 142 650 l 142 726 l 425 726 l 425 903 l 506 903 l 506 726 l 789 726 l 789 650 l 506 650 l 506 475 l 789 475 l 789 397 z "},"↕":{"ha":1017,"x_min":263,"x_max":750,"o":"m 750 42 l 503 -229 l 263 42 l 468 -42 l 468 876 l 263 792 l 506 1064 l 750 792 l 543 876 l 543 -42 l 750 42 z "},"↗":{"ha":1319,"x_min":54,"x_max":1261,"o":"m 832 413 q 851 405 843 413 q 860 386 860 397 q 851 367 860 375 q 832 358 843 358 q 813 367 821 358 q 804 386 804 375 q 813 405 804 397 q 832 413 821 413 m 785 506 q 808 496 799 506 q 818 472 818 486 q 808 447 818 457 q 785 438 799 438 q 760 447 771 438 q 750 472 750 457 q 760 496 750 486 q 785 506 771 506 m 668 590 q 697 578 685 590 q 710 549 710 565 q 697 519 710 531 q 668 507 685 507 q 639 519 651 507 q 626 549 626 531 q 639 578 626 565 q 668 590 651 590 m 461 644 q 512 623 490 644 q 533 572 533 601 q 512 521 533 542 q 461 500 490 500 q 410 521 431 500 q 389 572 389 542 q 410 623 389 601 q 461 644 431 644 m 926 513 q 950 503 940 513 q 960 478 960 493 q 950 454 960 464 q 926 444 940 444 q 903 454 913 444 q 893 478 893 464 q 903 503 893 493 q 926 513 913 513 m 1090 554 q 1123 540 1110 554 q 1136 507 1136 526 q 1123 476 1136 489 q 1090 463 1110 463 q 1058 476 1071 463 q 1046 507 1046 489 q 1058 540 1046 526 q 1090 554 1071 554 m 533 165 q 563 171 550 165 q 585 183 575 176 l 585 158 q 565 152 582 156 q 525 149 549 149 q 440 239 440 149 q 522 325 440 325 q 576 310 563 325 q 590 281 590 294 l 549 281 q 542 298 547 289 q 519 307 536 307 q 488 287 494 307 q 481 244 481 267 q 533 165 481 165 m 750 281 l 750 283 q 745 300 750 296 q 726 304 740 304 l 711 304 l 711 151 l 671 151 l 671 304 l 654 304 q 635 299 639 304 q 631 283 632 294 l 629 281 l 618 281 l 619 319 l 761 319 l 764 281 l 750 281 m 854 319 l 854 151 l 815 151 l 815 294 q 810 307 815 306 q 788 311 806 308 l 788 319 l 854 319 m 985 328 q 1027 319 1011 328 q 1051 297 1043 310 q 1063 267 1060 283 q 1065 238 1065 251 q 1063 207 1065 222 q 1051 178 1060 192 q 1027 157 1043 165 q 985 149 1011 149 q 941 157 957 149 q 917 178 925 165 q 906 207 908 192 q 904 238 904 222 q 907 269 904 253 q 918 298 910 285 q 942 319 926 311 q 985 328 958 328 m 985 165 q 1019 188 1013 165 q 1025 238 1025 211 q 1017 290 1025 269 q 985 310 1010 310 q 951 290 958 310 q 944 238 944 269 q 985 165 944 165 m 1261 319 l 1261 151 l 1228 151 l 1143 281 l 1143 151 l 1117 151 l 1117 290 q 1113 306 1117 303 q 1088 311 1110 308 l 1088 319 l 1154 319 l 1235 203 l 1235 319 l 1261 319 m 164 201 l 103 201 l 81 151 l 54 151 l 114 297 q 114 307 118 306 q 94 311 110 308 l 94 319 l 156 319 l 224 151 l 186 151 l 164 201 m 157 219 l 133 279 l 110 219 l 157 219 m 299 319 l 299 222 q 304 178 299 192 q 333 165 310 165 q 366 178 361 165 q 371 215 371 192 l 371 319 l 400 319 l 400 219 q 389 170 400 192 q 329 149 378 149 q 258 210 258 149 l 258 294 q 253 307 258 306 q 231 311 249 308 l 231 319 l 299 319 z "},"↙":{"ha":1319,"x_min":54,"x_max":1261,"o":"m 533 165 q 563 171 550 165 q 585 183 575 176 l 585 158 q 565 152 582 156 q 525 149 549 149 q 440 239 440 149 q 522 325 440 325 q 576 310 563 325 q 590 281 590 294 l 549 281 q 542 298 547 289 q 519 307 536 307 q 488 287 494 307 q 481 244 481 267 q 533 165 481 165 m 750 281 l 750 283 q 745 300 750 296 q 726 304 740 304 l 711 304 l 711 151 l 671 151 l 671 304 l 654 304 q 635 299 639 304 q 631 283 632 294 l 629 281 l 618 281 l 619 319 l 761 319 l 764 281 l 750 281 m 854 319 l 854 151 l 815 151 l 815 294 q 810 307 815 306 q 788 311 806 308 l 788 319 l 854 319 m 985 328 q 1027 319 1011 328 q 1051 297 1043 310 q 1063 267 1060 283 q 1065 238 1065 251 q 1063 207 1065 222 q 1051 178 1060 192 q 1027 157 1043 165 q 985 149 1011 149 q 941 157 957 149 q 917 178 925 165 q 906 207 908 192 q 904 238 904 222 q 907 269 904 253 q 918 298 910 285 q 942 319 926 311 q 985 328 958 328 m 985 165 q 1019 188 1013 165 q 1025 238 1025 211 q 1017 290 1025 269 q 985 310 1010 310 q 951 290 958 310 q 944 238 944 269 q 985 165 944 165 m 1261 319 l 1261 151 l 1228 151 l 1143 281 l 1143 151 l 1117 151 l 1117 290 q 1113 306 1117 303 q 1088 311 1110 308 l 1088 319 l 1154 319 l 1235 203 l 1235 319 l 1261 319 m 164 201 l 103 201 l 81 151 l 54 151 l 114 297 q 114 307 118 306 q 94 311 110 308 l 94 319 l 156 319 l 224 151 l 186 151 l 164 201 m 157 219 l 133 279 l 110 219 l 157 219 m 299 319 l 299 222 q 304 178 299 192 q 333 165 310 165 q 366 178 361 165 q 371 215 371 192 l 371 319 l 400 319 l 400 219 q 389 170 400 192 q 329 149 378 149 q 258 210 258 149 l 258 294 q 253 307 258 306 q 231 311 249 308 l 231 319 l 299 319 z "},"↖":{"ha":1319,"x_min":389,"x_max":1136,"o":"m 832 413 q 851 405 843 413 q 860 386 860 397 q 851 367 860 375 q 832 358 843 358 q 813 367 821 358 q 804 386 804 375 q 813 405 804 397 q 832 413 821 413 m 785 506 q 808 496 799 506 q 818 472 818 486 q 808 447 818 457 q 785 438 799 438 q 760 447 771 438 q 750 472 750 457 q 760 496 750 486 q 785 506 771 506 m 668 590 q 697 578 685 590 q 710 549 710 565 q 697 519 710 531 q 668 507 685 507 q 639 519 651 507 q 626 549 626 531 q 639 578 626 565 q 668 590 651 590 m 461 644 q 512 623 490 644 q 533 572 533 601 q 512 521 533 542 q 461 500 490 500 q 410 521 431 500 q 389 572 389 542 q 410 623 389 601 q 461 644 431 644 m 926 513 q 950 503 940 513 q 960 478 960 493 q 950 454 960 464 q 926 444 940 444 q 903 454 913 444 q 893 478 893 464 q 903 503 893 493 q 926 513 913 513 m 1090 554 q 1123 540 1110 554 q 1136 507 1136 526 q 1123 476 1136 489 q 1090 463 1110 463 q 1058 476 1071 463 q 1046 507 1046 489 q 1058 540 1046 526 q 1090 554 1071 554 z "},"↘":{"ha":1319,"x_min":25,"x_max":1294,"o":"m 338 235 q 371 247 356 235 l 371 231 q 358 227 368 229 q 332 225 347 225 q 276 283 276 225 q 329 339 276 339 q 365 329 357 339 q 374 310 374 319 l 347 310 q 342 322 346 315 q 328 328 339 328 q 307 315 311 328 q 303 286 303 301 q 338 235 303 235 m 478 310 l 478 313 q 463 325 478 325 l 453 325 l 453 226 l 426 226 l 426 325 l 415 325 q 403 322 406 325 q 400 313 401 319 l 399 310 l 392 310 l 393 335 l 485 335 l 486 310 l 478 310 m 546 335 l 546 226 l 521 226 l 521 319 q 517 327 521 326 q 503 331 514 328 l 503 335 l 546 335 m 631 340 q 659 335 649 340 q 675 321 669 329 q 682 302 681 313 q 683 282 683 292 q 674 244 683 263 q 631 225 665 225 q 602 231 613 225 q 586 244 592 236 q 579 263 581 253 q 578 282 578 272 q 587 322 578 303 q 631 340 596 340 m 631 235 q 653 250 649 235 q 657 282 657 265 q 651 316 657 303 q 631 329 646 329 q 609 316 614 329 q 604 282 604 303 q 631 235 604 235 m 810 335 l 810 226 l 789 226 l 733 310 l 733 226 l 717 226 l 717 317 q 715 326 717 325 q 697 331 713 328 l 697 335 l 740 335 l 793 260 l 793 335 l 810 335 m 97 258 l 57 258 l 43 226 l 25 226 l 64 321 q 65 327 67 326 q 51 331 63 328 l 51 335 l 92 335 l 136 226 l 111 226 l 97 258 m 92 271 l 76 310 l 61 271 l 92 271 m 185 335 l 185 272 q 188 244 185 253 q 207 235 192 235 q 229 244 226 235 q 232 268 232 253 l 232 335 l 250 335 l 250 271 q 243 239 250 253 q 204 225 236 225 q 158 264 158 225 l 158 319 q 155 327 158 326 q 140 331 151 328 l 140 335 l 185 335 m 1006 294 q 1024 288 1015 294 q 1032 271 1032 282 q 1024 252 1032 260 q 1006 244 1015 244 q 987 252 994 244 q 979 271 979 260 q 987 288 979 282 q 1006 294 994 294 m 961 383 q 983 374 974 383 q 992 351 992 365 q 983 328 992 338 q 961 319 974 319 q 938 328 947 319 q 928 351 928 338 q 938 374 928 365 q 961 383 947 383 m 850 464 q 877 452 865 464 q 889 425 889 440 q 877 397 889 408 q 850 385 865 385 q 823 397 835 385 q 811 425 811 408 q 823 452 811 440 q 850 464 835 464 m 654 515 q 702 494 682 515 q 722 446 722 474 q 702 398 722 418 q 654 378 682 378 q 605 398 625 378 q 585 446 585 418 q 605 494 585 474 q 654 515 625 515 m 1096 390 q 1117 381 1108 390 q 1126 357 1126 372 q 1117 335 1126 344 q 1096 325 1108 325 q 1073 335 1082 325 q 1064 357 1064 344 q 1073 381 1064 372 q 1096 390 1082 390 m 1250 429 q 1282 416 1269 429 q 1294 385 1294 403 q 1282 356 1294 368 q 1250 343 1269 343 q 1220 356 1232 343 q 1208 385 1208 368 q 1220 416 1208 403 q 1250 429 1232 429 z "},"♭":{"ha":847,"x_min":219,"x_max":701,"o":"m 681 268 q 439 -18 613 67 q 219 -71 333 -71 l 219 925 l 313 925 l 313 433 q 372 515 332 478 q 526 579 438 579 q 588 571 556 579 q 701 392 701 544 q 681 268 701 331 m 529 490 q 486 497 507 497 q 360 425 414 497 q 308 324 324 378 l 308 3 q 525 124 438 25 q 597 349 597 206 q 529 490 597 471 z "},"♩":{"ha":746,"x_min":229,"x_max":529,"o":"m 529 67 q 458 -77 529 -3 q 317 -151 386 -151 q 229 -87 229 -151 q 289 19 229 -35 q 400 72 346 72 q 463 76 426 72 q 476 104 476 85 l 476 988 l 529 988 l 529 67 z "},"♪":{"ha":956,"x_min":147,"x_max":815,"o":"m 815 458 q 753 272 815 368 q 613 129 696 188 l 603 140 q 744 426 744 318 q 696 540 744 490 q 596 619 671 567 q 451 738 508 679 l 451 114 q 381 -37 451 40 q 235 -115 308 -115 q 147 -51 147 -115 q 214 63 147 11 q 340 111 275 111 q 381 110 383 111 q 401 129 401 113 l 401 985 l 415 985 q 504 868 456 919 q 642 753 536 836 q 764 633 728 685 q 815 458 815 557 z "},"♬":{"ha":1294,"x_min":176,"x_max":1119,"o":"m 1119 233 q 1050 88 1119 169 q 918 3 979 3 q 857 25 882 3 q 829 82 829 47 q 883 193 829 136 q 989 260 935 247 q 1065 275 1024 265 q 1076 304 1076 282 l 1076 617 l 493 489 l 493 125 q 422 -51 493 29 q 339 -114 390 -86 q 239 -143 283 -143 q 176 -82 176 -143 q 318 83 176 15 q 378 97 329 89 q 431 114 421 106 q 447 165 447 128 l 447 840 l 1119 986 l 1119 233 m 1076 764 l 1076 833 l 493 703 l 493 626 l 1076 764 z "},"㉿":{"ha":1319,"x_min":104,"x_max":1214,"o":"m 1179 617 l 1075 617 q 913 826 1024 749 q 658 910 800 908 q 355 791 485 911 q 200 493 225 671 l 363 493 l 363 394 l 104 394 l 104 424 q 267 835 104 664 q 658 1007 429 1007 q 979 897 836 1007 q 1179 617 1119 790 m 938 125 l 794 125 l 578 388 l 572 381 l 572 125 l 464 125 l 464 749 l 572 749 l 572 514 l 761 742 l 897 742 l 651 454 l 938 125 m 1214 424 q 1051 11 1214 182 q 658 -160 888 -160 q 310 -29 463 -160 q 118 294 161 97 l 219 296 q 379 39 260 138 q 658 -64 500 -64 q 976 69 843 -64 q 1119 394 1110 203 l 864 394 l 864 493 l 1210 493 q 1214 424 1214 458 z "},"㈜":{"ha":1319,"x_min":22,"x_max":1296,"o":"m 1296 421 q 1086 -165 1296 111 l 968 -165 q 1118 154 1075 7 q 1151 421 1151 272 q 1118 688 1151 568 q 969 1004 1076 833 l 1088 1004 q 1296 421 1296 729 m 1079 563 l 989 435 q 796 513 904 451 q 660 622 688 574 q 533 515 632 572 q 331 436 429 456 l 243 568 q 433 619 340 574 q 546 713 522 664 l 322 713 l 322 858 l 994 858 l 994 713 l 778 713 q 899 617 806 663 q 1079 563 992 568 m 1094 233 l 742 233 l 742 -82 l 579 -82 l 579 233 l 225 233 l 225 374 l 1094 374 l 1094 233 m 351 -165 l 233 -165 q 22 421 22 111 q 232 1004 22 729 l 350 1004 q 200 688 243 833 q 168 421 168 568 q 201 154 168 272 q 351 -165 244 7 z "},"№":{"ha":1319,"x_min":29,"x_max":1292,"o":"m 165 864 q 208 849 185 864 q 243 807 231 833 l 489 225 l 489 863 l 606 863 l 606 -53 l 461 -53 l 185 606 l 185 -53 l 75 -53 l 75 738 q 65 810 75 779 q 29 864 56 842 l 165 864 m 1161 275 q 1102 26 1161 107 q 914 -56 1043 -56 q 799 -31 846 -56 q 722 38 751 -6 q 681 143 693 82 q 668 275 668 204 q 728 525 668 444 q 914 606 789 606 q 1023 581 976 606 q 1100 513 1069 557 q 1146 408 1131 469 q 1161 275 1161 347 m 1019 275 q 1016 360 1019 317 q 1001 438 1013 403 q 969 494 990 472 q 914 517 949 517 q 858 494 879 517 q 827 435 838 471 q 813 357 817 400 q 810 275 810 314 q 813 195 810 238 q 827 117 817 153 q 858 57 838 81 q 914 33 879 33 q 969 54 949 33 q 1001 108 990 75 q 1016 185 1013 142 q 1019 275 1019 229 m 1154 29 q 1174 77 1154 57 q 1222 97 1193 97 q 1272 77 1251 97 q 1292 29 1292 57 q 1272 -18 1292 1 q 1222 -37 1251 -37 q 1174 -18 1193 -37 q 1154 29 1154 1 z "},"㏇":{"ha":1319,"x_min":60,"x_max":1279,"o":"m 1149 275 q 1090 26 1149 107 q 901 -56 1031 -56 q 786 -31 833 -56 q 710 38 739 -6 q 668 143 681 82 q 656 275 656 204 q 716 525 656 444 q 901 606 776 606 q 1010 581 964 606 q 1088 513 1057 557 q 1133 408 1118 469 q 1149 275 1149 347 m 1007 275 q 1003 360 1007 317 q 989 438 1000 403 q 957 494 978 472 q 901 517 936 517 q 846 494 867 517 q 815 435 825 471 q 801 357 804 400 q 797 275 797 314 q 801 195 797 238 q 815 117 804 153 q 846 57 825 81 q 901 33 867 33 q 957 54 936 33 q 989 108 978 75 q 1003 185 1000 142 q 1007 275 1007 229 m 1142 29 q 1161 77 1142 57 q 1210 97 1181 97 q 1259 77 1239 97 q 1279 29 1279 57 q 1259 -18 1279 1 q 1210 -37 1239 -37 q 1161 -18 1181 -37 q 1142 29 1142 1 m 531 619 q 500 629 518 619 q 474 671 482 639 q 447 721 469 696 q 371 746 424 746 q 293 715 325 746 q 242 636 261 683 q 215 535 224 589 q 207 435 207 481 q 213 319 207 385 q 241 196 219 254 q 303 97 263 138 q 413 57 343 57 q 517 83 461 57 q 614 146 572 110 l 622 14 q 572 -8 601 3 q 508 -26 542 -18 q 442 -38 475 -33 q 379 -43 408 -43 q 139 77 218 -43 q 60 411 60 197 q 76 578 60 500 q 131 717 93 657 q 230 811 169 776 q 378 846 290 846 q 549 799 492 846 q 625 679 607 751 q 633 626 631 654 l 531 619 z "},"™":{"ha":1261,"x_min":54,"x_max":1174,"o":"m 535 865 l 356 865 l 356 489 l 229 489 l 229 865 l 54 865 l 54 971 l 535 971 l 535 865 m 619 906 q 612 944 619 928 q 581 971 604 960 l 693 971 q 732 961 719 971 q 751 936 744 951 l 899 631 l 1056 971 l 1174 971 l 1174 489 l 1056 489 l 1056 751 l 935 489 l 861 489 l 738 746 l 738 489 l 619 489 l 619 906 z "},"㏂":{"ha":1319,"x_min":42,"x_max":1294,"o":"m 1294 53 q 1276 4 1294 24 q 1231 -15 1257 -15 q 1185 4 1204 -15 q 1167 53 1167 24 q 1185 100 1167 81 q 1231 119 1204 119 q 1276 100 1257 119 q 1294 53 1294 81 m 592 53 q 572 4 592 24 q 526 -15 553 -15 q 481 4 500 -15 q 463 53 463 24 q 481 100 463 81 q 526 119 500 119 q 572 100 553 119 q 592 53 592 81 m 440 1 l 315 1 l 315 47 q 258 4 288 19 q 192 -11 229 -11 q 132 1 160 -11 q 84 31 104 13 q 53 75 64 50 q 42 126 42 100 q 74 219 42 185 q 149 272 106 254 q 240 297 193 290 q 315 304 286 303 l 315 340 q 315 384 315 363 q 308 423 314 406 q 292 451 303 440 q 260 461 281 461 q 215 446 228 461 q 200 407 203 431 q 181 365 196 376 q 156 354 167 354 l 50 354 q 67 419 56 388 q 101 476 78 451 q 163 517 125 501 q 258 532 200 532 q 353 517 317 532 q 408 475 389 501 q 434 413 428 449 q 440 335 440 376 l 440 1 m 315 231 q 274 227 299 231 q 228 215 250 224 q 192 189 207 206 q 176 143 176 172 q 191 98 176 115 q 229 81 206 81 q 292 111 269 81 q 315 188 315 142 l 315 231 m 724 414 q 740 449 732 431 q 760 481 749 467 q 785 506 771 496 q 821 515 800 515 q 899 482 869 515 q 940 411 929 449 q 958 453 950 433 q 978 486 967 472 q 1004 508 989 500 q 1040 515 1019 515 q 1102 493 1081 515 q 1134 439 1124 471 q 1146 370 1144 407 q 1147 303 1147 333 l 1147 -14 l 1038 -14 l 1038 288 q 1035 328 1038 307 q 1028 365 1033 349 q 1015 393 1024 382 q 992 404 1006 404 q 965 388 975 404 q 951 347 956 371 q 944 294 946 322 q 943 243 943 267 l 943 -14 l 831 -14 l 831 269 q 829 320 831 296 q 823 363 828 344 q 809 393 818 382 q 786 404 800 404 q 758 390 769 404 q 738 353 746 375 q 726 305 731 331 q 722 257 722 279 l 722 -14 l 611 -14 l 611 417 q 576 518 611 485 l 686 518 q 713 504 703 518 q 724 467 724 490 l 724 414 z "},"㏘":{"ha":1319,"x_min":22,"x_max":1303,"o":"m 606 53 q 587 4 606 24 q 542 -15 568 -15 q 497 4 515 -15 q 478 53 478 24 q 497 100 478 81 q 542 119 515 119 q 587 100 568 119 q 606 53 606 81 m 371 269 q 369 326 371 296 q 358 381 367 356 q 331 424 349 407 q 283 440 314 440 q 235 421 253 440 q 208 374 217 401 q 196 317 199 347 q 193 268 193 288 l 193 228 q 197 183 193 208 q 210 135 200 157 q 238 97 219 113 q 285 82 256 82 q 331 101 314 82 q 358 148 349 119 q 369 209 367 176 q 371 269 371 242 m 194 463 q 247 513 217 490 q 318 535 278 535 q 404 513 369 535 q 461 454 439 490 q 493 369 483 418 q 503 269 503 321 q 495 170 503 219 q 467 81 488 121 q 409 15 446 40 q 314 -10 372 -10 q 238 7 265 -10 q 193 47 211 24 l 193 -162 l 67 -162 l 67 421 q 58 481 67 456 q 22 525 50 507 l 150 525 q 180 511 167 525 q 193 474 193 497 l 194 463 m 1303 53 q 1284 4 1303 24 q 1239 -15 1265 -15 q 1194 4 1213 -15 q 1175 53 1175 24 q 1194 100 1175 81 q 1239 119 1213 119 q 1284 100 1265 119 q 1303 53 1303 81 m 736 414 q 753 449 744 431 q 772 481 761 467 q 798 506 783 496 q 833 515 813 515 q 912 482 882 515 q 953 411 942 449 q 971 453 963 433 q 990 486 979 472 q 1017 508 1001 500 q 1053 515 1032 515 q 1115 493 1093 515 q 1147 439 1136 471 q 1158 370 1157 407 q 1160 303 1160 333 l 1160 -14 l 1050 -14 l 1050 288 q 1048 328 1050 307 q 1041 365 1046 349 q 1027 393 1036 382 q 1004 404 1018 404 q 978 388 988 404 q 963 347 968 371 q 957 294 958 322 q 956 243 956 267 l 956 -14 l 843 -14 l 843 269 q 842 320 843 296 q 835 363 840 344 q 822 393 831 382 q 799 404 813 404 q 770 390 782 404 q 751 353 758 375 q 739 305 743 331 q 735 257 735 279 l 735 -14 l 624 -14 l 624 417 q 589 518 624 485 l 699 518 q 726 504 715 518 q 736 467 736 490 l 736 414 z "},"℡":{"ha":1319,"x_min":60,"x_max":1217,"o":"m 404 801 l 404 14 l 247 14 l 247 801 l 60 801 l 60 933 l 593 933 l 593 801 l 404 801 m 1060 789 q 1046 872 1060 836 q 996 932 1032 908 l 1153 932 q 1198 913 1179 932 q 1217 861 1217 893 l 1217 14 l 1060 14 l 1060 789 m 646 363 q 658 278 647 321 q 691 201 668 235 q 750 144 714 167 q 840 122 786 122 q 908 131 876 122 q 961 151 939 139 l 961 47 q 872 20 914 31 q 786 10 829 10 q 567 98 644 10 q 490 354 490 186 q 561 572 490 496 q 754 647 632 647 q 875 618 831 647 q 942 546 919 589 q 972 453 965 503 q 979 363 979 404 l 646 363 m 835 458 q 830 490 833 472 q 818 522 826 507 q 794 548 810 538 q 750 558 778 558 q 706 548 725 558 q 674 523 686 538 q 654 490 661 508 q 646 458 647 472 l 835 458 z "},"€":{"ha":1044,"x_min":74,"x_max":957,"o":"m 957 942 l 947 781 q 706 822 835 822 q 417 647 492 822 l 893 647 l 833 500 l 386 500 q 386 413 381 457 l 811 413 l 757 265 l 413 265 q 719 79 483 79 q 946 124 857 79 l 956 -29 q 719 -72 864 -72 q 408 14 535 -72 q 236 265 279 103 l 74 265 l 128 413 l 217 413 q 217 500 210 451 l 79 500 l 133 647 l 240 647 q 418 893 286 804 q 726 981 549 981 q 957 942 869 981 z "},"®":{"ha":1319,"x_min":142,"x_max":1178,"o":"m 1178 417 q 1024 50 1178 201 q 658 -100 874 -100 q 292 53 443 -100 q 142 417 142 203 q 293 782 142 629 q 658 935 444 935 q 1022 786 872 935 q 1178 417 1178 632 m 1118 417 q 984 741 1118 607 q 658 875 850 875 q 335 741 469 875 q 201 417 201 607 q 337 93 201 228 q 658 -42 472 -42 q 984 92 850 -42 q 1118 417 1118 226 m 911 106 l 835 106 l 708 390 l 525 390 l 525 106 l 461 106 l 461 749 l 710 749 q 842 703 793 749 q 890 579 890 657 q 774 406 890 444 l 911 106 m 828 571 q 707 690 828 690 l 525 690 l 525 450 l 675 450 q 828 571 828 450 z "},"！":{"ha":1319,"x_min":547,"x_max":772,"o":"m 657 974 q 760 838 768 974 l 715 233 l 610 233 l 561 839 q 578 937 557 900 q 657 974 599 974 m 772 11 q 739 -69 772 -37 q 660 -100 706 -100 q 581 -69 614 -100 q 547 11 547 -37 q 581 87 547 56 q 658 118 614 118 q 701 110 681 118 q 737 88 721 101 q 763 53 753 74 q 772 11 772 33 z "},"＂":{"ha":1319,"x_min":499,"x_max":821,"o":"m 629 638 q 619 580 629 599 q 579 561 608 561 l 499 561 l 499 1011 l 629 1011 l 629 638 m 821 638 q 810 580 821 599 q 772 561 800 561 l 690 561 l 690 1011 l 821 1011 l 821 638 z "},"＃":{"ha":1319,"x_min":285,"x_max":1035,"o":"m 913 699 l 972 921 l 819 921 l 760 699 l 672 699 l 731 921 l 578 921 l 519 699 l 396 699 l 360 564 l 483 564 l 443 419 l 319 419 l 285 285 l 407 285 l 336 26 l 489 26 l 560 285 l 647 285 l 579 26 l 732 26 l 800 285 l 924 285 l 960 419 l 838 419 l 878 564 l 1000 564 l 1035 699 l 913 699 m 683 419 l 597 419 l 636 564 l 725 564 l 683 419 z "},"＄":{"ha":1319,"x_min":322,"x_max":997,"o":"m 704 -192 l 606 -192 l 601 -96 q 497 -90 551 -94 q 401 -76 442 -86 q 361 -65 379 -71 q 326 -47 343 -58 l 335 126 q 386 97 356 114 q 452 65 417 81 q 526 36 488 49 q 604 21 565 24 l 604 358 q 504 410 554 383 q 413 474 454 438 q 347 558 372 510 q 322 676 322 607 q 396 865 322 796 q 604 944 469 933 l 604 1025 l 704 1025 l 704 949 q 806 940 758 946 q 888 926 853 933 q 906 924 896 925 q 924 921 917 922 l 924 760 q 830 797 888 775 q 704 828 772 818 l 704 533 q 712 529 707 531 q 719 526 717 528 q 817 475 768 503 q 907 410 867 447 q 972 325 947 374 q 997 210 997 276 q 975 85 997 138 q 913 -5 953 32 q 820 -62 874 -42 q 704 -90 767 -82 l 704 -192 m 810 164 q 777 245 810 211 q 704 306 744 279 l 704 29 q 781 70 751 39 q 810 164 810 101 m 514 715 q 539 642 514 671 q 604 589 564 613 l 604 828 q 539 790 564 818 q 514 715 514 763 z "},"％":{"ha":1319,"x_min":33,"x_max":1289,"o":"m 957 969 l 506 -115 l 361 -115 l 814 969 l 957 969 m 33 614 q 53 724 33 672 q 110 815 74 776 q 194 876 146 854 q 299 899 242 899 q 403 876 354 899 q 488 815 451 854 q 544 724 524 776 q 564 614 564 672 q 544 503 564 556 q 488 413 524 451 q 403 351 451 374 q 299 329 354 329 q 194 351 242 329 q 110 413 146 374 q 53 503 74 451 q 33 614 33 556 m 169 614 q 205 502 169 547 q 299 457 240 457 q 392 502 356 457 q 428 614 428 547 q 418 674 428 646 q 391 724 408 703 q 350 758 374 746 q 299 771 326 771 q 205 725 240 771 q 169 614 169 679 m 758 249 q 778 359 758 307 q 835 450 799 411 q 919 511 871 489 q 1024 533 967 533 q 1128 511 1079 533 q 1213 450 1176 489 q 1269 359 1249 411 q 1289 249 1289 307 q 1269 138 1289 190 q 1213 47 1249 86 q 1128 -14 1176 8 q 1024 -36 1079 -36 q 919 -14 967 -36 q 835 47 871 8 q 778 138 799 86 q 758 249 758 190 m 894 249 q 930 137 894 182 q 1024 92 965 92 q 1117 137 1081 92 q 1153 249 1153 182 q 1143 309 1153 281 q 1116 359 1133 338 q 1075 393 1099 381 q 1024 406 1051 406 q 930 360 965 406 q 894 249 894 314 z "},"＆":{"ha":1319,"x_min":111,"x_max":1207,"o":"m 957 -68 l 849 39 q 692 -59 778 -31 q 492 -87 606 -87 q 334 -68 404 -87 q 214 -11 264 -49 q 138 81 164 26 q 111 206 111 135 q 134 308 111 260 q 195 396 157 356 q 283 466 233 436 q 389 514 333 496 q 340 565 364 539 q 297 619 315 592 q 268 677 279 647 q 257 740 257 707 q 281 840 257 794 q 346 917 304 885 q 444 968 388 950 q 567 986 501 986 q 683 970 628 986 q 781 923 739 954 q 847 846 822 892 q 872 739 872 800 q 855 655 872 694 q 808 583 838 615 q 738 526 778 551 q 653 483 699 500 l 840 283 q 863 342 851 307 q 869 426 875 378 l 1068 426 q 1032 290 1057 360 q 964 167 1007 219 l 1207 -68 l 957 -68 m 499 35 q 586 47 546 35 q 658 76 626 58 q 713 115 690 94 q 749 151 736 135 l 488 429 q 428 399 458 418 q 372 354 397 381 q 330 294 346 328 q 314 219 314 261 q 363 86 314 138 q 499 35 411 35 m 690 744 q 660 832 690 794 q 571 869 631 869 q 476 835 514 869 q 439 749 439 800 q 450 701 439 724 q 478 658 461 679 q 515 618 494 638 q 554 581 535 599 q 652 646 614 608 q 690 744 690 683 z "},"＇":{"ha":1319,"x_min":594,"x_max":725,"o":"m 725 638 q 715 580 725 599 q 676 561 704 561 l 594 561 l 594 1011 l 725 1011 l 725 638 z "},"（":{"ha":1319,"x_min":829,"x_max":1181,"o":"m 1181 -219 q 983 -151 1053 -204 q 878 -14 913 -99 q 836 185 843 71 q 829 439 829 299 q 839 706 829 593 q 885 898 849 819 q 991 1024 921 976 q 1181 1092 1061 1071 l 1181 982 q 1094 921 1126 964 q 1046 810 1063 878 q 1024 649 1029 743 q 1018 438 1018 556 q 1021 222 1018 314 q 1040 63 1024 129 q 1088 -47 1056 -4 q 1181 -115 1121 -90 l 1181 -219 z "},"）":{"ha":1319,"x_min":139,"x_max":492,"o":"m 492 439 q 484 185 492 299 q 442 -14 476 71 q 337 -151 408 -99 q 139 -219 265 -204 l 139 -115 q 231 -47 197 -90 q 279 63 264 -4 q 298 222 294 129 q 301 438 301 314 q 296 649 301 556 q 273 810 290 743 q 224 921 256 878 q 139 982 192 964 l 139 1092 q 327 1024 257 1071 q 434 899 397 978 q 481 706 471 819 q 492 439 492 593 z "},"＊":{"ha":1319,"x_min":433,"x_max":885,"o":"m 885 872 l 749 842 l 856 943 l 699 1024 l 658 878 l 618 1025 l 458 938 l 579 840 l 433 872 l 433 708 l 571 740 l 463 640 l 622 557 l 658 699 l 697 556 l 850 643 l 749 740 l 885 708 l 885 872 z "},"＋":{"ha":1319,"x_min":290,"x_max":1028,"o":"m 1028 532 l 738 532 l 738 813 l 582 813 l 582 532 l 290 532 l 290 388 l 582 388 l 582 81 l 738 81 l 738 388 l 1028 388 l 1028 532 z "},"，":{"ha":1319,"x_min":528,"x_max":792,"o":"m 792 -71 q 762 -203 792 -146 q 692 -311 732 -261 q 672 -335 683 -322 q 650 -358 660 -349 l 528 -358 q 565 -313 544 -339 q 604 -261 586 -287 q 635 -210 622 -235 q 647 -165 647 -185 q 619 -157 647 -164 q 569 -126 592 -154 q 546 -49 546 -97 q 582 37 546 4 q 667 69 618 69 q 717 58 694 69 q 757 28 740 47 q 783 -17 774 8 q 792 -71 792 -42 z "},"－":{"ha":1319,"x_min":389,"x_max":931,"o":"m 931 535 l 389 535 l 389 385 l 931 385 l 931 535 z "},"．":{"ha":1319,"x_min":538,"x_max":782,"o":"m 782 -43 q 772 -90 782 -68 q 746 -128 763 -111 q 707 -153 729 -144 q 660 -162 685 -162 q 613 -153 635 -162 q 574 -128 590 -144 q 547 -90 557 -112 q 538 -43 538 -68 q 574 42 538 7 q 660 78 610 78 q 747 42 711 78 q 782 -43 782 7 z "},"／":{"ha":1319,"x_min":415,"x_max":903,"o":"m 751 1081 l 415 -196 l 567 -196 l 903 1081 l 751 1081 z "},"０":{"ha":1319,"x_min":303,"x_max":1015,"o":"m 1015 449 q 997 234 1015 332 q 936 66 978 136 q 826 -44 894 -4 q 660 -83 758 -83 q 497 -44 565 -83 q 386 67 429 -4 q 323 235 343 138 q 303 449 303 332 q 323 658 303 563 q 386 823 343 754 q 497 931 429 892 q 658 969 564 969 q 825 930 757 969 q 935 820 893 890 q 997 655 978 750 q 1015 449 1015 560 m 814 450 q 808 589 814 517 q 786 721 803 661 q 739 819 769 781 q 658 858 708 858 q 581 819 611 858 q 534 721 551 781 q 510 589 517 661 q 504 450 504 517 q 510 301 504 376 q 532 165 515 226 q 579 66 549 104 q 660 28 610 28 q 740 66 710 28 q 787 165 771 104 q 808 301 803 226 q 814 450 814 376 z "},"１":{"ha":1319,"x_min":488,"x_max":831,"o":"m 831 -67 l 642 -67 l 642 708 q 638 753 642 736 q 619 777 635 769 q 573 783 604 785 q 488 774 542 782 l 488 856 l 738 953 l 831 953 l 831 -67 z "},"２":{"ha":1319,"x_min":325,"x_max":993,"o":"m 978 -74 l 325 -74 l 325 79 l 500 218 q 651 353 585 286 q 754 474 718 421 q 789 549 776 511 q 801 651 801 586 q 789 713 801 682 q 755 766 776 743 q 702 803 733 789 q 633 818 671 818 q 522 776 581 818 q 410 675 463 735 l 329 733 q 488 904 397 839 q 699 969 579 969 q 827 944 772 969 q 919 874 882 918 q 974 774 956 831 q 993 658 993 718 q 976 536 993 597 q 929 425 960 475 q 858 331 899 378 q 771 238 817 283 q 676 152 725 193 q 581 78 628 111 l 978 78 l 978 -74 z "},"３":{"ha":1319,"x_min":343,"x_max":976,"o":"m 976 240 q 945 108 976 167 q 860 6 914 49 q 733 -60 806 -37 q 579 -83 661 -83 q 467 -72 524 -83 q 351 -42 410 -61 l 351 76 q 426 54 389 63 q 497 46 463 46 q 706 107 638 46 q 774 260 774 168 q 746 349 774 317 q 678 395 718 381 q 593 413 638 410 q 515 415 549 415 l 515 526 q 583 528 543 526 q 659 543 622 531 q 722 585 696 556 q 747 668 747 614 q 737 736 747 708 q 708 782 726 764 q 667 808 690 800 q 618 815 643 815 q 563 806 590 815 q 510 783 535 797 q 462 753 485 769 q 422 722 439 736 l 343 783 q 392 842 361 810 q 463 903 422 875 q 552 950 503 931 q 656 969 601 969 q 771 951 718 969 q 863 897 824 932 q 924 811 901 861 q 946 699 946 761 q 910 566 946 622 q 818 476 874 510 q 880 444 851 464 q 930 397 908 425 q 964 330 951 368 q 976 240 976 292 z "},"４":{"ha":1319,"x_min":274,"x_max":1044,"o":"m 1044 158 l 881 158 l 881 -67 l 690 -67 l 690 158 l 361 158 q 294 181 315 158 q 274 238 274 203 q 296 308 274 272 l 701 953 l 881 953 l 881 317 l 1044 317 l 1044 158 m 690 317 l 690 686 l 467 317 l 690 317 z "},"５":{"ha":1319,"x_min":328,"x_max":990,"o":"m 990 274 q 959 102 990 169 q 874 -5 928 35 q 747 -60 819 -44 q 594 -76 675 -76 q 460 -62 526 -76 q 328 -28 393 -47 l 328 94 q 431 74 383 81 q 524 67 479 67 q 633 75 582 67 q 722 108 683 83 q 781 176 760 133 q 803 288 803 219 q 795 356 803 321 q 772 420 788 392 q 732 467 756 449 q 675 485 708 485 q 651 482 667 485 q 616 474 635 479 q 578 458 597 468 q 546 433 560 447 q 517 409 532 418 q 469 400 501 400 l 356 400 l 379 960 l 940 960 l 940 821 l 557 821 l 544 554 q 613 591 576 578 q 689 604 649 604 q 803 580 749 604 q 900 512 858 556 q 966 407 942 468 q 990 274 990 346 z "},"６":{"ha":1319,"x_min":307,"x_max":1014,"o":"m 1014 258 q 988 115 1014 179 q 916 8 963 51 q 804 -60 869 -36 q 660 -83 739 -83 q 500 -53 567 -83 q 390 31 433 -22 q 327 158 347 85 q 307 318 307 232 q 337 534 307 431 q 427 722 367 638 q 576 866 488 806 q 783 953 665 926 q 838 961 808 957 q 903 967 868 965 l 925 871 q 774 813 842 851 q 653 726 706 775 q 567 619 601 676 q 518 506 533 563 q 615 549 560 532 q 722 565 669 565 q 844 542 790 565 q 936 476 899 518 q 994 378 974 435 q 1014 258 1014 322 m 831 240 q 822 315 831 279 q 792 378 813 351 q 738 422 771 406 q 657 439 704 439 q 606 433 631 439 q 561 417 582 426 q 525 396 540 407 q 503 375 510 385 q 496 324 499 351 q 493 272 493 297 q 503 182 493 225 q 533 106 513 139 q 585 53 554 72 q 661 33 617 33 q 785 88 740 33 q 831 240 831 142 z "},"７":{"ha":1319,"x_min":336,"x_max":983,"o":"m 653 -67 l 446 -67 l 744 774 q 743 808 751 793 q 710 824 735 824 l 336 824 l 336 954 l 874 954 q 958 943 932 954 q 983 890 983 932 q 964 811 983 858 l 965 811 l 653 -67 z "},"８":{"ha":1319,"x_min":300,"x_max":1018,"o":"m 1018 219 q 992 89 1018 146 q 920 -6 967 32 q 808 -64 874 -44 q 661 -83 742 -83 q 514 -64 581 -83 q 400 -6 447 -44 q 326 89 353 32 q 300 219 300 146 q 346 381 300 318 q 461 476 392 444 q 419 508 439 489 q 383 556 399 528 q 357 622 367 585 q 347 706 347 658 q 373 822 347 772 q 442 905 399 872 q 542 953 485 938 q 660 969 599 969 q 777 953 721 969 q 876 905 833 938 q 945 822 919 872 q 971 706 971 772 q 961 622 971 658 q 935 556 951 585 q 899 508 919 528 q 857 476 879 489 q 972 381 926 444 q 1018 219 1018 318 m 817 219 q 808 291 817 256 q 780 355 799 326 q 732 401 761 383 q 661 419 703 419 q 589 401 619 419 q 539 355 558 383 q 510 291 519 326 q 501 219 501 256 q 511 149 501 183 q 540 89 521 115 q 588 46 558 63 q 657 29 617 29 q 726 46 696 29 q 776 89 757 63 q 806 149 796 115 q 817 219 817 183 m 781 706 q 749 813 781 768 q 660 858 718 858 q 569 813 601 858 q 538 706 538 768 q 545 645 538 675 q 567 591 553 615 q 604 551 582 567 q 657 536 626 536 q 710 551 688 536 q 749 591 733 567 q 773 645 765 615 q 781 706 781 675 z "},"９":{"ha":1319,"x_min":306,"x_max":1011,"o":"m 1011 511 q 973 297 1011 400 q 868 114 935 194 q 708 -19 801 33 q 504 -83 615 -71 q 458 -85 481 -86 q 418 -83 435 -85 l 397 22 q 573 69 500 31 q 694 160 646 107 q 767 276 742 214 q 803 394 793 338 q 723 343 768 364 q 601 322 678 322 q 387 400 468 322 q 306 625 306 478 q 330 765 306 701 q 400 874 354 828 q 510 944 446 919 q 656 969 575 969 q 821 932 753 969 q 931 831 889 894 q 992 684 974 767 q 1011 511 1011 601 m 813 596 q 807 679 813 633 q 784 765 801 725 q 735 831 767 804 q 650 858 703 858 q 578 837 608 858 q 530 782 549 815 q 502 708 511 749 q 493 629 493 667 q 506 542 493 579 q 542 481 519 506 q 592 446 564 457 q 651 435 621 435 q 713 447 686 435 q 758 475 739 458 q 791 510 778 492 q 811 540 804 528 q 813 566 813 553 q 813 596 813 579 z "},"：":{"ha":1319,"x_min":525,"x_max":793,"o":"m 792 225 q 781 174 792 197 q 752 133 771 151 q 709 106 733 115 q 658 96 685 96 q 608 106 632 96 q 566 133 585 115 q 536 174 547 151 q 525 225 525 197 q 535 276 525 251 q 565 317 546 300 q 607 345 583 335 q 658 356 631 356 q 709 345 685 356 q 752 317 733 335 q 781 276 771 300 q 792 225 792 251 m 793 732 q 783 681 793 704 q 753 640 772 658 q 710 613 735 622 q 660 603 686 603 q 610 613 633 603 q 567 640 586 622 q 538 681 549 658 q 526 732 526 704 q 537 783 526 758 q 566 824 547 807 q 608 852 585 842 q 660 863 632 863 q 710 852 686 863 q 753 824 735 842 q 783 783 772 807 q 793 732 793 758 z "},"；":{"ha":1319,"x_min":518,"x_max":800,"o":"m 800 732 q 790 681 800 704 q 760 640 779 658 q 717 613 742 622 q 667 603 693 603 q 617 613 640 603 q 574 640 593 622 q 544 681 556 658 q 533 732 533 704 q 544 783 533 758 q 573 824 554 807 q 615 852 592 842 q 667 863 639 863 q 717 852 693 863 q 760 824 742 842 q 790 783 779 807 q 800 732 800 758 m 788 192 q 755 56 788 117 q 682 -54 722 -4 q 662 -78 674 -65 q 640 -101 650 -92 l 518 -101 q 557 -56 535 -82 q 598 -1 579 -29 q 630 52 617 26 q 643 97 643 78 q 615 106 643 99 q 565 137 588 108 q 542 214 542 165 q 578 299 542 267 q 663 332 614 332 q 713 321 690 332 q 753 290 736 310 q 778 246 769 271 q 788 192 788 221 z "},"＜":{"ha":1319,"x_min":281,"x_max":1039,"o":"m 1039 164 l 493 439 l 1039 713 l 1039 901 l 281 504 l 281 374 l 1039 -24 l 1039 164 z "},"＝":{"ha":1319,"x_min":318,"x_max":1000,"o":"m 1000 703 l 318 703 l 318 549 l 1000 549 l 1000 703 m 1000 356 l 318 356 l 318 201 l 1000 201 l 1000 356 z "},"＞":{"ha":1319,"x_min":281,"x_max":1039,"o":"m 1039 504 l 281 901 l 281 713 l 826 439 l 281 164 l 281 -24 l 1039 374 l 1039 504 z "},"？":{"ha":1319,"x_min":356,"x_max":963,"o":"m 963 743 q 951 661 963 697 q 922 597 940 625 q 883 546 904 568 q 844 507 863 524 l 846 507 q 713 378 779 440 q 673 317 682 346 q 664 242 664 288 l 664 194 l 546 194 l 546 322 q 549 397 546 368 q 560 447 551 425 q 586 488 569 468 q 629 535 603 507 q 671 576 650 556 q 711 619 692 597 q 758 685 739 651 q 778 760 778 719 q 751 842 778 808 q 668 875 724 875 q 584 853 611 875 q 550 767 557 831 q 523 694 543 711 q 479 679 503 678 l 357 685 q 430 912 356 832 q 665 992 504 992 q 782 976 728 992 q 876 928 836 960 q 940 851 917 897 q 963 743 963 804 m 724 7 q 690 -73 724 -42 q 611 -104 657 -104 q 532 -73 565 -104 q 499 7 499 -42 q 532 83 499 51 q 610 114 565 114 q 652 106 632 114 q 688 83 672 97 q 714 49 704 69 q 724 7 724 29 z "},"＠":{"ha":1319,"x_min":69,"x_max":1249,"o":"m 1249 533 q 1213 344 1249 432 q 1118 192 1176 257 q 985 90 1060 128 q 835 53 911 53 q 755 79 779 53 q 721 138 731 106 q 642 81 685 101 q 547 61 599 61 q 469 76 506 61 q 404 119 432 90 q 360 190 376 147 q 344 290 344 233 q 377 459 344 372 q 464 617 410 546 q 587 735 518 689 q 728 781 656 781 q 820 759 781 781 q 890 689 860 738 l 914 746 l 1071 746 l 893 301 q 867 234 878 265 q 854 192 856 203 q 883 175 851 174 q 965 201 919 176 q 1049 271 1010 225 q 1115 383 1089 317 q 1142 533 1142 449 q 1109 689 1142 621 q 1019 804 1076 757 q 887 876 963 851 q 726 901 811 901 q 514 865 611 901 q 347 759 417 828 q 237 592 276 690 q 197 369 197 493 q 230 213 197 288 q 324 81 263 138 q 472 -10 385 24 q 671 -44 560 -44 q 892 -8 785 -44 q 1083 104 1000 29 l 1153 47 q 1088 -8 1133 26 q 979 -76 1043 -43 q 835 -132 915 -108 q 665 -156 756 -156 q 426 -115 536 -156 q 238 -4 317 -75 q 114 163 158 67 q 69 368 69 258 q 120 640 69 519 q 260 846 171 761 q 467 976 349 931 q 721 1021 585 1021 q 927 985 831 1021 q 1095 885 1024 950 q 1208 731 1167 821 q 1249 533 1249 642 m 832 611 q 813 656 832 635 q 758 678 794 678 q 694 654 726 678 q 631 593 661 631 q 575 508 601 556 q 529 411 549 460 q 499 317 510 363 q 488 240 488 272 q 511 185 488 201 q 571 168 535 168 q 642 191 613 168 q 693 244 672 214 q 748 343 722 286 q 793 455 774 400 q 823 553 813 510 q 832 611 833 596 z "},"Ａ":{"ha":1319,"x_min":201,"x_max":1118,"o":"m 1118 -68 l 914 -68 l 806 238 l 472 238 l 361 -69 l 201 -69 l 510 768 q 517 790 513 776 q 526 817 522 803 q 533 844 531 831 q 536 868 536 858 q 530 923 536 892 q 490 975 524 954 l 646 975 q 715 955 690 975 q 756 897 740 935 l 1118 -68 m 754 372 l 638 700 l 522 372 l 754 372 z "},"Ｂ":{"ha":1319,"x_min":257,"x_max":1061,"o":"m 1061 219 q 1038 99 1061 149 q 975 17 1014 50 q 888 -33 936 -15 q 790 -58 839 -50 q 696 -68 742 -67 q 618 -69 650 -69 l 324 -69 l 324 831 q 310 914 324 878 q 257 974 296 950 l 639 974 q 783 963 715 974 q 902 924 851 953 q 982 844 953 896 q 1011 710 1011 793 q 1000 631 1011 665 q 971 569 989 596 q 929 522 953 542 q 882 489 906 503 q 951 456 918 476 q 1008 404 983 436 q 1047 327 1032 372 q 1061 219 1061 282 m 865 247 q 847 328 865 294 q 798 382 829 361 q 726 412 767 403 q 638 421 685 421 l 515 421 l 515 94 q 523 69 515 81 q 546 54 531 58 q 595 49 565 50 q 644 49 625 49 q 814 97 763 49 q 865 247 865 146 m 815 703 q 765 820 815 789 q 617 851 714 851 q 565 850 585 851 q 535 844 546 849 q 519 828 524 839 q 515 800 515 818 l 515 546 l 600 546 q 685 553 646 546 q 753 577 725 560 q 799 625 782 594 q 815 703 815 656 z "},"Ｃ":{"ha":1319,"x_min":250,"x_max":1068,"o":"m 921 714 q 877 726 903 714 q 840 775 851 738 q 826 807 836 790 q 799 837 817 824 q 756 858 782 850 q 692 867 729 867 q 581 828 625 867 q 509 734 536 790 q 471 612 482 678 q 460 492 460 546 q 463 402 460 451 q 477 302 467 353 q 507 203 488 251 q 558 118 526 156 q 638 58 590 81 q 750 36 685 36 q 824 44 785 36 q 900 67 863 53 q 973 101 938 82 q 1038 142 1008 119 l 1051 -18 q 977 -43 1019 -31 q 888 -65 935 -56 q 792 -81 840 -75 q 704 -86 744 -86 q 504 -49 589 -86 q 363 60 419 -11 q 278 232 306 131 q 250 463 250 333 q 274 665 250 569 q 351 833 297 761 q 490 947 404 904 q 700 989 575 989 q 843 974 782 989 q 947 931 904 958 q 1015 867 989 904 q 1054 785 1042 829 q 1062 755 1058 771 q 1068 721 1065 739 l 921 714 z "},"Ｄ":{"ha":1319,"x_min":219,"x_max":1099,"o":"m 894 451 q 885 619 894 544 q 845 744 876 693 q 755 823 814 796 q 594 850 696 850 q 511 840 535 850 q 488 794 488 831 l 488 125 q 489 95 488 108 q 499 72 490 82 q 524 57 507 63 q 575 51 542 51 q 735 74 672 51 q 833 145 797 97 q 881 269 868 193 q 894 451 894 344 m 581 974 q 785 954 690 974 q 949 878 879 935 q 1059 720 1019 822 q 1099 454 1099 618 q 1077 246 1099 332 q 1017 101 1056 160 q 926 9 979 43 q 810 -42 874 -25 q 676 -65 747 -60 q 529 -69 604 -69 l 286 -69 l 286 831 q 272 914 286 878 q 219 974 258 950 l 581 974 z "},"Ｅ":{"ha":1319,"x_min":311,"x_max":1008,"o":"m 378 -69 l 378 831 q 364 914 378 878 q 311 974 350 950 l 985 974 l 985 842 l 654 842 q 590 833 606 842 q 574 790 574 825 l 574 538 l 942 538 l 942 411 l 574 411 l 574 119 q 577 85 574 97 q 590 67 581 74 q 614 60 599 61 q 654 58 629 58 l 1008 58 l 1008 -69 l 378 -69 z "},"Ｆ":{"ha":1319,"x_min":322,"x_max":996,"o":"m 389 831 q 375 914 389 878 q 322 974 361 950 l 996 974 l 996 842 l 665 842 q 601 833 617 842 q 585 790 585 825 l 585 538 l 953 538 l 953 411 l 585 411 l 585 -69 l 389 -69 l 389 831 z "},"Ｇ":{"ha":1319,"x_min":247,"x_max":1072,"o":"m 1072 -18 q 1006 -40 1047 -28 q 915 -62 964 -51 q 811 -79 865 -72 q 707 -86 757 -86 q 492 -45 579 -86 q 350 69 404 -4 q 272 244 296 143 q 247 465 247 344 q 272 676 247 579 q 351 842 297 772 q 492 950 406 911 q 699 989 578 989 q 841 973 781 989 q 943 929 901 957 q 1010 863 985 901 q 1049 781 1036 825 q 1055 756 1051 774 q 1061 717 1058 738 l 904 717 q 867 729 888 717 q 836 771 847 742 q 819 805 829 789 q 791 833 808 821 q 747 853 774 846 q 681 861 719 861 q 574 824 617 861 q 505 727 531 786 q 468 596 479 668 q 457 454 457 524 q 469 303 457 376 q 515 171 482 229 q 602 77 547 113 q 740 42 657 42 q 816 50 775 42 q 879 74 857 58 l 879 333 q 863 410 879 374 q 811 474 847 446 l 1000 474 q 1054 450 1036 474 q 1072 393 1072 426 l 1072 -18 z "},"Ｈ":{"ha":1319,"x_min":242,"x_max":1078,"o":"m 438 974 q 485 954 465 974 q 504 903 504 935 l 504 538 l 883 538 l 883 974 l 1078 974 l 1078 -69 l 883 -69 l 883 411 l 504 411 l 504 -69 l 308 -69 l 308 831 q 294 914 308 878 q 242 974 281 950 l 438 974 z "},"Ｉ":{"ha":1319,"x_min":528,"x_max":792,"o":"m 594 831 q 581 914 594 878 q 528 974 567 950 l 725 974 q 772 954 753 974 q 792 903 792 935 l 792 -69 l 594 -69 l 594 831 z "},"Ｊ":{"ha":1319,"x_min":382,"x_max":936,"o":"m 739 831 q 725 914 739 878 q 672 974 711 950 l 867 974 q 915 954 894 974 q 936 903 936 935 l 936 269 q 924 133 936 197 q 879 19 913 68 q 785 -58 846 -29 q 626 -86 724 -86 q 513 -69 557 -86 q 440 -21 468 -51 q 399 49 413 10 q 382 133 386 89 l 569 149 q 574 114 571 133 q 584 78 576 94 q 606 49 592 61 q 646 38 621 38 q 692 49 674 38 q 720 88 710 61 q 735 160 731 115 q 739 269 739 204 l 739 831 z "},"Ｋ":{"ha":1319,"x_min":242,"x_max":1078,"o":"m 504 521 l 868 974 l 1053 974 l 669 496 l 1078 -69 l 839 -69 l 504 404 l 504 -71 l 308 -71 l 308 831 q 294 914 308 878 q 242 974 281 950 l 438 974 q 485 954 465 974 q 504 903 504 935 l 504 521 z "},"Ｌ":{"ha":1319,"x_min":306,"x_max":1014,"o":"m 571 140 q 588 72 571 88 q 657 57 604 57 l 1014 57 l 1014 -69 l 372 -69 l 372 831 q 358 914 372 878 q 306 974 344 950 l 504 974 q 551 954 532 974 q 571 903 571 935 l 571 140 z "},"Ｍ":{"ha":1319,"x_min":114,"x_max":1206,"o":"m 324 974 q 386 953 357 974 q 429 897 415 933 l 679 240 l 961 974 l 1206 974 l 1206 -69 l 1019 -69 l 1018 724 l 724 -69 l 600 -69 l 324 682 l 325 -69 l 181 -69 l 181 831 q 167 914 181 878 q 114 974 153 950 l 324 974 z "},"Ｎ":{"ha":1319,"x_min":226,"x_max":1092,"o":"m 410 974 q 471 957 436 974 q 525 910 506 940 l 938 231 l 938 972 l 1092 972 l 1092 -69 l 897 -69 l 438 696 l 438 -69 l 293 -69 l 293 831 q 279 914 293 878 q 226 974 265 950 l 410 974 z "},"Ｏ":{"ha":1319,"x_min":219,"x_max":1099,"o":"m 1099 449 q 1074 228 1099 326 q 996 59 1049 129 q 860 -49 943 -11 q 660 -86 776 -86 q 458 -49 542 -86 q 322 58 375 -11 q 244 226 268 128 q 219 449 219 325 q 242 672 219 572 q 317 842 265 772 q 452 951 368 913 q 657 989 536 989 q 857 951 774 989 q 994 842 940 913 q 1074 672 1049 772 q 1099 449 1099 572 m 897 449 q 888 592 897 518 q 851 726 878 665 q 777 826 824 788 q 657 865 731 865 q 535 827 582 865 q 463 728 489 789 q 429 594 438 668 q 421 449 421 521 q 431 310 421 382 q 467 178 440 238 q 540 79 493 118 q 660 40 586 40 q 781 78 735 40 q 853 176 828 117 q 888 308 879 236 q 897 449 897 381 z "},"Ｐ":{"ha":1319,"x_min":294,"x_max":1025,"o":"m 829 683 q 815 770 829 736 q 775 823 801 804 q 710 849 749 842 q 625 856 672 856 q 565 838 575 856 q 556 786 556 821 l 556 496 l 618 496 q 698 503 660 496 q 765 530 736 510 q 812 587 794 550 q 829 683 829 624 m 700 974 q 832 956 772 974 q 935 901 892 938 q 1001 809 978 864 q 1025 681 1025 754 q 985 503 1025 567 q 882 410 944 440 q 743 372 819 379 q 593 365 667 365 l 557 365 l 557 -69 l 361 -69 l 361 831 q 347 914 361 878 q 294 974 333 950 l 700 974 z "},"Ｑ":{"ha":1319,"x_min":221,"x_max":1097,"o":"m 1097 446 q 1079 256 1097 344 q 1022 98 1061 167 q 922 -16 983 29 q 776 -78 861 -61 q 835 -123 797 -106 q 946 -140 874 -140 q 993 -138 969 -140 q 1046 -131 1017 -136 l 1046 -232 q 968 -247 1006 -242 q 899 -253 931 -253 q 753 -243 815 -253 q 647 -212 692 -233 q 571 -156 601 -190 q 518 -71 540 -121 q 384 -8 440 -53 q 292 104 328 38 q 238 258 256 171 q 221 446 221 344 q 243 669 221 569 q 316 840 265 769 q 451 949 367 911 q 660 988 535 988 q 864 949 781 988 q 999 840 947 911 q 1074 669 1051 769 q 1097 446 1097 569 m 894 446 q 886 590 894 517 q 853 725 878 664 q 781 826 828 786 q 660 865 735 865 q 532 827 579 865 q 460 728 485 789 q 429 593 436 668 q 422 446 422 518 q 431 308 422 379 q 465 178 439 238 q 538 80 490 118 q 664 42 586 42 q 781 79 736 42 q 851 176 826 117 q 885 306 876 235 q 894 446 894 378 z "},"Ｒ":{"ha":1319,"x_min":251,"x_max":1068,"o":"m 803 685 q 787 769 803 736 q 742 822 771 803 q 676 847 714 840 q 593 854 638 854 q 548 851 564 854 q 524 839 532 847 q 515 817 517 831 q 513 785 513 804 l 513 513 l 583 513 q 657 519 618 513 q 728 544 696 525 q 781 597 760 563 q 803 685 803 631 m 558 974 q 717 968 638 974 q 858 935 796 963 q 960 850 921 907 q 999 692 999 793 q 982 581 999 628 q 936 500 965 533 q 869 447 907 467 q 788 417 831 426 l 1068 -69 l 840 -69 l 585 385 l 513 385 l 513 -69 l 318 -69 l 318 831 q 304 914 318 878 q 251 974 290 950 l 558 974 z "},"Ｓ":{"ha":1319,"x_min":319,"x_max":1000,"o":"m 1000 229 q 969 83 1000 143 q 885 -16 938 22 q 760 -72 832 -54 q 610 -89 689 -89 q 547 -85 585 -89 q 467 -76 508 -82 q 389 -64 426 -71 q 328 -50 351 -57 l 331 146 q 388 114 354 131 q 462 83 422 97 q 544 60 501 69 q 632 50 588 50 q 697 56 665 50 q 752 76 728 61 q 791 116 776 90 q 806 181 806 142 q 792 236 806 211 q 758 281 779 261 q 711 318 738 301 q 660 350 685 335 q 626 367 644 358 q 592 385 608 376 q 496 438 544 408 q 408 506 447 467 q 344 594 369 544 q 319 710 319 644 q 413 917 319 844 q 672 989 506 989 q 749 985 711 989 q 821 978 788 982 q 881 969 854 974 q 926 960 908 964 l 926 790 q 876 811 906 800 q 810 832 846 822 q 735 849 775 842 q 651 856 694 856 q 599 851 624 856 q 556 834 575 846 q 525 802 536 822 q 514 751 514 782 q 528 699 514 722 q 563 656 542 675 q 609 620 583 636 q 660 590 635 604 q 690 574 674 583 q 721 558 706 565 q 821 506 771 533 q 910 440 871 478 q 975 350 950 401 q 1000 229 1000 299 z "},"Ｔ":{"ha":1319,"x_min":258,"x_max":1060,"o":"m 1060 843 l 1060 975 l 258 975 l 258 843 l 554 843 l 554 -69 l 764 -69 l 764 843 l 1060 843 z "},"Ｕ":{"ha":1319,"x_min":242,"x_max":1076,"o":"m 308 831 q 294 914 308 878 q 242 974 281 950 l 440 974 q 488 954 468 974 q 507 903 507 935 l 507 368 q 510 251 507 308 q 531 148 513 193 q 589 75 549 103 q 704 47 629 47 q 828 72 785 47 q 891 138 871 97 q 915 229 911 178 q 918 333 918 281 l 918 974 l 1076 974 l 1076 338 q 1065 184 1076 260 q 1013 48 1053 108 q 894 -49 972 -12 q 683 -86 817 -86 q 509 -62 581 -86 q 393 9 438 -37 q 328 124 349 56 q 308 282 308 193 l 308 831 z "},"Ｖ":{"ha":1319,"x_min":163,"x_max":1157,"o":"m 303 813 q 163 975 261 926 l 375 975 q 443 958 415 975 q 483 904 471 940 l 725 246 l 989 974 l 1157 974 l 772 -69 l 624 -69 l 303 813 z "},"Ｗ":{"ha":1319,"x_min":-4,"x_max":1325,"o":"m 136 813 q 83 912 121 872 q -4 975 44 951 l 206 975 q 278 953 246 975 q 318 896 310 932 l 472 274 l 640 974 l 804 974 l 1024 258 l 1168 974 l 1325 974 l 1122 -69 l 925 -69 l 706 654 l 525 -69 l 350 -69 l 136 813 z "},"Ｘ":{"ha":1319,"x_min":192,"x_max":1126,"o":"m 347 826 q 278 915 315 879 q 192 975 240 951 l 407 975 q 478 956 451 975 q 524 906 504 938 l 694 625 l 917 974 l 1101 974 l 786 486 l 1126 -69 l 893 -69 l 657 324 l 422 -69 l 240 -69 l 567 465 l 347 826 z "},"Ｙ":{"ha":1319,"x_min":188,"x_max":1132,"o":"m 335 835 q 269 919 303 888 q 188 975 236 951 l 397 975 q 468 960 442 975 q 513 914 494 944 l 714 571 l 954 974 l 1132 974 l 789 408 l 789 -69 l 594 -69 l 594 408 l 335 835 z "},"Ｚ":{"ha":1319,"x_min":286,"x_max":1033,"o":"m 1031 -69 l 286 -69 l 286 50 l 779 846 l 314 846 l 314 974 l 963 974 q 1013 959 992 974 q 1033 918 1033 944 q 1020 866 1033 893 q 999 824 1007 839 l 533 63 l 1031 63 l 1031 -69 z "},"［":{"ha":1319,"x_min":831,"x_max":1181,"o":"m 1181 -210 l 831 -210 l 831 1081 l 1181 1081 l 1181 976 l 1072 976 q 1032 969 1044 976 q 1014 950 1019 963 q 1006 910 1007 933 q 1004 858 1004 886 l 1004 17 q 1006 -45 1004 -19 q 1014 -86 1007 -71 q 1032 -101 1019 -96 q 1072 -106 1044 -106 l 1181 -106 l 1181 -210 z "},"￦":{"ha":1319,"x_min":38,"x_max":1282,"o":"m 1282 408 l 1093 408 l 982 -74 l 815 -74 l 715 408 l 603 408 l 501 -74 l 333 -74 l 224 408 l 38 408 l 38 549 l 192 549 l 97 956 l 260 956 l 350 549 l 486 549 l 575 956 l 749 956 l 838 549 l 972 549 l 1064 956 l 1221 956 l 1126 549 l 1282 549 l 1282 408 m 688 549 l 660 678 l 632 549 l 688 549 m 940 408 l 868 408 l 903 247 l 940 408 m 454 408 l 381 408 l 418 242 l 454 408 z "},"］":{"ha":1319,"x_min":138,"x_max":488,"o":"m 488 -210 l 138 -210 l 138 -106 l 246 -106 q 298 -92 286 -106 q 313 -47 310 -78 q 314 -19 314 -35 q 314 17 314 -3 l 314 868 q 313 910 314 888 q 304 951 311 932 l 306 950 q 286 969 299 963 q 246 976 274 976 l 138 976 l 138 1081 l 488 1081 l 488 -210 z "},"＾":{"ha":1319,"x_min":411,"x_max":907,"o":"m 907 744 l 754 744 l 658 875 q 610 809 635 843 q 561 744 585 775 l 411 744 l 607 1026 l 710 1026 l 907 744 z "},"＿":{"ha":1319,"x_min":269,"x_max":1050,"o":"m 1050 -165 l 269 -165 l 269 -281 l 1050 -281 l 1050 -165 z "},"｀":{"ha":1319,"x_min":554,"x_max":765,"o":"m 765 763 l 676 763 l 579 925 q 563 956 572 938 q 554 985 554 974 q 582 1045 554 1025 q 638 1065 610 1065 q 697 1039 682 1065 q 721 972 711 1013 l 765 763 z "},"ａ":{"ha":1319,"x_min":367,"x_max":951,"o":"m 951 -62 l 772 -62 l 772 1 q 582 -81 694 -81 q 495 -65 535 -81 q 427 -22 456 -49 q 383 41 399 6 q 367 114 367 76 q 411 249 367 197 q 519 328 456 300 q 651 365 582 356 q 772 375 721 375 l 772 415 q 769 467 772 440 q 756 516 765 493 q 728 553 746 539 q 681 568 710 568 q 617 549 635 568 q 594 504 600 529 q 569 451 585 461 q 522 440 554 440 l 369 440 q 396 531 378 488 q 449 609 414 575 q 540 664 485 643 q 679 685 596 685 q 817 664 764 685 q 899 606 869 643 q 940 517 929 568 q 951 407 951 467 l 951 -62 m 772 253 q 708 251 746 254 q 636 235 671 247 q 577 200 601 222 q 553 142 553 178 q 575 82 553 107 q 628 57 597 57 q 683 67 657 57 q 728 97 708 78 q 760 142 749 115 q 772 201 772 169 l 772 253 z "},"ｂ":{"ha":1319,"x_min":306,"x_max":1013,"o":"m 828 304 q 822 378 828 339 q 801 450 817 417 q 758 506 786 483 q 688 528 731 528 q 625 509 650 528 q 585 462 600 490 q 565 401 571 433 q 558 340 558 368 l 558 283 q 591 126 558 185 q 682 68 624 68 q 758 91 729 68 q 801 149 786 114 q 822 225 817 183 q 828 304 828 267 m 444 -71 l 372 -71 l 372 860 q 358 943 372 907 q 306 1003 344 979 l 493 1003 q 540 983 521 1003 q 560 932 560 964 l 558 597 q 624 657 585 632 q 735 682 664 682 q 875 650 821 682 q 960 564 929 618 q 1001 440 990 510 q 1013 293 1013 369 q 997 145 1013 214 q 949 24 982 76 q 861 -58 915 -28 q 731 -87 807 -87 q 676 -81 706 -87 q 617 -60 646 -74 q 565 -28 589 -47 q 526 18 540 -8 l 444 -71 z "},"ｃ":{"ha":1319,"x_min":346,"x_max":974,"o":"m 833 439 q 801 442 813 439 q 782 451 789 444 q 772 469 775 457 q 764 500 768 481 q 738 547 758 526 q 672 568 717 568 q 619 551 643 568 q 578 502 596 533 q 551 429 561 471 q 542 340 542 388 q 557 214 542 265 q 601 132 572 163 q 674 88 631 101 q 771 75 717 75 q 810 76 788 75 q 856 81 832 78 q 902 89 879 85 q 944 99 925 93 l 944 -35 q 827 -67 890 -57 q 701 -76 764 -76 q 552 -49 618 -76 q 440 31 486 -21 q 370 155 394 82 q 346 317 346 228 q 367 465 346 397 q 429 583 388 533 q 533 662 471 633 q 681 690 596 690 q 799 672 746 690 q 892 622 853 654 q 952 542 931 589 q 974 439 974 496 l 833 439 z "},"ｄ":{"ha":1319,"x_min":328,"x_max":990,"o":"m 803 340 q 795 403 803 369 q 770 466 788 438 q 725 514 753 494 q 656 533 697 533 q 581 513 610 533 q 538 460 553 493 q 517 388 522 428 q 513 307 513 347 q 517 226 513 269 q 538 144 522 182 q 581 83 553 107 q 657 58 610 58 q 730 83 701 58 q 774 142 758 107 q 797 215 790 176 q 803 281 803 253 l 803 340 m 990 -71 l 803 -71 l 803 -4 q 715 -66 758 -44 q 611 -87 671 -87 q 480 -57 533 -87 q 392 24 426 -26 q 343 142 358 75 q 328 283 328 210 q 342 431 328 358 q 391 558 357 503 q 480 648 425 614 q 615 682 535 682 q 734 660 693 682 q 803 600 775 639 l 803 860 q 789 943 803 907 q 736 1003 775 979 l 924 1003 q 971 983 951 1003 q 990 932 990 964 l 990 -71 z "},"ｅ":{"ha":1319,"x_min":346,"x_max":974,"o":"m 549 299 q 563 206 550 247 q 603 136 575 165 q 679 92 632 107 q 799 76 726 76 q 890 87 843 76 q 968 110 938 97 l 968 -25 q 845 -59 907 -46 q 728 -72 783 -72 q 447 33 547 -72 q 346 335 346 138 q 432 600 346 508 q 675 692 518 692 q 837 653 778 692 q 926 556 896 614 q 965 428 957 497 q 974 299 974 358 l 549 299 m 793 421 q 786 476 792 450 q 768 523 781 503 q 733 555 756 543 q 676 567 711 567 q 622 555 644 567 q 583 524 599 543 q 560 477 568 504 q 550 421 553 450 l 793 421 z "},"ｆ":{"ha":1319,"x_min":324,"x_max":996,"o":"m 856 785 q 805 799 815 785 q 786 846 794 814 q 761 879 781 868 q 713 890 742 890 q 672 881 688 890 q 647 854 656 871 q 636 816 639 838 q 633 772 633 794 l 633 664 l 847 664 l 847 538 l 633 538 l 633 -71 l 444 -71 l 444 538 l 324 538 l 324 664 l 444 664 l 444 739 q 458 841 444 792 q 501 928 471 890 q 580 988 531 965 q 701 1011 629 1011 q 831 996 778 1011 q 917 951 883 981 q 969 880 950 922 q 996 785 988 838 l 856 785 z "},"ｇ":{"ha":1319,"x_min":307,"x_max":1013,"o":"m 1013 699 q 972 629 986 671 q 958 549 958 588 l 958 61 q 947 -60 958 0 q 901 -169 935 -121 q 803 -247 867 -217 q 638 -276 740 -276 q 396 -220 481 -278 q 307 -40 311 -162 l 507 -40 q 515 -81 508 -61 q 537 -116 522 -100 q 576 -141 551 -132 q 640 -150 601 -150 q 713 -135 686 -150 q 753 -95 739 -119 q 772 -42 768 -71 q 776 14 776 -14 l 776 64 q 711 8 751 32 q 599 -15 671 -15 q 470 14 524 -15 q 382 92 417 43 q 331 202 347 140 q 315 331 315 264 q 329 476 315 407 q 376 596 343 544 q 463 677 408 647 q 600 707 518 707 q 706 685 661 707 q 776 628 750 664 l 776 646 q 793 687 776 675 q 833 699 810 699 l 1013 699 m 776 410 q 764 466 776 438 q 732 517 751 494 q 689 555 713 540 q 642 569 665 569 q 570 553 599 569 q 525 507 542 536 q 501 438 508 478 q 494 351 494 399 q 501 263 494 306 q 525 188 508 221 q 569 136 542 156 q 636 117 596 117 q 702 138 675 117 q 746 191 729 160 q 769 258 763 222 q 776 321 776 293 l 776 410 z "},"ｈ":{"ha":1319,"x_min":306,"x_max":1013,"o":"m 558 543 q 596 594 575 569 q 643 635 617 618 q 703 663 669 653 q 783 674 738 674 q 897 647 853 674 q 967 580 942 621 q 1003 492 993 539 q 1013 403 1013 444 l 1013 -71 l 833 -71 l 833 379 q 828 428 833 404 q 811 471 824 453 q 777 500 799 489 q 721 511 756 511 q 668 494 694 511 q 619 448 642 476 q 580 383 596 419 q 558 308 564 347 l 558 -71 l 372 -71 l 372 858 q 358 942 372 906 q 306 1001 344 978 l 493 1001 q 540 982 521 1001 q 558 931 558 963 l 558 543 z "},"ｉ":{"ha":1319,"x_min":529,"x_max":789,"o":"m 774 -71 l 589 -71 l 589 549 q 579 619 589 585 q 529 682 569 654 l 719 682 q 765 660 756 682 q 774 601 774 638 l 774 -71 m 789 892 q 779 848 789 868 q 753 813 769 828 q 717 789 738 797 q 674 781 696 781 q 631 789 651 781 q 596 813 611 797 q 572 848 581 828 q 563 892 563 868 q 596 969 563 938 q 675 1001 629 1001 q 754 971 719 1001 q 789 892 789 940 z "},"ｊ":{"ha":1319,"x_min":386,"x_max":933,"o":"m 933 17 q 920 -95 933 -42 q 877 -188 907 -149 q 797 -251 847 -228 q 672 -275 747 -275 q 551 -259 601 -275 q 466 -214 500 -243 q 413 -145 432 -185 q 386 -57 394 -106 l 586 -57 q 604 -122 588 -93 q 664 -150 621 -150 q 725 -115 708 -150 q 742 -21 742 -79 l 742 547 q 732 615 742 579 q 685 679 722 651 l 890 679 q 922 663 911 679 q 933 621 933 647 l 933 17 m 928 892 q 918 848 928 868 q 892 813 908 828 q 856 789 876 797 q 813 781 835 781 q 770 789 790 781 q 735 813 750 797 q 710 848 719 828 q 701 892 701 868 q 735 969 701 938 q 814 1001 768 1001 q 893 971 858 1001 q 928 892 928 940 z "},"ｋ":{"ha":1319,"x_min":286,"x_max":1032,"o":"m 538 426 l 782 681 l 988 681 l 688 369 l 1032 -71 l 796 -71 l 538 274 l 538 -74 l 353 -74 l 353 860 q 339 943 353 907 q 286 1003 325 979 l 474 1003 q 521 983 501 1003 q 540 932 540 964 l 538 426 z "},"ｌ":{"ha":1319,"x_min":533,"x_max":786,"o":"m 600 863 q 586 946 600 910 q 533 1006 572 982 l 719 1006 q 767 986 747 1006 q 786 935 786 967 l 786 -69 l 600 -69 l 600 863 z "},"ｍ":{"ha":1319,"x_min":114,"x_max":1206,"o":"m 368 550 q 400 597 381 574 q 445 639 419 621 q 503 668 471 657 q 576 679 536 679 q 656 667 622 679 q 714 635 690 654 q 753 590 738 615 q 776 538 768 564 q 864 641 808 603 q 999 679 919 679 q 1117 649 1075 679 q 1179 572 1160 618 q 1202 474 1199 526 q 1206 379 1206 422 l 1206 -69 l 1025 -69 l 1025 357 q 1023 417 1025 388 q 1012 469 1021 447 q 984 506 1003 492 q 932 519 965 519 q 868 495 896 519 q 822 434 840 471 q 794 354 803 397 q 785 275 785 311 l 785 -69 l 604 -69 l 604 335 q 603 409 604 375 q 592 468 601 443 q 565 507 583 493 q 511 521 546 521 q 449 497 476 521 q 402 439 421 474 q 374 363 383 404 q 364 286 364 321 l 364 -69 l 185 -69 l 181 540 q 167 624 181 588 q 114 683 153 660 l 301 683 q 349 664 329 683 q 368 613 368 644 l 368 550 z "},"ｎ":{"ha":1319,"x_min":311,"x_max":1007,"o":"m 565 533 q 604 585 582 560 q 656 631 626 611 q 723 664 686 651 q 804 676 760 676 q 899 658 860 676 q 961 607 938 639 q 996 533 985 575 q 1007 444 1007 492 l 1007 -69 l 821 -69 l 821 332 q 819 406 821 372 q 808 465 817 440 q 781 504 799 490 q 732 518 763 518 q 668 497 699 518 q 615 442 638 475 q 578 371 592 410 q 565 297 565 332 l 565 -69 l 378 -69 l 378 539 q 364 622 378 586 q 311 682 350 658 l 499 682 q 546 663 526 682 q 565 611 565 643 l 565 533 z "},"ｏ":{"ha":1319,"x_min":321,"x_max":999,"o":"m 999 308 q 917 15 999 111 q 660 -82 835 -82 q 500 -52 565 -82 q 395 30 435 -22 q 338 153 356 82 q 321 308 321 225 q 404 605 321 510 q 660 700 488 700 q 808 672 744 700 q 915 591 872 643 q 978 467 957 539 q 999 308 999 394 m 811 308 q 805 402 811 354 q 782 489 799 450 q 736 552 765 528 q 660 576 707 576 q 582 551 611 576 q 536 487 553 526 q 514 400 519 447 q 508 308 508 353 q 514 213 508 260 q 536 128 519 165 q 583 67 553 90 q 660 43 613 43 q 737 66 707 43 q 783 126 767 89 q 806 210 800 163 q 811 308 811 258 z "},"ｐ":{"ha":1319,"x_min":303,"x_max":1017,"o":"m 833 328 q 829 411 833 371 q 810 483 825 451 q 767 535 796 515 q 690 554 739 554 q 621 531 647 554 q 581 475 594 508 q 562 403 567 442 q 557 333 557 364 l 557 282 q 563 215 557 250 q 583 149 568 179 q 624 99 597 119 q 693 79 651 79 q 768 101 740 79 q 810 158 796 122 q 829 238 825 193 q 833 328 833 282 m 558 594 q 633 665 585 636 q 740 694 682 694 q 869 665 817 694 q 955 585 922 635 q 1002 469 988 535 q 1017 331 1017 403 q 1003 193 1017 263 q 958 67 990 124 q 871 -24 925 11 q 735 -60 817 -60 q 624 -40 664 -60 q 557 11 583 -19 l 557 -271 l 369 -271 l 369 538 q 356 621 369 585 q 303 681 342 657 l 490 681 q 542 665 526 681 q 557 610 558 650 l 558 594 z "},"ｑ":{"ha":1319,"x_min":333,"x_max":985,"o":"m 985 690 l 983 -272 l 796 -272 l 796 25 q 717 -37 761 -17 q 615 -58 674 -58 q 475 -24 529 -58 q 389 67 421 11 q 345 191 357 122 q 333 329 333 260 q 349 468 333 401 q 397 585 364 535 q 481 666 429 636 q 608 696 533 696 q 727 669 678 696 q 807 610 776 642 l 907 690 l 985 690 m 796 332 q 792 398 796 360 q 774 470 788 436 q 732 528 760 504 q 658 553 704 553 q 586 533 614 553 q 542 483 558 514 q 520 411 526 451 q 514 329 514 371 q 520 240 514 283 q 542 161 526 196 q 586 105 558 126 q 658 83 614 83 q 730 104 703 83 q 772 156 757 125 q 791 223 786 188 q 796 286 796 258 l 796 332 z "},"ｒ":{"ha":1319,"x_min":386,"x_max":932,"o":"m 640 556 q 669 602 651 579 q 711 644 688 625 q 765 674 735 663 q 831 686 794 686 q 879 684 853 686 q 932 678 906 682 l 932 486 q 882 502 914 496 q 835 508 850 508 q 750 492 786 508 q 690 448 714 476 q 653 381 665 419 q 640 300 640 343 l 640 -69 l 453 -69 l 453 538 q 439 621 453 585 q 386 681 425 657 l 574 681 q 621 661 601 681 q 640 610 640 642 l 640 556 z "},"ｓ":{"ha":1319,"x_min":411,"x_max":907,"o":"m 907 146 q 886 40 907 85 q 828 -33 865 -4 q 738 -75 790 -61 q 624 -89 686 -89 q 519 -76 575 -89 q 411 -49 463 -64 l 413 114 q 462 86 433 99 q 520 65 490 74 q 578 50 550 56 q 629 44 607 44 q 715 61 688 44 q 743 106 743 78 q 734 141 743 125 q 710 170 725 157 q 678 194 696 183 q 644 215 661 206 q 627 226 636 221 q 608 236 618 231 q 541 275 575 254 q 479 323 507 296 q 434 385 451 350 q 417 465 417 419 q 432 551 417 511 q 479 621 447 590 q 560 669 511 651 q 679 686 610 686 q 781 677 733 686 q 876 654 829 668 l 876 497 q 780 541 836 521 q 671 561 724 561 q 610 547 639 561 q 581 504 581 532 q 590 469 581 485 q 612 443 599 454 q 642 423 625 432 q 676 406 660 414 q 720 384 696 396 q 756 367 744 372 q 865 284 822 336 q 907 146 907 232 z "},"ｔ":{"ha":1319,"x_min":411,"x_max":907,"o":"m 901 544 l 717 544 l 717 178 q 718 121 717 144 q 728 83 719 97 q 758 61 738 68 q 815 54 778 54 q 856 56 828 54 q 907 64 883 58 l 907 -68 q 876 -74 894 -72 q 839 -78 858 -76 q 801 -81 819 -81 q 769 -82 783 -82 q 668 -75 713 -82 q 592 -46 624 -68 q 544 19 561 -24 q 528 132 528 61 l 528 544 l 411 544 l 411 669 l 528 669 l 528 772 q 539 823 528 804 q 578 851 550 842 l 717 894 l 717 669 l 901 669 l 901 544 z "},"ｕ":{"ha":1319,"x_min":310,"x_max":1008,"o":"m 1008 -68 l 829 -68 l 829 40 q 745 -47 801 -8 q 604 -85 689 -85 q 476 -56 524 -85 q 406 18 429 -28 q 375 122 382 64 q 368 240 368 181 l 368 539 q 356 614 368 575 q 310 678 343 653 l 514 678 q 546 666 538 678 q 554 625 554 654 l 554 214 q 564 144 554 171 q 590 102 574 117 q 626 82 606 88 q 671 76 647 76 q 728 97 700 76 q 779 150 757 118 q 815 219 801 182 q 829 289 829 256 l 829 539 q 776 678 829 629 l 968 678 q 1000 666 992 678 q 1008 625 1008 654 l 1008 -68 z "},"ｖ":{"ha":1319,"x_min":269,"x_max":1050,"o":"m 1050 679 l 750 -68 l 621 -68 l 376 538 q 335 611 361 574 q 269 679 310 649 l 457 679 q 520 660 499 679 q 556 604 542 640 l 701 226 l 878 679 l 1050 679 z "},"ｗ":{"ha":1319,"x_min":122,"x_max":1196,"o":"m 1196 679 l 990 -69 l 829 -69 l 689 365 l 551 -69 l 383 -69 l 218 540 q 186 614 210 572 q 122 679 163 656 l 308 679 q 371 657 351 679 q 400 597 390 635 l 499 232 l 638 679 l 774 679 l 915 224 l 1031 679 l 1196 679 z "},"ｘ":{"ha":1319,"x_min":279,"x_max":1040,"o":"m 1040 -69 l 806 -69 l 643 185 l 465 -69 l 285 -69 l 556 310 l 397 557 q 349 621 378 589 q 279 679 319 653 l 488 679 q 551 660 529 681 q 589 613 572 640 l 685 456 l 842 679 l 1029 679 l 772 325 l 1040 -69 z "},"ｙ":{"ha":1319,"x_min":250,"x_max":1068,"o":"m 1068 679 l 788 -14 q 740 -106 767 -60 q 678 -190 714 -153 q 593 -250 642 -226 q 481 -274 544 -274 q 372 -250 415 -274 q 303 -192 329 -226 q 265 -116 278 -157 q 250 -42 253 -75 l 432 -42 q 458 -102 435 -76 q 524 -128 481 -128 q 558 -115 542 -128 q 588 -84 575 -103 q 611 -44 601 -65 q 625 -3 621 -22 l 392 538 q 372 576 385 554 q 344 618 360 597 q 312 656 329 639 q 279 679 294 672 l 469 679 q 534 655 511 679 q 572 596 557 631 l 726 218 l 896 679 l 1068 679 z "},"ｚ":{"ha":1319,"x_min":358,"x_max":960,"o":"m 960 68 l 958 -68 l 358 -68 l 358 35 l 719 556 l 365 556 l 365 679 l 889 679 q 938 669 918 679 q 957 629 957 658 q 950 596 957 614 q 925 553 943 578 l 583 68 l 960 68 z "},"｛":{"ha":1319,"x_min":711,"x_max":1179,"o":"m 1179 -382 q 1055 -358 1117 -379 q 944 -300 993 -336 q 864 -215 894 -264 q 833 -107 833 -165 q 837 -52 833 -75 q 846 -7 840 -29 q 865 70 854 26 q 875 149 875 114 q 862 206 875 178 q 826 260 849 235 q 774 303 803 285 q 711 333 744 322 l 711 408 q 774 435 744 418 q 826 475 803 453 q 862 524 849 497 q 875 583 875 551 q 869 642 875 610 q 856 699 864 674 q 840 764 847 731 q 833 839 833 797 q 864 947 833 897 q 944 1033 894 996 q 1055 1090 993 1069 q 1179 1114 1117 1111 l 1179 1031 q 1057 959 1094 1011 q 1019 851 1019 907 q 1023 797 1019 824 q 1029 746 1026 771 q 1037 693 1033 719 q 1040 635 1040 667 q 1025 544 1040 585 q 983 470 1010 503 q 922 413 957 438 q 850 371 888 389 q 922 326 888 351 q 983 265 957 300 q 1024 189 1008 231 q 1040 97 1040 147 q 1037 38 1040 65 q 1029 -14 1033 10 q 1023 -66 1026 -40 q 1019 -119 1019 -92 q 1057 -227 1019 -175 q 1179 -299 1094 -279 l 1179 -382 z "},"｜":{"ha":1319,"x_min":585,"x_max":733,"o":"m 733 1081 l 585 1081 l 585 -210 l 733 -210 l 733 1081 z "},"｝":{"ha":1319,"x_min":140,"x_max":608,"o":"m 140 -299 q 263 -227 225 -279 q 300 -119 300 -175 q 297 -66 300 -92 q 290 -14 293 -40 q 283 38 286 10 q 279 97 279 65 q 295 189 279 147 q 337 265 311 231 q 397 326 363 300 q 469 371 432 351 q 397 413 432 389 q 336 470 363 438 q 294 544 310 503 q 279 635 279 585 q 283 693 279 667 q 290 746 286 719 q 297 797 293 771 q 300 851 300 824 q 263 959 300 907 q 140 1031 225 1011 l 140 1114 q 265 1090 203 1111 q 376 1033 326 1069 q 456 947 425 996 q 486 839 486 897 q 479 764 486 797 q 464 699 472 731 q 450 642 456 674 q 444 583 444 610 q 458 524 444 551 q 494 475 471 497 q 546 435 517 453 q 608 408 575 418 l 608 333 q 546 303 575 322 q 494 260 517 285 q 458 206 471 235 q 444 149 444 178 q 455 70 444 114 q 474 -7 465 26 q 483 -52 479 -29 q 486 -107 486 -75 q 456 -215 486 -165 q 376 -300 425 -264 q 265 -358 326 -336 q 140 -382 203 -379 l 140 -299 z "},"￣":{"ha":1319,"x_min":36,"x_max":1283,"o":"m 1283 951 l 36 951 l 36 1069 l 1283 1069 l 1283 951 z "},"ㄱ":{"ha":1319,"x_min":251,"x_max":1088,"o":"m 251 740 l 965 740 q 1060 708 1032 740 q 1088 614 1088 676 l 1088 115 l 904 115 l 904 565 q 894 599 904 590 q 858 607 883 607 l 251 607 l 251 740 z "},"ㄲ":{"ha":1319,"x_min":204,"x_max":1129,"o":"m 715 735 l 1007 735 q 1101 703 1074 735 q 1129 608 1129 671 l 1129 122 l 954 122 l 954 560 q 944 593 954 585 q 908 601 933 601 l 715 601 l 715 735 m 204 735 l 521 735 q 615 703 588 735 q 643 608 643 671 l 643 122 l 468 122 l 468 560 q 458 593 468 585 q 422 601 447 601 l 204 601 l 204 735 z "},"ㄳ":{"ha":1319,"x_min":136,"x_max":1231,"o":"m 136 732 l 474 732 q 568 700 540 732 q 596 606 596 668 l 596 122 l 413 122 l 413 557 q 402 590 413 582 q 367 599 392 599 l 136 599 l 136 732 m 1010 588 q 1027 466 1010 524 q 1075 360 1044 408 q 1146 275 1106 313 q 1231 215 1186 238 l 1154 117 q 1089 153 1122 129 q 1025 208 1056 178 q 970 270 994 238 q 932 335 946 303 q 838 204 897 264 q 693 103 779 144 l 601 206 q 689 266 649 228 q 758 353 729 304 q 803 461 788 401 q 819 588 819 521 l 819 674 q 807 720 819 693 q 767 760 794 747 l 914 760 q 988 735 967 760 q 1010 678 1010 711 l 1010 588 z "},"ㄴ":{"ha":1319,"x_min":253,"x_max":1115,"o":"m 396 750 q 465 725 444 750 q 485 660 485 700 l 485 325 q 495 291 485 300 q 531 282 506 282 l 1115 282 l 1115 149 l 425 149 q 374 160 397 149 q 335 192 351 172 q 310 238 319 213 q 301 289 301 263 l 301 656 q 290 706 301 679 q 253 750 278 733 l 396 750 z "},"ㄵ":{"ha":1319,"x_min":111,"x_max":1214,"o":"m 640 740 l 1183 740 l 1183 600 l 1004 600 l 1004 593 q 1020 478 1004 533 q 1064 374 1036 422 q 1130 283 1092 325 q 1214 211 1168 242 l 1125 121 q 1065 167 1094 140 q 1008 224 1035 193 q 962 289 982 256 q 932 357 942 322 q 891 284 917 321 q 833 215 865 247 q 763 155 801 182 q 685 111 725 128 l 606 219 q 771 369 718 274 q 824 593 824 464 l 824 600 l 640 600 l 640 740 m 254 757 q 323 732 303 757 q 343 667 343 707 l 343 311 q 353 277 343 286 q 389 268 364 268 l 586 268 l 586 135 l 283 135 q 233 147 256 135 q 194 178 210 158 q 169 224 178 199 q 160 275 160 249 l 160 663 q 148 713 160 686 q 111 757 136 740 l 254 757 z "},"ㄶ":{"ha":1319,"x_min":110,"x_max":1203,"o":"m 643 292 q 659 206 643 246 q 706 135 675 165 q 783 89 738 106 q 885 72 828 72 q 986 89 942 72 q 1061 135 1031 106 q 1108 206 1092 165 q 1124 292 1124 246 q 1108 378 1124 338 q 1061 449 1092 419 q 986 497 1031 479 q 885 514 942 514 q 783 497 828 514 q 706 449 738 479 q 659 378 675 419 q 643 292 643 338 m 110 750 q 147 706 135 733 q 158 656 158 679 l 158 275 q 167 224 158 249 q 192 178 176 199 q 231 147 208 158 q 282 135 254 135 l 613 135 l 613 268 l 388 268 q 352 277 363 268 q 342 311 342 286 l 342 660 q 322 725 342 700 q 253 750 301 750 l 110 750 m 561 551 l 561 685 l 799 685 l 799 744 q 787 793 799 764 q 751 838 775 822 l 893 838 q 958 810 939 838 q 976 749 976 783 l 976 685 l 1203 685 l 1203 551 l 561 551 m 790 290 q 814 360 790 333 q 886 388 838 388 q 959 360 935 388 q 983 290 983 333 q 959 222 983 250 q 886 193 935 193 q 814 222 838 193 q 790 290 790 250 z "},"ㄷ":{"ha":1319,"x_min":242,"x_max":1101,"o":"m 1088 597 l 469 597 l 469 328 q 480 291 469 303 q 515 279 490 279 l 1101 279 l 1101 146 l 411 146 q 322 179 357 146 q 286 283 286 213 l 286 600 q 278 676 286 644 q 242 731 269 708 l 1088 731 l 1088 597 z "},"ㄸ":{"ha":1319,"x_min":156,"x_max":1164,"o":"m 608 604 l 383 604 l 383 322 q 394 285 383 297 q 429 274 404 274 l 622 274 l 622 140 l 325 140 q 235 174 271 140 q 200 278 200 207 l 200 607 q 192 683 200 651 q 156 738 183 715 l 608 738 l 608 604 m 1150 604 l 885 604 l 885 322 q 895 285 885 297 q 931 274 906 274 l 1164 274 l 1164 140 l 826 140 q 737 174 772 140 q 701 278 701 207 l 701 607 q 693 683 701 651 q 657 738 685 715 l 1150 738 l 1150 604 z "},"ㄹ":{"ha":1319,"x_min":249,"x_max":1093,"o":"m 292 651 l 292 785 l 993 785 q 1058 759 1039 785 q 1076 696 1076 733 l 1076 386 l 485 386 l 485 282 q 495 248 485 257 q 531 239 506 239 l 1093 239 l 1093 106 l 411 106 q 331 143 360 106 q 301 235 301 181 l 301 401 q 289 468 301 438 q 249 519 276 499 l 892 519 l 892 622 q 857 650 892 650 l 292 651 z "},"ㄺ":{"ha":1319,"x_min":143,"x_max":1175,"o":"m 744 765 l 1053 765 q 1147 733 1119 765 q 1175 639 1175 701 l 1175 101 l 992 101 l 992 590 q 981 624 992 615 q 946 632 971 632 l 744 632 l 744 765 m 186 633 l 186 765 l 583 765 q 648 740 629 765 q 667 676 667 714 l 667 381 l 378 381 l 378 290 q 388 256 378 265 q 424 247 399 247 l 711 247 l 711 114 l 306 114 q 225 151 254 114 q 196 243 196 189 l 196 396 q 183 463 196 432 q 143 514 171 493 l 485 514 l 485 606 q 450 633 485 633 l 186 633 z "},"ㄻ":{"ha":1319,"x_min":132,"x_max":1179,"o":"m 175 632 l 175 764 l 550 764 q 615 738 596 764 q 633 675 633 713 l 633 382 l 365 382 l 365 289 q 376 255 365 264 q 411 246 386 246 l 650 246 l 650 114 l 294 114 q 214 151 243 114 q 185 243 185 189 l 185 396 q 172 463 185 432 q 132 514 160 493 l 453 514 l 453 604 q 418 632 453 632 l 175 632 m 1011 247 l 1011 603 q 976 631 1011 631 l 881 631 l 881 289 q 891 256 881 264 q 926 247 901 247 l 1011 247 m 714 633 q 660 764 714 722 l 1075 764 q 1158 735 1136 764 q 1179 657 1179 706 l 1179 114 l 825 114 q 742 140 771 114 q 714 238 714 167 l 714 633 z "},"ㄼ":{"ha":1319,"x_min":132,"x_max":1178,"o":"m 1178 115 l 825 115 q 742 142 771 115 q 714 239 714 168 l 714 631 q 660 761 714 719 l 799 761 q 862 739 843 761 q 881 675 881 717 l 881 565 l 1010 565 l 1010 639 q 956 769 1010 728 l 1096 769 q 1159 747 1140 769 q 1178 683 1178 725 l 1178 115 m 175 632 l 175 764 l 550 764 q 615 738 596 764 q 633 675 633 713 l 633 382 l 365 382 l 365 289 q 376 255 365 264 q 411 246 386 246 l 650 246 l 650 114 l 294 114 q 214 151 243 114 q 185 243 185 189 l 185 396 q 172 463 185 432 q 132 514 160 493 l 453 514 l 453 604 q 418 632 453 632 l 175 632 m 926 249 l 1010 249 l 1010 432 l 881 432 l 881 290 q 891 257 881 265 q 926 249 901 249 z "},"ㄽ":{"ha":1319,"x_min":129,"x_max":1257,"o":"m 172 632 l 172 764 l 561 764 q 626 738 607 764 q 644 675 644 713 l 644 382 l 363 382 l 363 289 q 373 255 363 264 q 408 246 383 246 l 661 246 l 661 236 q 796 378 746 286 q 846 593 846 471 l 846 681 q 833 727 846 700 q 793 767 821 754 l 940 767 q 1015 742 993 767 q 1036 685 1036 718 l 1036 593 q 1053 472 1036 529 q 1101 366 1071 414 q 1172 281 1132 318 q 1257 221 1213 243 l 1181 122 q 1114 163 1147 139 q 1050 217 1081 188 q 996 277 1019 246 q 958 340 972 308 q 865 210 924 269 q 719 108 807 151 l 661 179 l 661 114 l 292 114 q 211 151 240 114 q 182 243 182 189 l 182 396 q 169 463 182 432 q 129 514 157 493 l 464 514 l 464 604 q 429 632 464 632 l 172 632 z "},"ㄾ":{"ha":1319,"x_min":132,"x_max":1199,"o":"m 175 632 l 175 764 l 550 764 q 615 738 596 764 q 633 675 633 713 l 633 382 l 365 382 l 365 289 q 376 255 365 264 q 411 246 386 246 l 650 246 l 650 114 l 294 114 q 214 151 243 114 q 185 243 185 189 l 185 396 q 172 463 185 432 q 132 514 160 493 l 453 514 l 453 604 q 418 632 453 632 l 175 632 m 1168 639 l 888 639 l 888 513 l 1154 513 l 1154 385 l 888 385 l 888 282 q 898 249 888 257 q 933 240 908 240 l 1199 240 l 1199 114 l 832 114 q 742 147 778 114 q 707 251 707 181 l 707 635 q 699 711 707 679 q 663 765 690 743 l 1168 765 l 1168 639 z "},"ㄿ":{"ha":1319,"x_min":110,"x_max":1225,"o":"m 153 632 l 153 764 l 528 764 q 592 738 574 764 q 611 675 611 713 l 611 382 l 343 382 l 343 289 q 353 255 343 264 q 389 246 364 246 l 628 246 l 628 114 l 272 114 q 192 151 221 114 q 163 243 163 189 l 163 396 q 150 463 163 432 q 110 514 138 493 l 431 514 l 431 604 q 396 632 431 632 l 153 632 m 1225 114 l 658 114 l 658 247 l 743 247 l 743 479 q 735 524 743 501 q 711 561 726 546 l 803 561 q 876 541 857 561 q 896 468 896 521 l 896 247 l 993 247 l 993 490 q 985 535 993 513 q 961 572 976 557 l 1049 572 q 1126 552 1103 572 q 1149 479 1149 532 l 1149 247 l 1224 247 l 1225 114 m 667 633 l 667 767 l 1182 767 l 1182 633 l 667 633 z "},"ㅀ":{"ha":1319,"x_min":111,"x_max":1204,"o":"m 397 632 q 432 604 432 632 l 432 514 l 111 514 q 151 463 139 493 q 164 396 164 432 l 164 243 q 193 151 164 189 q 274 114 222 114 l 629 114 l 629 246 l 390 246 q 355 255 365 246 q 344 289 344 264 l 344 382 l 613 382 l 613 675 q 594 738 613 713 q 529 764 575 764 l 154 764 l 154 632 l 397 632 m 686 292 q 702 206 686 246 q 749 135 718 165 q 826 89 781 106 q 928 72 871 72 q 1029 89 985 72 q 1104 135 1074 106 q 1151 206 1135 165 q 1167 292 1167 246 q 1151 378 1167 338 q 1104 449 1135 419 q 1029 497 1074 479 q 928 514 985 514 q 826 497 871 514 q 749 449 781 479 q 702 378 718 419 q 686 292 686 338 m 646 551 l 646 685 l 842 685 l 842 744 q 830 793 842 764 q 794 838 818 822 l 936 838 q 1001 810 982 838 q 1019 749 1019 783 l 1019 685 l 1204 685 l 1204 551 l 646 551 m 833 290 q 857 360 833 333 q 929 388 881 388 q 1002 360 978 388 q 1026 290 1026 333 q 1002 222 1026 250 q 929 193 978 193 q 857 222 881 193 q 833 290 833 250 z "},"ㅁ":{"ha":1319,"x_min":232,"x_max":1088,"o":"m 904 269 l 904 579 q 869 607 904 607 l 469 607 l 469 311 q 480 278 469 286 q 515 269 490 269 l 904 269 m 286 610 q 232 740 286 699 l 969 740 q 1060 704 1032 740 q 1088 619 1088 668 l 1088 136 l 411 136 q 322 169 357 136 q 286 274 286 203 l 286 610 z "},"ㅂ":{"ha":1319,"x_min":253,"x_max":1072,"o":"m 1072 128 l 432 128 q 342 161 378 128 q 307 265 307 194 l 307 618 q 253 749 307 707 l 408 749 q 472 726 453 749 q 490 663 490 704 l 490 568 l 889 568 l 889 626 q 835 757 889 715 l 990 757 q 1053 735 1035 757 q 1072 671 1072 713 l 1072 128 m 536 261 l 889 261 l 889 435 l 490 435 l 490 303 q 501 269 490 278 q 536 261 511 261 z "},"ㅃ":{"ha":1319,"x_min":156,"x_max":1113,"o":"m 1113 122 l 335 122 q 245 156 281 122 q 210 260 210 189 l 210 619 q 156 750 210 708 l 308 750 q 372 728 353 750 q 390 664 390 706 l 390 561 l 572 561 l 572 618 q 518 749 572 707 l 672 749 q 735 726 717 749 q 754 663 754 704 l 754 561 l 932 561 l 932 628 q 878 758 932 717 l 1031 758 q 1094 736 1075 758 q 1113 672 1113 714 l 1113 122 m 390 297 q 401 264 390 272 q 436 256 411 256 l 572 256 l 572 428 l 390 428 l 390 297 m 932 256 l 932 428 l 754 428 l 754 256 l 932 256 z "},"ㅄ":{"ha":1319,"x_min":136,"x_max":1238,"o":"m 1017 593 q 1034 472 1017 529 q 1082 366 1051 414 q 1153 281 1113 318 q 1238 221 1193 243 l 1161 122 q 1096 159 1129 135 q 1032 213 1063 183 q 977 276 1001 243 q 939 340 953 308 q 845 210 904 269 q 700 108 786 150 l 642 174 l 642 121 l 315 121 q 226 154 261 121 q 190 258 190 188 l 190 618 q 136 749 190 707 l 278 749 q 341 726 322 749 q 360 663 360 704 l 360 568 l 475 568 l 475 626 q 421 757 475 715 l 560 757 q 623 735 604 757 q 642 671 642 713 l 642 229 q 775 376 724 282 q 826 593 826 471 l 826 667 q 814 713 826 686 q 774 753 801 740 l 921 753 q 995 728 974 753 q 1017 671 1017 704 l 1017 593 m 475 254 l 475 435 l 358 435 l 358 296 q 369 263 358 271 q 404 254 379 254 l 475 254 z "},"ㅅ":{"ha":1319,"x_min":231,"x_max":1118,"o":"m 686 765 q 751 732 732 765 q 769 656 769 699 l 769 606 q 803 496 769 550 q 889 395 838 442 q 1002 313 940 349 q 1118 258 1064 276 l 1036 144 q 935 183 988 158 q 837 240 883 208 q 751 310 790 272 q 690 386 713 347 q 621 296 664 339 q 526 217 578 253 q 420 153 475 181 q 314 114 365 126 l 231 239 q 352 301 290 263 q 464 387 414 339 q 546 491 514 435 q 578 608 578 547 l 578 665 q 569 718 578 689 q 538 765 561 747 l 686 765 z "},"ㅆ":{"ha":1319,"x_min":111,"x_max":1208,"o":"m 807 675 q 797 717 807 692 q 763 754 786 742 l 915 754 q 977 731 960 754 q 994 678 994 708 l 994 576 q 1010 470 994 522 q 1055 372 1026 418 q 1122 289 1083 326 q 1208 229 1161 251 l 1131 131 q 1065 164 1099 142 q 1002 215 1032 186 q 949 275 972 243 q 913 339 925 307 q 872 271 899 306 q 811 206 846 236 q 738 153 776 176 q 663 117 700 129 q 531 212 588 153 q 449 338 475 271 q 406 269 433 304 q 345 203 379 235 q 273 148 311 172 q 199 110 235 124 l 111 225 q 200 282 158 247 q 272 361 242 317 q 320 460 303 406 q 338 576 338 514 l 338 674 q 327 717 338 692 q 293 754 317 742 l 449 754 q 510 731 493 754 q 528 678 528 708 l 528 576 q 539 481 528 526 q 568 397 550 435 q 610 328 586 358 q 661 281 635 299 q 763 397 721 321 q 807 576 806 472 l 807 675 z "},"ㅇ":{"ha":1319,"x_min":294,"x_max":1053,"o":"m 294 439 q 319 567 294 507 q 392 672 344 626 q 511 743 440 717 q 672 769 582 769 q 832 743 761 769 q 951 672 903 717 q 1026 567 1000 626 q 1053 439 1053 507 q 1026 310 1053 369 q 951 205 1000 250 q 832 134 903 160 q 672 108 761 108 q 511 134 582 108 q 392 205 440 160 q 319 310 344 250 q 294 439 294 369 m 486 439 q 499 368 486 401 q 535 310 511 335 q 594 271 560 285 q 674 257 629 257 q 754 271 719 257 q 813 310 789 285 q 849 368 836 335 q 861 439 861 401 q 849 509 861 476 q 813 567 836 542 q 754 606 789 592 q 674 621 719 621 q 594 606 629 621 q 535 567 560 592 q 499 509 511 542 q 486 439 486 476 z "},"ㅈ":{"ha":1319,"x_min":231,"x_max":1118,"o":"m 283 740 l 1065 740 l 1065 607 l 769 607 l 769 593 q 803 483 769 538 q 889 383 838 429 q 1002 300 940 336 q 1118 246 1064 264 l 1036 132 q 935 171 988 146 q 837 228 883 196 q 751 297 790 260 q 690 374 713 335 q 621 283 664 326 q 526 204 578 240 q 420 141 475 168 q 314 101 365 114 l 231 226 q 352 288 290 250 q 464 374 414 326 q 546 478 514 422 q 578 596 578 535 l 578 607 l 283 607 l 283 740 z "},"ㅉ":{"ha":1319,"x_min":125,"x_max":1194,"o":"m 193 739 l 1143 739 l 1143 606 l 981 606 l 981 582 q 997 476 981 528 q 1041 378 1013 424 q 1108 294 1069 332 q 1194 235 1147 257 l 1117 136 q 1051 169 1085 147 q 988 220 1018 192 q 935 281 958 249 q 899 344 911 313 q 860 276 885 311 q 804 212 836 242 q 736 158 772 182 q 663 122 700 135 q 538 217 588 158 q 463 343 489 276 q 420 275 447 310 q 359 209 393 240 q 287 153 325 178 q 213 115 249 129 l 125 231 q 214 288 172 253 q 286 367 256 322 q 334 465 317 411 q 351 582 351 519 l 351 606 l 193 606 l 193 739 m 661 289 q 793 582 790 375 l 793 606 l 542 606 l 542 582 q 576 408 542 485 q 661 289 611 332 z "},"ㅊ":{"ha":1319,"x_min":231,"x_max":1118,"o":"m 269 685 l 579 685 l 579 751 q 577 774 579 761 q 571 801 575 788 q 559 826 567 814 q 539 844 551 838 l 692 844 q 753 817 738 844 q 768 756 768 790 l 768 685 l 1079 685 l 1079 551 l 774 551 q 822 453 785 501 q 908 364 858 404 q 1013 292 957 324 q 1118 243 1068 260 l 1036 129 q 935 168 988 143 q 837 225 883 193 q 751 294 790 257 q 690 371 713 332 q 621 281 664 324 q 526 201 578 238 q 420 138 475 165 q 314 99 365 111 l 231 224 q 342 279 286 246 q 447 355 399 313 q 528 447 494 397 q 574 551 563 497 l 269 551 l 269 685 z "},"ㅋ":{"ha":1319,"x_min":275,"x_max":1067,"o":"m 275 757 l 944 757 q 1039 725 1011 757 q 1067 631 1067 693 l 1067 114 l 883 114 l 883 335 l 275 335 l 275 465 l 883 465 l 883 582 q 873 615 883 607 q 838 624 863 624 l 275 624 l 275 757 z "},"ㅌ":{"ha":1319,"x_min":231,"x_max":1089,"o":"m 1089 256 l 1089 122 l 419 122 q 320 156 354 122 q 286 278 286 190 l 286 635 q 273 703 286 669 q 231 758 260 738 l 1078 758 l 1078 625 l 469 625 l 469 504 l 1067 504 l 1067 369 l 469 369 l 469 297 q 480 264 469 272 q 515 256 490 256 l 1089 256 z "},"ㅍ":{"ha":1319,"x_min":244,"x_max":1085,"o":"m 1085 136 l 244 136 l 244 269 l 417 269 l 417 457 q 408 501 417 479 q 385 539 400 524 l 494 539 q 563 513 539 539 q 588 446 588 488 l 588 269 l 761 269 l 761 468 q 753 513 761 490 q 729 550 744 535 l 835 550 q 907 524 879 550 q 935 457 935 499 l 935 269 l 1085 269 l 1085 136 m 263 740 l 1058 740 l 1058 606 l 263 606 l 263 740 z "},"ㅎ":{"ha":1319,"x_min":247,"x_max":1085,"o":"m 358 264 q 380 368 358 319 q 441 452 401 417 q 538 508 481 488 q 669 529 596 529 q 801 508 743 529 q 899 452 860 488 q 960 368 939 417 q 981 264 981 319 q 960 160 981 208 q 899 76 939 111 q 801 19 860 40 q 669 -1 743 -1 q 538 19 596 -1 q 441 76 481 40 q 380 160 401 111 q 358 264 358 208 m 247 579 l 247 713 l 583 713 l 583 778 q 572 826 583 797 q 536 871 560 856 l 674 871 q 738 844 719 871 q 757 782 757 817 l 757 713 l 1085 713 l 1085 579 l 247 579 m 525 264 q 563 175 525 211 q 669 139 601 139 q 777 175 740 139 q 814 264 814 211 q 777 352 814 315 q 669 389 740 389 q 563 352 601 389 q 525 264 525 315 z "},"ㅏ":{"ha":1319,"x_min":447,"x_max":872,"o":"m 496 -183 l 496 925 q 483 977 496 949 q 447 1018 469 1006 l 585 1018 q 679 931 679 1018 l 679 514 l 872 514 l 872 381 l 679 381 l 679 -183 l 496 -183 z "},"ㅐ":{"ha":1319,"x_min":406,"x_max":926,"o":"m 444 -185 l 444 918 q 437 971 444 940 q 406 1017 429 1001 l 518 1017 q 588 994 563 1017 q 613 931 613 972 l 613 542 l 754 542 l 754 949 q 742 997 751 969 q 708 1040 733 1025 l 833 1040 q 926 946 926 1040 l 925 -210 l 754 -210 l 754 408 l 613 408 l 613 -185 l 444 -185 z "},"ㅑ":{"ha":1319,"x_min":468,"x_max":896,"o":"m 517 -183 l 517 924 q 503 976 517 947 q 468 1017 490 1004 l 606 1017 q 700 929 700 1017 l 700 678 l 896 678 l 896 544 l 700 544 l 700 338 l 896 338 l 896 204 l 700 204 l 700 -183 l 517 -183 z "},"ㅒ":{"ha":1319,"x_min":392,"x_max":914,"o":"m 431 -183 l 431 919 q 423 972 431 942 q 392 1018 415 1003 l 507 1018 q 576 996 551 1018 q 601 932 601 974 l 601 681 l 742 681 l 742 950 q 730 999 739 971 q 696 1042 721 1026 l 821 1042 q 914 947 914 1042 l 914 -208 l 742 -208 l 742 203 l 601 203 l 601 -183 l 431 -183 m 601 336 l 742 336 l 742 547 l 601 547 l 601 336 z "},"ㅓ":{"ha":1319,"x_min":439,"x_max":851,"o":"m 439 554 l 668 554 l 668 924 q 655 976 668 947 q 619 1018 642 1006 l 757 1018 q 851 929 851 1018 l 851 -183 l 668 -183 l 668 421 l 439 421 l 439 554 z "},"ㅔ":{"ha":1319,"x_min":310,"x_max":997,"o":"m 550 -183 l 550 422 l 310 422 l 310 556 l 550 556 l 550 919 q 542 972 550 942 q 511 1018 535 1003 l 639 1018 q 701 996 683 1018 q 719 932 719 974 l 719 -183 l 550 -183 m 825 -208 l 825 950 q 815 999 825 971 q 779 1042 804 1026 l 904 1042 q 997 947 997 1042 l 997 -208 l 825 -208 z "},"ㅕ":{"ha":1319,"x_min":446,"x_max":872,"o":"m 689 -183 l 689 199 l 446 199 l 446 332 l 689 332 l 689 546 l 460 546 l 460 679 l 689 679 l 689 925 q 676 977 689 949 q 640 1018 663 1006 l 778 1018 q 872 931 872 1018 l 872 -183 l 689 -183 z "},"ㅖ":{"ha":1319,"x_min":339,"x_max":981,"o":"m 544 -183 l 544 214 l 339 214 l 339 347 l 544 347 l 544 547 l 340 547 l 340 681 l 544 681 l 544 919 q 537 972 544 942 q 506 1018 529 1003 l 619 1018 q 689 996 664 1018 q 714 932 714 974 l 714 -183 l 544 -183 m 808 -208 l 808 950 q 798 999 808 971 q 763 1042 788 1026 l 888 1042 q 981 947 981 1042 l 981 -208 l 808 -208 z "},"ㅗ":{"ha":1319,"x_min":114,"x_max":1204,"o":"m 1204 146 l 1204 279 l 749 279 l 749 676 l 565 676 l 565 279 l 114 279 l 114 146 l 1204 146 z "},"ㅘ":{"ha":1319,"x_min":67,"x_max":1294,"o":"m 919 -183 l 919 183 q 849 164 888 172 q 768 149 810 156 q 685 138 726 142 q 606 135 643 135 l 67 135 l 67 268 l 375 268 l 375 639 l 558 639 l 558 268 l 640 268 q 709 271 672 268 q 783 279 746 274 q 855 292 819 285 q 919 307 890 299 l 919 925 q 906 977 919 949 q 871 1018 893 1006 l 1006 1018 q 1100 931 1100 1018 l 1100 553 l 1294 553 l 1294 419 l 1100 419 l 1100 -183 l 919 -183 z "},"ㅙ":{"ha":1319,"x_min":125,"x_max":1236,"o":"m 782 -183 l 782 161 q 669 141 729 149 q 550 133 608 133 l 125 133 l 125 267 l 347 267 l 347 639 l 526 639 l 526 267 l 585 267 q 681 272 629 267 q 782 286 733 278 l 782 919 q 774 972 782 942 q 743 1018 767 1003 l 857 1018 q 926 996 901 1018 q 951 932 951 974 l 951 583 l 1064 583 l 1064 950 q 1053 999 1064 971 q 1018 1042 1043 1026 l 1143 1042 q 1236 947 1236 1042 l 1236 -208 l 1064 -208 l 1064 450 l 951 450 l 951 -183 l 782 -183 z "},"ㅚ":{"ha":1319,"x_min":163,"x_max":1197,"o":"m 1014 -183 l 1014 181 q 944 163 982 171 q 865 148 906 154 q 784 138 825 142 q 708 135 743 135 l 163 135 l 163 268 l 464 268 l 464 639 l 647 639 l 647 268 l 743 268 q 881 278 806 268 q 1014 304 956 289 l 1014 925 q 1001 977 1014 949 q 965 1018 988 1006 l 1103 1018 q 1197 931 1197 1018 l 1197 -183 l 1014 -183 z "},"ㅛ":{"ha":1319,"x_min":114,"x_max":1204,"o":"m 1204 146 l 1204 279 l 965 279 l 965 690 l 782 690 l 782 279 l 513 279 l 513 690 l 329 690 l 329 279 l 114 279 l 114 146 l 1204 146 z "},"ㅜ":{"ha":1319,"x_min":114,"x_max":1204,"o":"m 750 61 l 750 549 l 1204 549 l 1204 682 l 114 682 l 114 549 l 567 549 l 567 61 l 750 61 z "},"ㅝ":{"ha":1319,"x_min":111,"x_max":1208,"o":"m 1025 -183 l 1025 89 l 736 89 l 736 222 l 1025 222 l 1025 925 q 1012 977 1025 949 q 976 1018 999 1006 l 1114 1018 q 1208 931 1208 1018 l 1208 -183 l 1025 -183 m 410 -142 l 410 358 l 111 358 l 111 492 l 963 492 l 963 358 l 593 358 l 593 -142 l 410 -142 z "},"ㅞ":{"ha":1319,"x_min":83,"x_max":1236,"o":"m 808 -183 l 808 89 l 596 89 l 596 222 l 808 222 l 808 918 q 801 971 808 940 q 769 1017 793 1001 l 883 1017 q 953 994 928 1017 q 978 931 978 972 l 978 -183 l 808 -183 m 1064 -214 l 1064 949 q 1053 997 1064 969 q 1018 1040 1043 1025 l 1143 1040 q 1236 946 1236 1040 l 1236 -214 l 1064 -214 m 331 -175 l 331 358 l 83 358 l 83 492 l 753 492 l 753 358 l 506 358 l 506 -175 l 331 -175 z "},"ㅟ":{"ha":1319,"x_min":111,"x_max":1208,"o":"m 438 -171 l 438 375 l 111 375 l 111 510 l 797 510 q 910 518 850 510 q 1025 539 971 526 l 1025 925 q 1012 977 1025 949 q 976 1018 999 1006 l 1114 1018 q 1208 931 1208 1018 l 1208 -183 l 1025 -183 l 1025 413 q 893 385 964 396 q 763 375 822 375 l 621 375 l 621 -171 l 438 -171 z "},"ㅠ":{"ha":1319,"x_min":114,"x_max":1204,"o":"m 504 75 l 504 549 l 817 549 l 817 75 l 1000 75 l 1000 549 l 1204 549 l 1204 682 l 114 682 l 114 549 l 321 549 l 321 75 l 504 75 z "},"ㅡ":{"ha":1319,"x_min":114,"x_max":1204,"o":"m 1204 385 l 1204 518 l 114 518 l 114 385 l 1204 385 z "},"ㅢ":{"ha":1319,"x_min":168,"x_max":1193,"o":"m 1010 -183 l 1010 285 q 940 267 978 275 q 861 252 901 258 q 780 242 821 246 q 704 239 739 239 l 168 239 l 168 372 l 739 372 q 876 383 801 372 q 1010 408 951 393 l 1010 925 q 997 977 1010 949 q 961 1018 983 1006 l 1099 1018 q 1193 931 1193 1018 l 1193 -183 l 1010 -183 z "},"ㅣ":{"ha":1319,"x_min":543,"x_max":775,"o":"m 592 -183 l 592 958 q 578 1010 592 982 q 543 1051 565 1039 l 681 1051 q 775 964 775 1051 l 775 -183 l 592 -183 z "},"ㅤ":{"ha":1319,"x_min":111,"x_max":1207,"o":"m 1207 594 l 681 594 l 681 747 l 1207 747 l 1207 594 m 1182 321 q 1163 225 1182 268 q 1112 151 1144 182 q 1035 103 1079 121 q 940 86 992 86 q 844 103 889 86 q 767 151 800 121 q 716 225 735 182 q 697 321 697 268 q 716 415 697 372 q 767 490 735 458 q 844 538 800 521 q 940 556 889 556 q 1035 538 990 556 q 1112 490 1079 521 q 1163 415 1144 458 q 1182 321 1182 372 m 638 594 l 111 594 l 111 747 l 638 747 l 638 594 m 619 321 q 601 225 619 268 q 551 151 583 182 q 474 103 518 119 q 378 86 429 86 q 282 103 326 86 q 206 151 238 121 q 155 225 174 182 q 136 321 136 268 q 155 416 136 372 q 206 490 174 460 q 283 538 239 521 q 378 556 326 556 q 472 538 428 556 q 549 490 517 521 q 601 415 582 458 q 619 321 619 372 m 1040 321 q 1013 394 1040 365 q 940 424 985 424 q 868 394 896 424 q 840 321 840 365 q 868 247 840 276 q 940 218 896 218 q 1013 247 985 218 q 1040 321 1040 276 m 478 321 q 451 394 478 365 q 378 424 425 424 q 306 394 333 424 q 278 321 278 365 q 306 247 278 276 q 378 218 333 218 q 450 247 422 218 q 478 321 478 276 z "},"ㅥ":{"ha":1319,"x_min":150,"x_max":1168,"o":"m 293 751 q 362 726 342 751 q 382 661 382 701 l 382 311 q 392 277 382 286 q 428 268 403 268 l 638 268 l 638 135 l 322 135 q 272 147 294 135 q 233 178 249 158 q 208 224 217 199 q 199 275 199 249 l 199 657 q 187 708 199 681 q 150 751 175 735 l 293 751 m 796 751 q 865 726 844 751 q 885 661 885 701 l 885 311 q 895 277 885 286 q 931 268 906 268 l 1168 268 l 1168 135 l 825 135 q 774 147 797 135 q 735 178 751 158 q 710 224 719 199 q 701 275 701 249 l 701 657 q 690 708 701 681 q 653 751 678 735 l 796 751 z "},"ㅦ":{"ha":1319,"x_min":151,"x_max":1167,"o":"m 294 750 q 363 725 343 750 q 383 660 383 700 l 383 311 q 394 277 383 286 q 429 268 404 268 l 639 268 l 639 135 l 324 135 q 273 147 296 135 q 234 178 250 158 q 209 224 218 199 q 200 275 200 249 l 200 656 q 188 706 200 679 q 151 750 176 733 l 294 750 m 1153 606 l 888 606 l 888 317 q 898 280 888 292 q 933 268 908 268 l 1167 268 l 1167 135 l 829 135 q 740 168 775 135 q 704 272 704 201 l 704 608 q 696 685 704 653 q 660 739 688 717 l 1153 739 l 1153 606 z "},"ㅧ":{"ha":1319,"x_min":121,"x_max":1228,"o":"m 1007 593 q 1024 472 1007 529 q 1072 366 1042 414 q 1143 281 1103 318 q 1228 221 1183 243 l 1151 122 q 1086 159 1119 135 q 1022 213 1053 183 q 967 276 992 243 q 929 340 943 308 q 835 210 894 269 q 690 108 776 150 l 628 178 l 628 135 l 293 135 q 242 147 265 135 q 203 178 219 158 q 178 224 188 199 q 169 275 169 249 l 169 656 q 158 706 169 679 q 121 750 146 733 l 264 750 q 333 725 313 750 q 353 660 353 700 l 353 311 q 363 277 353 286 q 399 268 374 268 l 628 268 l 628 226 q 764 374 711 278 q 817 593 817 469 l 817 676 q 804 723 817 696 q 764 763 792 750 l 911 763 q 985 738 964 763 q 1007 681 1007 714 l 1007 593 z "},"ㅨ":{"ha":1319,"x_min":103,"x_max":1208,"o":"m 1193 169 q 1164 128 1208 128 l 669 128 q 632 141 640 128 q 633 174 624 154 l 874 739 q 912 769 886 769 q 950 739 938 769 l 1193 169 m 986 263 q 990 269 993 263 l 918 463 q 907 463 913 478 l 836 276 q 846 263 831 263 l 986 263 m 103 750 q 140 706 128 733 q 151 656 151 679 l 151 275 q 160 224 151 249 q 185 178 169 199 q 224 147 201 158 q 275 135 247 135 l 606 135 l 606 268 l 381 268 q 345 277 356 268 q 335 311 335 286 l 335 660 q 315 725 335 700 q 246 750 294 750 l 103 750 z "},"ㅩ":{"ha":1319,"x_min":75,"x_max":1244,"o":"m 953 696 q 941 734 953 711 q 906 768 929 757 l 1033 768 q 1097 747 1078 768 q 1117 699 1117 726 l 1117 603 q 1149 374 1117 478 q 1244 208 1181 271 l 1147 135 q 1077 222 1104 179 q 1039 314 1050 265 q 1018 259 1032 288 q 987 204 1004 231 q 949 156 969 178 q 908 119 928 133 l 821 207 l 821 115 l 671 115 l 671 592 q 660 625 671 617 q 625 633 650 633 l 503 633 l 503 767 l 699 767 q 793 735 765 767 q 821 640 821 703 l 821 238 q 924 394 894 306 q 953 603 954 483 l 953 696 m 118 631 l 118 764 l 388 764 q 452 738 433 764 q 471 675 471 713 l 471 381 l 278 381 l 278 290 q 288 256 278 265 q 324 247 299 247 l 517 247 l 517 114 l 238 114 q 157 151 186 114 q 128 243 128 189 l 128 396 q 115 469 128 432 q 75 528 103 507 l 319 528 l 319 603 q 285 631 319 631 l 118 631 z "},"ㅪ":{"ha":1319,"x_min":132,"x_max":1169,"o":"m 1156 633 l 904 633 l 904 303 q 915 266 904 278 q 950 254 925 254 l 1169 254 l 1169 121 l 846 121 q 756 154 792 121 q 721 258 721 188 l 721 636 q 713 713 721 681 q 676 767 704 744 l 1156 767 l 1156 633 m 175 632 l 175 764 l 550 764 q 615 738 596 764 q 633 675 633 713 l 633 382 l 365 382 l 365 289 q 376 255 365 264 q 411 246 386 246 l 650 246 l 650 114 l 294 114 q 214 151 243 114 q 185 243 185 189 l 185 396 q 172 463 185 432 q 132 514 160 493 l 453 514 l 453 604 q 418 632 453 632 l 175 632 z "},"ㅫ":{"ha":1319,"x_min":61,"x_max":1261,"o":"m 969 696 q 958 734 969 711 q 922 768 946 757 l 1050 768 q 1114 747 1094 768 q 1133 699 1133 726 l 1133 589 q 1165 360 1133 464 q 1261 194 1197 257 l 1164 121 q 1094 208 1121 165 q 1056 300 1067 251 q 1035 245 1049 274 q 1003 190 1021 217 q 965 142 986 164 q 925 106 944 119 l 842 189 l 842 114 l 581 114 q 506 138 529 114 q 483 224 483 161 l 483 632 q 477 708 483 676 q 443 763 471 740 l 540 763 q 603 740 585 763 q 622 676 622 718 l 622 568 l 701 568 l 701 640 q 702 717 701 685 q 675 771 703 749 l 760 771 q 823 749 804 771 q 842 685 842 726 l 842 228 q 942 383 913 294 q 969 589 971 471 l 969 696 m 108 631 l 108 764 l 347 764 q 412 738 393 764 q 431 675 431 713 l 431 381 l 254 381 l 254 290 q 265 256 254 265 q 300 247 275 247 l 440 247 l 440 114 l 224 114 q 143 151 172 114 q 114 243 114 189 l 114 396 q 101 469 114 432 q 61 528 89 507 l 279 528 l 279 603 q 244 631 279 631 l 108 631 m 701 247 l 701 435 l 622 435 l 622 271 q 628 251 622 256 q 649 247 633 247 l 701 247 z "},"ㅬ":{"ha":1319,"x_min":108,"x_max":1208,"o":"m 385 625 q 419 597 419 625 l 419 514 l 108 514 q 149 463 136 493 q 161 396 161 432 l 161 249 q 190 157 161 194 q 271 119 219 119 l 604 119 l 604 253 l 389 253 q 353 262 364 253 q 343 296 343 271 l 343 381 l 601 381 l 601 669 q 583 733 601 707 q 518 758 564 758 l 151 758 l 151 625 l 385 625 m 1193 169 q 1164 128 1208 128 l 669 128 q 632 141 640 128 q 633 174 624 154 l 874 739 q 912 769 886 769 q 950 739 938 769 l 1193 169 m 986 263 q 990 269 993 263 l 918 463 q 907 463 913 478 l 836 276 q 846 263 831 263 l 986 263 z "},"ㅭ":{"ha":1319,"x_min":124,"x_max":1254,"o":"m 167 631 l 167 764 l 533 764 q 598 738 579 764 q 617 675 617 713 l 617 381 l 358 381 l 358 290 q 369 256 358 265 q 404 247 379 247 l 633 247 l 633 114 l 286 114 q 206 151 235 114 q 176 243 176 189 l 176 396 q 164 463 176 432 q 124 514 151 493 l 435 514 l 435 603 q 400 631 435 631 l 167 631 m 668 607 l 668 740 l 1254 740 l 1254 607 l 668 607 m 722 315 q 738 402 722 361 q 785 473 754 443 q 862 520 817 503 q 964 538 907 538 q 1065 520 1021 538 q 1140 473 1110 503 q 1187 402 1171 443 q 1203 315 1203 361 q 1187 229 1203 269 q 1140 159 1171 189 q 1065 113 1110 129 q 964 96 1021 96 q 862 113 907 96 q 785 159 817 129 q 738 229 754 189 q 722 315 722 269 m 869 314 q 893 245 869 274 q 965 217 917 217 q 1038 245 1014 217 q 1063 314 1063 274 q 1038 384 1063 357 q 965 411 1014 411 q 893 384 917 411 q 869 314 869 357 z "},"ㅮ":{"ha":1319,"x_min":135,"x_max":1178,"o":"m 189 610 q 135 740 189 699 l 533 740 q 616 711 594 740 q 638 633 638 682 l 638 136 l 300 136 q 217 163 246 136 q 189 260 189 189 l 189 610 m 1178 136 l 825 136 q 742 163 771 136 q 714 260 714 189 l 714 613 q 660 743 714 701 l 793 743 q 856 721 838 743 q 875 657 875 699 l 875 564 l 1015 564 l 1015 621 q 961 751 1015 710 l 1096 751 q 1159 729 1140 751 q 1178 665 1178 707 l 1178 136 m 478 269 l 478 579 q 443 607 478 607 l 349 607 l 349 311 q 359 278 349 286 q 394 269 369 269 l 478 269 m 1015 269 l 1015 431 l 875 431 l 875 311 q 885 278 875 286 q 921 269 896 269 l 1015 269 z "},"ㅯ":{"ha":1319,"x_min":106,"x_max":1222,"o":"m 160 610 q 106 740 160 699 l 504 740 q 587 710 565 740 q 608 632 608 681 l 608 218 q 690 281 653 243 q 753 366 726 318 q 796 472 781 414 q 811 593 811 529 l 811 668 q 799 715 811 688 q 758 754 786 742 l 906 754 q 980 730 958 754 q 1001 672 1001 706 l 1001 593 q 1019 472 1001 529 q 1067 366 1036 414 q 1138 281 1097 318 q 1222 221 1178 243 l 1146 122 q 1081 159 1114 135 q 1017 213 1047 183 q 962 276 986 243 q 924 340 938 308 q 830 210 889 269 q 685 108 771 150 l 608 193 l 608 136 l 271 136 q 188 163 217 136 q 160 260 160 189 l 160 610 m 449 269 l 449 579 q 414 607 449 607 l 319 607 l 319 311 q 330 278 319 286 q 365 269 340 269 l 449 269 z "},"ㅰ":{"ha":1319,"x_min":106,"x_max":1208,"o":"m 365 269 q 330 278 340 269 q 319 311 319 286 l 319 607 l 414 607 q 449 579 449 607 l 449 269 l 365 269 m 160 260 q 188 163 160 189 q 271 136 217 136 l 608 136 l 608 633 q 587 711 608 682 q 504 740 565 740 l 106 740 q 160 610 160 699 l 160 260 m 1193 169 q 1164 128 1208 128 l 669 128 q 632 141 640 128 q 633 174 624 154 l 874 739 q 912 769 886 769 q 950 739 938 769 l 1193 169 m 986 263 q 990 269 993 263 l 918 463 q 907 463 913 478 l 836 276 q 846 263 831 263 l 986 263 z "},"ㅱ":{"ha":1319,"x_min":274,"x_max":1032,"o":"m 849 575 l 849 738 q 814 765 849 765 l 511 765 l 511 617 q 522 583 511 592 q 557 575 532 575 l 849 575 m 328 768 q 274 899 328 857 l 914 899 q 1004 863 976 899 q 1032 778 1032 826 l 1032 442 l 453 442 q 363 475 399 442 q 328 579 328 508 l 328 768 m 417 138 q 435 229 417 186 q 490 303 454 272 q 576 353 525 335 q 692 371 628 371 q 805 353 754 371 q 890 303 856 335 q 944 229 925 272 q 963 138 963 186 q 944 46 963 88 q 890 -27 925 4 q 805 -76 856 -58 q 692 -93 754 -93 q 576 -76 628 -93 q 490 -27 525 -58 q 435 46 454 4 q 417 138 417 88 m 569 138 q 600 52 569 85 q 693 19 631 19 q 783 52 751 19 q 815 138 815 85 q 783 219 815 186 q 693 251 751 251 q 600 219 631 251 q 569 138 569 186 z "},"ㅲ":{"ha":1319,"x_min":167,"x_max":1153,"o":"m 692 124 l 332 124 q 249 150 278 124 q 221 247 221 176 l 221 617 q 167 747 221 706 l 301 747 q 365 725 346 747 q 383 661 383 703 l 383 550 l 528 550 l 528 625 q 474 756 528 714 l 610 756 q 673 733 654 756 q 692 669 692 711 l 692 124 m 751 746 l 1031 746 q 1125 714 1097 746 q 1153 619 1153 682 l 1153 124 l 969 124 l 969 571 q 959 604 969 596 q 924 613 949 613 l 751 613 l 751 746 m 429 257 l 528 257 l 528 417 l 383 417 l 383 299 q 394 265 383 274 q 429 257 404 257 z "},"ㅳ":{"ha":1319,"x_min":129,"x_max":1181,"o":"m 656 125 l 294 125 q 212 151 240 125 q 183 249 183 178 l 183 618 q 129 749 183 707 l 264 749 q 327 726 308 749 q 346 663 346 704 l 346 550 l 492 550 l 492 626 q 438 757 492 715 l 574 757 q 637 735 618 757 q 656 671 656 713 l 656 125 m 1167 607 l 918 607 l 918 318 q 928 281 918 293 q 964 269 939 269 l 1181 269 l 1181 136 l 863 136 q 773 169 808 136 q 738 274 738 203 l 738 610 q 729 686 738 654 q 693 740 721 718 l 1167 740 l 1167 607 m 492 258 l 492 417 l 346 417 l 346 300 q 356 267 346 275 q 392 258 367 258 l 492 258 z "},"ㅴ":{"ha":1319,"x_min":93,"x_max":1188,"o":"m 646 682 q 634 720 646 697 q 599 754 622 743 l 726 754 q 790 733 771 754 q 810 685 810 713 l 810 603 q 842 374 810 478 q 938 208 874 271 l 840 135 q 770 222 797 179 q 732 314 743 265 q 711 259 725 288 q 680 204 697 231 q 642 156 663 178 q 601 119 621 133 l 517 204 l 517 128 l 231 128 q 156 151 179 128 q 133 238 133 175 l 133 618 q 127 694 133 663 q 93 749 121 726 l 190 749 q 253 726 235 749 q 272 663 272 704 l 272 568 l 376 568 l 376 626 q 377 703 376 671 q 350 757 378 735 l 435 757 q 498 735 479 757 q 517 671 517 713 l 517 240 q 617 397 588 308 q 646 603 647 485 l 646 682 m 867 753 l 1065 753 q 1160 721 1132 753 q 1188 626 1188 689 l 1188 126 l 1038 126 l 1038 578 q 1027 611 1038 603 q 992 619 1017 619 l 867 619 l 867 753 m 376 261 l 376 435 l 272 435 l 272 285 q 278 265 272 269 q 299 261 283 261 l 376 261 z "},"ㅵ":{"ha":1319,"x_min":93,"x_max":1232,"o":"m 636 682 q 624 720 636 697 q 589 754 613 743 l 717 754 q 781 733 761 754 q 800 685 800 713 l 800 603 q 832 374 800 478 q 928 208 864 271 l 831 135 q 760 222 788 179 q 722 314 733 265 q 701 259 715 288 q 670 204 688 231 q 632 156 653 178 q 592 119 611 133 l 517 194 l 517 128 l 231 128 q 156 151 179 128 q 133 238 133 175 l 133 618 q 127 694 133 663 q 93 749 121 726 l 190 749 q 253 726 235 749 q 272 663 272 704 l 272 568 l 376 568 l 376 626 q 377 703 376 671 q 350 757 378 735 l 435 757 q 498 735 479 757 q 517 671 517 713 l 517 250 q 610 403 583 317 q 636 603 638 489 l 636 682 m 1218 618 l 1074 618 l 1074 317 q 1084 280 1074 292 q 1119 268 1094 268 l 1232 268 l 1232 135 l 1046 135 q 956 168 992 135 q 921 272 921 201 l 921 621 q 913 697 921 665 q 876 751 904 729 l 1218 751 l 1218 618 m 376 261 l 376 435 l 272 435 l 272 285 q 278 265 272 269 q 299 261 283 261 l 376 261 z "},"ㅶ":{"ha":1319,"x_min":97,"x_max":1242,"o":"m 675 740 l 1200 740 l 1200 600 l 1021 600 q 1039 480 1021 538 q 1087 374 1057 422 q 1157 290 1117 326 q 1242 231 1197 253 l 1165 132 q 1100 169 1133 144 q 1036 223 1067 193 q 981 285 1006 253 q 943 350 957 318 q 849 219 908 279 q 704 118 790 160 l 614 219 l 614 125 l 263 125 q 180 151 208 125 q 151 249 151 178 l 151 610 q 97 740 151 699 l 236 740 q 299 718 281 740 q 318 654 318 696 l 318 561 l 446 561 l 446 618 q 392 749 446 707 l 532 749 q 595 726 576 749 q 614 663 614 704 l 614 221 q 701 281 661 243 q 769 367 740 318 q 814 475 797 417 q 831 600 831 533 l 675 600 l 675 740 m 446 258 l 446 428 l 318 428 l 318 300 q 328 267 318 275 q 364 258 339 258 l 446 258 z "}}}
